<?xml version="1.0" encoding="UTF-8" standalone="no"?>
<!-- Created with Inkscape (http://www.inkscape.org/) -->

<svg
   xmlns:dc="http://purl.org/dc/elements/1.1/"
   xmlns:cc="http://creativecommons.org/ns#"
   xmlns:rdf="http://www.w3.org/1999/02/22-rdf-syntax-ns#"
   xmlns:svg="http://www.w3.org/2000/svg"
   xmlns="http://www.w3.org/2000/svg"
   xmlns:sodipodi="http://sodipodi.sourceforge.net/DTD/sodipodi-0.dtd"
   xmlns:inkscape="http://www.inkscape.org/namespaces/inkscape"
   width="744.09448819"
   height="1052.3622047"
   id="svg2"
   version="1.1"
   inkscape:version="0.48.4 r9943 custom"
   sodipodi:docname="atmosphere-purifier.svg">
  <sodipodi:namedview
     id="base"
     pagecolor="#ffffff"
     bordercolor="#666666"
     borderopacity="1.0"
     inkscape:pageopacity="0.0"
     inkscape:pageshadow="2"
     inkscape:zoom="7.919596"
     inkscape:cx="65.664071"
     inkscape:cy="1038.8628"
     inkscape:document-units="px"
     inkscape:current-layer="layer1"
     showgrid="false"
     inkscape:window-width="1855"
     inkscape:window-height="1036"
     inkscape:window-x="63"
     inkscape:window-y="22"
     inkscape:window-maximized="0"
     showguides="true"
     inkscape:guide-bbox="true" />
  <defs
     id="defs4" />
  <metadata
     id="metadata7">
    <rdf:RDF>
      <cc:Work
         rdf:about="">
        <dc:format>image/svg+xml</dc:format>
        <dc:type
           rdf:resource="http://purl.org/dc/dcmitype/StillImage" />
        <dc:title />
      </cc:Work>
    </rdf:RDF>
  </metadata>
  <g
     inkscape:label="Layer 1"
     inkscape:groupmode="layer"
     id="layer1">
    <rect
       style="fill:#666666;fill-opacity:1;fill-rule:nonzero;stroke:none"
       id="rect2993"
       width="37.687344"
       height="32.928841"
       x="0.15508327"
       y="0.014481163" />
    <path
       style="fill:#2b0000;stroke:none"
       d="M 29.673231,7.4856377 C 35.008593,5.2272678 36.266348,9.3848259 36.744299,13.92536 L 36.996837,27.183612 C 35.242705,28.274525 35.004262,28.214562 33.461304,27.057343 35.395373,23.062071 34.726276,19.456251 34.345187,15.188051 33.316351,11.141169 33.800359,7.8986589 29.546962,10.137288 L 29.673231,7.4856377"
       id="path2999"
       inkscape:connector-curvature="0"
       sodipodi:nodetypes="ccccccc" />
    <path
       style="fill:#550000;stroke:none"
       d="M -0.12626947,22.259119 17.5514,18.597316 37.628183,21.880311 37.501914,33.370797 -0.63134547,32.486913 -0.12626947,22.259119"
       id="path3001"
       inkscape:connector-curvature="0" />
    <path
       inkscape:connector-curvature="0"
       id="path3022"
       d="M 32.866529,20.193035 33.089744,27.916249 37.196886,28.228749 37.420101,21.041249 32.866529,20.193035"
       style="fill:#808000;stroke:none" />
    <path
       style="opacity:0.59174314;fill:#2b0000;stroke:none"
       d="M 0.12626853,22.511657 -0.25253847,28.446303 16.920055,31.981837 37.375645,30.340339 37.375645,22.511657 20.076782,20.491352 0.12626853,22.511657"
       id="path3771"
       inkscape:connector-curvature="0" />
    <path
       style="fill:#aa0000;stroke:none"
       d="M 4.1668795,26.804805 6.9447985,4.2026421 11.585805,2.1985761 23.861228,1.9441451 29.041886,4.2026421 32.198612,25.415845 17.5514,30.719146 4.1668795,26.804805"
       id="path2995"
       inkscape:connector-curvature="0"
       sodipodi:nodetypes="cccccccc" />
    <path
       style="opacity:0.30275233;fill:#000000;fill-opacity:1;stroke:none"
       d="M 28.789348,4.2026421 31.946075,21.122697 37.754452,21.880311 37.249376,33.623335 16.920055,32.739451 17.930208,12.157593 23.274297,11.764469 23.85142,1.8636631 28.789348,4.2026421"
       id="path3773"
       inkscape:connector-curvature="0"
       sodipodi:nodetypes="cccsccscc" />
    <path
       sodipodi:nodetypes="cccsccc"
       inkscape:connector-curvature="0"
       id="path3775"
       d="M 26.895312,7.2330998 29.420694,22.637926 17.046324,26.678536 7.071068,23.269271 8.7179969,6.1790682 11.869292,11.905055 22.841267,11.965189"
       style="opacity:0.30275233;fill:#000000;fill-opacity:1;stroke:none" />
    <path
       style="fill:#00ff00;stroke:none"
       d="M 36.469795,23.30734 36.625657,24.685064 34.479704,24.644298 34.680983,22.803367 C 35.348571,22.424591 36.0455,21.820866 36.469795,23.30734 z"
       id="active"
       inkscape:connector-curvature="0"
       sodipodi:nodetypes="ccccc" />
  </g>
</svg>
