<?xml version="1.0" encoding="UTF-8" standalone="no"?>
<!-- Created with Inkscape (http://www.inkscape.org/) -->

<svg
   xmlns:dc="http://purl.org/dc/elements/1.1/"
   xmlns:cc="http://creativecommons.org/ns#"
   xmlns:rdf="http://www.w3.org/1999/02/22-rdf-syntax-ns#"
   xmlns:svg="http://www.w3.org/2000/svg"
   xmlns="http://www.w3.org/2000/svg"
   xmlns:sodipodi="http://sodipodi.sourceforge.net/DTD/sodipodi-0.dtd"
   xmlns:inkscape="http://www.inkscape.org/namespaces/inkscape"
   width="744.09448819"
   height="1052.3622047"
   id="svg2"
   version="1.1"
   inkscape:version="0.48.4 r9943 custom"
   sodipodi:docname="blowtorch.svg">
  <sodipodi:namedview
     id="base"
     pagecolor="#ffffff"
     bordercolor="#666666"
     borderopacity="1.0"
     inkscape:pageopacity="0.0"
     inkscape:pageshadow="2"
     inkscape:zoom="7.9195959"
     inkscape:cx="14.624257"
     inkscape:cy="1042.4653"
     inkscape:document-units="px"
     inkscape:current-layer="layer1"
     showgrid="false"
     inkscape:window-width="1855"
     inkscape:window-height="1036"
     inkscape:window-x="65"
     inkscape:window-y="22"
     inkscape:window-maximized="0" />
  <defs
     id="defs4" />
  <metadata
     id="metadata7">
    <rdf:RDF>
      <cc:Work
         rdf:about="">
        <dc:format>image/svg+xml</dc:format>
        <dc:type
           rdf:resource="http://purl.org/dc/dcmitype/StillImage" />
        <dc:title />
      </cc:Work>
    </rdf:RDF>
  </metadata>
  <g
     inkscape:label="Layer 1"
     inkscape:groupmode="layer"
     id="layer1">
    <rect
       style="fill:#666666;fill-opacity:1;fill-rule:nonzero;stroke:none"
       id="rect2993"
       width="37.666531"
       height="32.910652"
       x="-14.809767"
       y="-13.268994" />
    <path
       style="fill:#00ff00;stroke:none"
       d="M-14.619531 -13.078758L-11.575771 -11.366638L-11.956241 15.456492L-8.3417767 16.217432L-7.5808367 17.929552L21.334882 17.358842L22.856765 18.119782L23.047001 19.641662L-15.000001 19.261192L-14.619531 -13.078758"
       id="active"
       inkscape:connector-curvature="0" />
    <path
       style="fill:#aa4400;stroke:none"
       d="M6.5532623 -6.0736877L1.9309143 -4.5181777L-0.92261173 -0.33300768L-1.1464757 2.6088723L2.5246983 3.2372723L6.4965523 -1.6646577L6.6867883 -3.7572377L6.5532623 -6.0736877"
       id="path3015"
       inkscape:connector-curvature="0"
       sodipodi:nodetypes="cccccccc" />
    <path
       style="fill:#d45500;stroke:none"
       d="M7.4365573 13.648382L11.606567 17.448472L22.838693 18.356462L22.872353 7.8305523L16.012014 2.7861823L7.4365893 13.648382"
       id="path3023"
       inkscape:connector-curvature="0"
       sodipodi:nodetypes="cccccc" />
    <path
       style="fill:#d4aa00;stroke:none"
       d="M0.04768427 4.9569723L6.3063183 13.363902L12.774308 15.076022L16.008303 13.554142L19.242298 7.2763923L17.339948 2.7107423L9.5729523 -3.1202677L0.04768427 4.9569723L0.04768427 4.9569723"
       id="path3019"
       inkscape:connector-curvature="0"
       sodipodi:nodetypes="cccccccc" />
    <path
       style="fill:#000000;stroke:none"
       d="M0.03815227 2.7861823L1.3160583 -0.98027768L2.8293683 -3.0989177L6.5285713 -4.3431877L8.4118023 -1.2156877L4.1072753 4.3331223L0.03815227 2.7861823"
       id="path3021"
       inkscape:connector-curvature="0" />
    <path
       style="fill:#800000;stroke:none"
       d="M-1.1128467 2.5205123L0.02856427 6.1349823L5.7606733 6.0887823L10.046892 -0.43690768L9.9207833 -3.9475177L6.5554043 -6.0695277L6.4965543 -2.0451677L3.4096053 2.3061723L-1.1128447 2.5204723"
       id="path3017"
       inkscape:connector-curvature="0"
       sodipodi:nodetypes="ccccccccc" />
    <path
       style="opacity:0.59174314;fill:#999999;stroke:none"
       d="M0.67710527 1.2392423L-1.1052377 -2.2245577L0.84525127 -5.0157777L-1.9123357 -7.4034377L-0.19725073 -10.530948L-1.8787067 -12.615958L-1.1052377 -13.288538L5.5533273 -13.187648L6.6294583 -10.833618L5.0825193 -6.4281977L5.5196983 -4.1077877L4.6789703 -1.5856077L0.67710527 1.2392423"
       id="path3025"
       inkscape:connector-curvature="0" />
    <path
       style="opacity:0.3853211;fill:#1a1a1a;stroke:none"
       d="M-1.0716077 2.5844023L0.03815227 6.1154623L1.0806553 6.1491623L6.3267973 13.312162L7.8401073 13.782972L11.741084 17.515802L21.628043 18.188392L15.603194 13.727642L14.30818 14.247202L6.1398723 5.5186823L5.7506263 6.0968923L3.4010643 2.3154423L-1.0716077 2.5844823"
       id="path3795"
       inkscape:connector-curvature="0"
       sodipodi:nodetypes="ccccccccccccc" />
    <path
       sodipodi:nodetypes="cccccccccccc"
       style="opacity:0.54128436;fill:#ffffff;stroke:none"
       d="M9.9193423 -3.9336977L9.8795923 -2.8380477L17.289886 2.8870623L17.861581 4.2322323L22.771429 7.8641723L22.838669 9.5120023L19.038577 6.7544123L18.56777 5.7791623L9.7737563 0.00336232L10.068011 -0.44221768L6.4949183 -2.0732277L6.5579683 -6.0666777"
       id="path3797"
       inkscape:connector-curvature="0" />
  </g>
</svg>
