<?xml version="1.0" encoding="UTF-8" standalone="no"?>
<!-- Created with Inkscape (http://www.inkscape.org/) -->

<svg
   xmlns:dc="http://purl.org/dc/elements/1.1/"
   xmlns:cc="http://creativecommons.org/ns#"
   xmlns:rdf="http://www.w3.org/1999/02/22-rdf-syntax-ns#"
   xmlns:svg="http://www.w3.org/2000/svg"
   xmlns="http://www.w3.org/2000/svg"
   xmlns:sodipodi="http://sodipodi.sourceforge.net/DTD/sodipodi-0.dtd"
   xmlns:inkscape="http://www.inkscape.org/namespaces/inkscape"
   width="744.09448819"
   height="1052.3622047"
   id="svg2"
   version="1.1"
   inkscape:version="0.48.4 r9943 custom"
   sodipodi:docname="wrist computer.svg">
  <sodipodi:namedview
     id="base"
     pagecolor="#ffffff"
     bordercolor="#666666"
     borderopacity="1.0"
     inkscape:pageopacity="0.0"
     inkscape:pageshadow="2"
     inkscape:zoom="11.2"
     inkscape:cx="15.295389"
     inkscape:cy="1042.6386"
     inkscape:document-units="px"
     inkscape:current-layer="layer1"
     showgrid="false"
     inkscape:window-width="1855"
     inkscape:window-height="1036"
     inkscape:window-x="100"
     inkscape:window-y="22"
     inkscape:window-maximized="0"
     showguides="true"
     inkscape:guide-bbox="true" />
  <defs
     id="defs4" />
  <metadata
     id="metadata7">
    <rdf:RDF>
      <cc:Work
         rdf:about="">
        <dc:format>image/svg+xml</dc:format>
        <dc:type
           rdf:resource="http://purl.org/dc/dcmitype/StillImage" />
        <dc:title />
      </cc:Work>
    </rdf:RDF>
  </metadata>
  <g
     inkscape:label="Layer 1"
     inkscape:groupmode="layer"
     id="layer1">
    <rect
       style="fill:#666666;fill-opacity:1;fill-rule:nonzero;stroke:none"
       id="rect2993"
       width="36.2075"
       height="31.635845"
       x="-19.099239"
       y="-14.065325" />
    <path
       style="fill:#00ff00;stroke:none"
       d="M-18.916375 -13.882458L-15.990516 -12.236668L-16.356248 13.547462L-12.881792 14.278932L-12.150327 15.924722L15.645329 15.376122L17.108258 16.107592L17.291124 17.570522L-19.282107 17.204792L-18.916375 -13.882458"
       id="active"
       inkscape:connector-curvature="0" />
    <path
       sodipodi:nodetypes="ccccccccccccccccccccccccc"
       inkscape:connector-curvature="0"
       id="path4008"
       d="M-10.742208 -4.3538483L-9.7077607 -5.5822483L-6.7337247 -6.4227383L-4.6290867 -5.8487083L-1.4712047 -2.3357383L-0.86532167 1.0698317L-1.1389477 4.5264617L-2.2726717 5.9906217L-4.4062187 5.9259217L-6.3458067 5.1500917L-8.0914367 3.5984217L-8.2207427 2.7579317L-4.4708717 1.9174417L-2.4666307 3.2751517L-0.00981767 3.7277217L1.6065053 3.4691117L3.0020903 2.5071617L3.2874823 -2.0263883L2.5763003 -4.7094883L-0.46238867 -6.3581383L-3.5600157 -6.4074383L-4.6166487 -5.8544683L-6.6690717 -5.0650783L-10.483596 -4.2245883L-10.742208 -4.3538983"
       style="fill:#502d16;stroke:none" />
    <path
       sodipodi:nodetypes="csccccccccccc"
       inkscape:connector-curvature="0"
       id="path4010"
       d="M-6.7333887 -6.4305883L-3.4688267 -6.6094883L-0.46238867 -6.4873883L2.6409523 -4.6771083L3.4167883 -1.9616883L2.9642173 2.4993617L-0.52704167 5.6027117L-2.2726717 5.9906217L-1.1735717 4.5036117L-0.85030667 1.0770017L-1.4321837 -2.2849483L-4.6001777 -5.8408683L-6.7333887 -6.4305883"
       style="fill:#d45500;stroke:none" />
    <path
       sodipodi:nodetypes="cccccccccc"
       inkscape:connector-curvature="0"
       id="path4012"
       d="M-3.5010777 -5.5822483L-0.46238867 -6.0348183L2.1883813 -4.2245383L2.8349113 -2.0909883L2.5116473 2.4347117L1.4125463 3.7277717L-0.39773567 5.0208317L0.05483433 3.1458917L-0.20377667 -2.3496083L-3.5010777 -5.5822483"
       style="fill:#d4aa00;stroke:none" />
    <path
       sodipodi:nodetypes="cccccccccc"
       inkscape:connector-curvature="0"
       id="path4014"
       d="M0.89532333 3.6631217L3.0171053 2.4693417L-0.48084967 5.5948617L-2.2060367 5.9940517L-4.4462647 5.8836717L-6.3871597 4.9352217L-2.3920227 3.2970317L-1.0766267 3.5444617L-1.1236967 3.9819917L0.89532133 3.6631217"
       style="opacity:0.34862384;fill:#241c1c;stroke:none" />
    <path
       sodipodi:nodetypes="cccccccc"
       inkscape:connector-curvature="0"
       id="path4016"
       d="M-6.6690717 -6.4227383L-4.4385447 -5.9055183L-1.3513667 -2.3980983L1.4610363 -2.8506683L2.5762993 -4.6124583L-0.39773567 -6.4227383L-3.4202617 -6.5520483L-6.6690717 -6.4227383"
       style="opacity:0.52752291;fill:#f4d7d7;stroke:none" />
    <path
       style="opacity:0.32568808;fill:#ffffff;stroke:none"
       d="M-5.6184617 -6.3580883L-4.3254027 -6.0509883L-1.6099787 -6.3904183L-5.5376447 -6.3742183L-5.6184617 -6.3580883"
       id="path4040"
       inkscape:connector-curvature="0" />
  </g>
</svg>
