<?xml version="1.0" encoding="UTF-8" standalone="no"?>
<!-- Created with Inkscape (http://www.inkscape.org/) -->

<svg
   xmlns:dc="http://purl.org/dc/elements/1.1/"
   xmlns:cc="http://creativecommons.org/ns#"
   xmlns:rdf="http://www.w3.org/1999/02/22-rdf-syntax-ns#"
   xmlns:svg="http://www.w3.org/2000/svg"
   xmlns="http://www.w3.org/2000/svg"
   xmlns:sodipodi="http://sodipodi.sourceforge.net/DTD/sodipodi-0.dtd"
   xmlns:inkscape="http://www.inkscape.org/namespaces/inkscape"
   width="744.09448819"
   height="1052.3622047"
   id="svg2"
   version="1.1"
   inkscape:version="0.48.4 r9943 custom"
   sodipodi:docname="lab-equipment.svg">
  <sodipodi:namedview
     id="base"
     pagecolor="#ffffff"
     bordercolor="#666666"
     borderopacity="1.0"
     inkscape:pageopacity="0.0"
     inkscape:pageshadow="2"
     inkscape:zoom="15.839192"
     inkscape:cx="20.297132"
     inkscape:cy="1041.7223"
     inkscape:document-units="px"
     inkscape:current-layer="layer1"
     showgrid="false"
     inkscape:window-width="1855"
     inkscape:window-height="1036"
     inkscape:window-x="740"
     inkscape:window-y="22"
     inkscape:window-maximized="0"
     showguides="true"
     inkscape:guide-bbox="true" />
  <defs
     id="defs4" />
  <metadata
     id="metadata7">
    <rdf:RDF>
      <cc:Work
         rdf:about="">
        <dc:format>image/svg+xml</dc:format>
        <dc:type
           rdf:resource="http://purl.org/dc/dcmitype/StillImage" />
        <dc:title />
      </cc:Work>
    </rdf:RDF>
  </metadata>
  <g
     id="layer1"
     inkscape:groupmode="layer"
     inkscape:label="Layer 1">
    <rect
       y="-15.137807"
       x="-15.881088"
       height="32.928841"
       width="37.687344"
       id="rect2993"
       style="fill:#666666;fill-opacity:1;fill-rule:nonzero;stroke:none" />
    <path
       inkscape:connector-curvature="0"
       id="path3771"
       d="M-6.6922606 -2.4896186L-6.6922606 -10.949646L0.37880721 -10.318301L0.12626907 -14.106373L2.7779195 -13.348759L2.7779195 -10.570839L10.606602 -10.44457L10.354064 -13.601297L12.753176 -13.348759L12.626907 -10.949646L18.309015 -10.697108L17.298862 -7.4141123L7.9549513 -8.0454576L8.3337585 -4.2573856L4.6719555 -4.7624618L4.4194174 -8.0454576L-4.0406102 -8.1717267L-4.1668793 -1.9845423L-6.6922606 -2.4896186"
       style="fill:#917c6f;stroke:none;stroke-width:1px;stroke-linecap:butt;stroke-linejoin:miter;stroke-opacity:1" />
    <path
       sodipodi:nodetypes="ccccccccc"
       inkscape:connector-curvature="0"
       id="path3773"
       d="M-6.6922607 -5.2675381L-5.1770318 -5.5200762L-4.1668793 -9.3081483L3.0304577 -8.9293411L4.5456865 -7.9191886L-3.7880721 -7.9191886L-4.0406102 -2.8684258L-6.5204519 -3.243093L-6.6922607 -5.2675381"
       style="opacity:0.55504587;fill:#483737;fill-opacity:1;stroke:none" />
    <path
       sodipodi:nodetypes="ccccc"
       inkscape:connector-curvature="0"
       id="path2995"
       d="M-12.753176 17.587163L8.0812204 17.713433L8.2074895 -3.373502L-13.005714 -3.8154438L-12.753176 17.587163L-12.753176 17.587163"
       style="fill:#000000;fill-opacity:1;stroke:none" />
    <path
       sodipodi:nodetypes="ccccccccc"
       inkscape:connector-curvature="0"
       id="path3775"
       d="M4.2931483 -6.5302288L7.323606 -6.909036L7.4498751 -9.4344174L17.803939 -8.803072L17.425132 -7.4141123L8.0812203 -7.9191886L8.5862967 -4.1311165L4.7982246 -4.6361928L4.2931483 -6.5302288"
       style="opacity:0.55045872;fill:#483737;fill-opacity:1;stroke:none" />
    <path
       sodipodi:nodetypes="ccccc"
       inkscape:connector-curvature="0"
       id="path3765"
       d="M7.9549513 17.713432L17.298862 17.587163L16.414979 1.1721844L8.0812204 -3.1840985L7.9549513 17.713432"
       style="fill:#1a1a1a;stroke:none;stroke-width:1px;stroke-linecap:butt;stroke-linejoin:miter;stroke-opacity:1;fill-opacity:1" />
    <path
       inkscape:connector-curvature="0"
       id="path3767"
       d="M13.005714 4.4551802L11.616754 5.4653327L12.500638 7.864445L17.551401 8.3695213L16.036172 5.8441399L18.182746 4.5814493L13.005714 4.4551802"
       style="fill:#483737;stroke:none;stroke-width:1px;stroke-linecap:butt;stroke-linejoin:miter;stroke-opacity:1" />
    <path
       inkscape:connector-curvature="0"
       id="path3769"
       d="M 14.520943,4.9602565 14.520943,7.9907141 C 21.409944,7.6336921 18.67473,11.634381 18.435284,17.460894 L 21.844549,17.587163 C 20.381025,9.3435751 23.649981,3.8537063 14.520943,4.9602565"
       style="fill:#333333;fill-opacity:1;stroke:none"
       sodipodi:nodetypes="ccccc" />
    <path
       sodipodi:nodetypes="cccc"
       inkscape:connector-curvature="0"
       id="path3777"
       d="M-10.606602 -0.21677535L4.6719555 0.16203185L5.1770318 9.0008667L-9.9752564 8.8745976"
       style="fill:#008000;stroke:#000000;stroke-width:1px;stroke-linecap:butt;stroke-linejoin:miter;stroke-opacity:1" />
    <path
       style="fill:#002b00;stroke:#000000;stroke-width:1px;stroke-linecap:butt;stroke-linejoin:miter;stroke-opacity:1"
       d="M-10.606602 -0.21677535L4.6719555 0.16203185L5.1770318 9.0008667L-9.9752564 8.8745976"
       id="path3002"
       inkscape:connector-curvature="0"
       sodipodi:nodetypes="cccc" />
    <path
       sodipodi:nodetypes="cccc"
       inkscape:connector-curvature="0"
       id="active"
       d="M-10.606602 -0.21677535L4.6719555 0.16203185L5.1770318 9.0008667L-9.9752564 8.8745976"
       style="fill:#55d400;stroke:#000000;stroke-width:1px;stroke-linecap:butt;stroke-linejoin:miter;stroke-opacity:1" />
  </g>
</svg>
