<?xml version="1.0" encoding="UTF-8" standalone="no"?>
<!-- Created with Inkscape (http://www.inkscape.org/) -->

<svg
   xmlns:dc="http://purl.org/dc/elements/1.1/"
   xmlns:cc="http://creativecommons.org/ns#"
   xmlns:rdf="http://www.w3.org/1999/02/22-rdf-syntax-ns#"
   xmlns:svg="http://www.w3.org/2000/svg"
   xmlns="http://www.w3.org/2000/svg"
   xmlns:sodipodi="http://sodipodi.sourceforge.net/DTD/sodipodi-0.dtd"
   xmlns:inkscape="http://www.inkscape.org/namespaces/inkscape"
   width="744.09448819"
   height="1052.3622047"
   id="svg2"
   version="1.1"
   inkscape:version="0.48.4 r9943 custom"
   sodipodi:docname="magboots.svg">
  <sodipodi:namedview
     id="base"
     pagecolor="#ffffff"
     bordercolor="#666666"
     borderopacity="1.0"
     inkscape:pageopacity="0.0"
     inkscape:pageshadow="2"
     inkscape:zoom="2.8"
     inkscape:cx="191.75559"
     inkscape:cy="1024.7842"
     inkscape:document-units="px"
     inkscape:current-layer="layer1"
     showgrid="false"
     inkscape:window-width="1855"
     inkscape:window-height="1036"
     inkscape:window-x="763"
     inkscape:window-y="22"
     inkscape:window-maximized="0"
     showguides="true"
     inkscape:guide-bbox="true" />
  <defs
     id="defs4" />
  <metadata
     id="metadata7">
    <rdf:RDF>
      <cc:Work
         rdf:about="">
        <dc:format>image/svg+xml</dc:format>
        <dc:type
           rdf:resource="http://purl.org/dc/dcmitype/StillImage" />
        <dc:title />
      </cc:Work>
    </rdf:RDF>
  </metadata>
  <g
     inkscape:label="Layer 1"
     inkscape:groupmode="layer"
     id="layer1">
    <rect
       style="fill:#666666;fill-opacity:1;fill-rule:nonzero;stroke:none"
       id="rect2993"
       width="37.605278"
       height="32.857136"
       x="0.16889808"
       y="0.19830558" />
    <path
       style="fill:#d40000;stroke:none"
       d="M 12.514066,7.6054117 10.234958,12.353542 C 13.611086,13.317391 13.642132,16.866512 13.273768,19.570722 12.12562,20.325287 10.921973,20.931353 9.6651808,21.469972 L 8.9054778,23.559161 5.6767418,25.078561 5.4868158,26.977821 13.843545,27.357671 18.971537,25.078561 C 17.259641,19.312074 18.550137,12.902708 20.301017,8.1751817 17.559965,8.6185566 15.148802,8.2253395 12.514066,7.6054117"
       id="path2985"
       inkscape:connector-curvature="0"
       sodipodi:nodetypes="ccccccccccc" />
    <path
       style="fill:#d40000;stroke:none"
       d="M 21.820422,8.5550317 24.669305,6.8457017 27.708115,6.4658517 29.22752,7.0356317 29.987222,10.074442 27.89804,13.872952 27.89804,17.481532 29.037595,20.330422 29.987222,21.280052 30.936852,22.419601 31.126777,22.989381 31.126777,23.939011 33.785736,26.977821 30.367074,27.927441 27.328264,27.357671 23.909603,26.028191 20.870793,25.078561 20.870793,23.939011 21.250644,22.229681 22.200272,19.760642 22.580123,17.481532 22.959974,14.822582 22.010347,13.493102 21.44057,12.353542 21.250644,10.644212 21.820422,8.5550317"
       id="path2987"
       inkscape:connector-curvature="0" />
    <path
       style="opacity:0.7;fill:#000000;stroke:none"
       d="M 6.0565938,26.977821 8.3357018,27.010947 8.3357018,25.458411 C 9.918408,24.855575 10.717536,23.686839 11.754363,22.419601 15.710415,20.824578 16.197927,18.538587 17.072281,14.822582 15.532211,12.546243 13.275681,12.884919 10.771601,12.194136 14.141517,14.568363 14.353514,16.391282 13.463693,19.950572 L 10.234958,21.849832 C 9.5255039,24.071971 7.8400337,24.471728 5.8666678,25.458411 L 6.0565938,26.977821"
       id="path2989"
       inkscape:connector-curvature="0"
       sodipodi:nodetypes="cccccccccc" />
    <path
       style="opacity:0.7;fill:#cccccc;stroke:none"
       d="M 24.289454,7.2255517 C 26.757453,9.0502564 27.808274,9.4734898 27.328264,12.353542 L 26.985201,13.205858 25.875647,14.792584 C 25.929293,17.005423 27.555175,19.718664 28.087966,21.849832 L 29.797297,24.318861 29.797297,27.167751 30.334985,27.643862 33.123345,26.78946 30.970507,24.950206 29.958267,22.35595 C 27.513173,20.110948 26.954754,16.436429 27.51819,14.062882 L 29.356921,10.074442 28.911847,7.4154817 27.581325,6.781008 24.289454,7.2255517"
       id="path2991"
       inkscape:connector-curvature="0"
       sodipodi:nodetypes="cccccccccccccccc" />
    <path
       style="fill:#00ff00;stroke:none"
       d="M 15.782965,14.804863 14.793726,16.198521 14.057973,14.55598"
       id="active"
       inkscape:connector-curvature="0"
       sodipodi:nodetypes="ccc" />
  </g>
</svg>
