<?xml version="1.0" encoding="UTF-8" standalone="no"?>
<!-- Created with Inkscape (http://www.inkscape.org/) -->

<svg
   xmlns:dc="http://purl.org/dc/elements/1.1/"
   xmlns:cc="http://creativecommons.org/ns#"
   xmlns:rdf="http://www.w3.org/1999/02/22-rdf-syntax-ns#"
   xmlns:svg="http://www.w3.org/2000/svg"
   xmlns="http://www.w3.org/2000/svg"
   xmlns:sodipodi="http://sodipodi.sourceforge.net/DTD/sodipodi-0.dtd"
   xmlns:inkscape="http://www.inkscape.org/namespaces/inkscape"
   width="744.09448819"
   height="1052.3622047"
   id="svg2"
   version="1.1"
   inkscape:version="0.48.4 r9943 custom"
   sodipodi:docname="plasma-gun.svg">
  <sodipodi:namedview
     id="base"
     pagecolor="#ffffff"
     bordercolor="#666666"
     borderopacity="1.0"
     inkscape:pageopacity="0.0"
     inkscape:pageshadow="2"
     inkscape:zoom="45.254834"
     inkscape:cx="-6.0195534"
     inkscape:cy="1051.2257"
     inkscape:document-units="px"
     inkscape:current-layer="layer1"
     showgrid="false"
     inkscape:window-width="1860"
     inkscape:window-height="1036"
     inkscape:window-x="60"
     inkscape:window-y="22"
     inkscape:window-maximized="0" />
  <defs
     id="defs4" />
  <metadata
     id="metadata7">
    <rdf:RDF>
      <cc:Work
         rdf:about="">
        <dc:format>image/svg+xml</dc:format>
        <dc:type
           rdf:resource="http://purl.org/dc/dcmitype/StillImage" />
        <dc:title />
      </cc:Work>
    </rdf:RDF>
  </metadata>
  <g
     id="layer1"
     inkscape:groupmode="layer"
     inkscape:label="Layer 1">
    <rect
       y="-16.085627"
       x="-16.826397"
       height="31.635839"
       width="36.207493"
       id="rect2993"
       style="fill:#666666;fill-opacity:1;fill-rule:nonzero;stroke:none" />
    <path
       style="fill:#008066;stroke:none"
       d="M -13.582384,0.43591189 -13.711689,1.9875819 -10.859798,3.6873765 -10.862466,1.8599131 -13.582384,0.43591189"
       id="path3904"
       inkscape:connector-curvature="0"
       sodipodi:nodetypes="ccccc" />
    <path
       style="fill:#005544;stroke:none"
       d="M -10.86696,1.8582719 -10.870238,3.6851247 8.0116982,-1.2450681 7.8680671,-3.5836266 -10.86696,1.8582719"
       id="path3906"
       inkscape:connector-curvature="0"
       sodipodi:nodetypes="ccccc" />
    <path
       style="fill:#002b22;stroke:none"
       d="M10.597815 -4.7363281L7.8823922 -3.7018781L7.9470422 -1.5036781L10.727118 -3.1200081L10.597815 -4.7363281"
       id="path3908"
       inkscape:connector-curvature="0"
       sodipodi:nodetypes="ccccc" />
    <path
       style="fill:#00d4aa;stroke:none"
       d="M 4.7467252,-0.56620811 C 8.3399149,-0.9273351 11.020332,0.69771334 14.089075,1.9229219 L 16.636492,-0.25311813 C 13.049529,-0.97200601 9.4557331,-2.085451 6.6539862,-3.6048981 L 0.12459319,-1.3687156"
       id="path3910"
       inkscape:connector-curvature="0"
       sodipodi:nodetypes="ccccc" />
    <path
       style="fill:#008066;stroke:none"
       d="M 0.20043965,-1.3676469 0.16553034,0.79872461 4.5485652,1.3025019 C 8.144224,0.67393341 10.946483,2.8285769 14.089075,4.3474119 L 14.079675,1.9221692 C 10.964387,0.41935286 8.2641798,-0.73789298 4.8760402,-0.56618811"
       id="path3912"
       inkscape:connector-curvature="0"
       sodipodi:nodetypes="cccccc" />
    <path
       style="fill:#005544;stroke:none"
       d="M14.085129 1.9315764L16.642866 -0.24294811L16.772171 2.0845619L14.056748 4.3474119"
       id="path3914"
       inkscape:connector-curvature="0"
       sodipodi:nodetypes="cccc" />
    <path
       style="fill:#00d4aa;stroke:none"
       d="M -13.71169,0.37125189 -10.862465,1.8599132 7.9947542,-3.6428281 10.597815,-4.7363281 C 8.2487584,-4.6173612 5.8997018,-4.6440966 3.5506452,-4.9949381 L -13.71169,0.37125189"
       id="path3916"
       inkscape:connector-curvature="0"
       sodipodi:nodetypes="cccccc" />
    <path
       sodipodi:nodetypes="cccc"
       inkscape:connector-curvature="0"
       id="active"
       d="m -0.10721935,-3.8789881 2.03834005,-0.6869675 2.9256015,0.808907 -1.9456868,0.6375292"
       style="fill:#00ff00;stroke:none" />
    <path
       style="opacity:0.3669725;fill:#000000;fill-opacity:1;stroke:none"
       d="M -13.258252,1.0459286 -13.384521,1.9298121 -10.85914,3.5081754 0.1767767,0.41458327 0.19752539,-0.93010298 -10.854405,2.2289119 -13.258252,1.0459286"
       id="path3115"
       inkscape:connector-curvature="0"
       sodipodi:nodetypes="ccccccc" />
    <path
       style="opacity:0.66055047;fill:#000000;fill-opacity:1;stroke:none"
       d="M -0.12626907,-3.878565 2.9041885,-3.1209506 4.8340153,-3.7522959 1.9298267,-4.5730449 -0.12626907,-3.878565"
       id="path3885"
       inkscape:connector-curvature="0"
       sodipodi:nodetypes="ccccc" />
    <path
       style="opacity:0.39449541;fill:#000000;fill-opacity:1;stroke:none"
       d="M 7.3551732,-3.2630033 4.1668792,-2.2370671 5.9346462,-1.8582599 3.5355339,-0.8481074 3.6321509,1.1941906 4.5931738,1.3057977 C 7.5653862,0.73557016 9.5809486,2.1721435 12.184966,3.4450405 L 12.184966,1.1090627 15.224187,-0.55658649 C 12.578933,-1.1450145 9.9964418,-1.9667237 7.3551732,-3.2630033"
       id="path3887"
       inkscape:connector-curvature="0"
       sodipodi:nodetypes="cccccccccc" />
  </g>
</svg>
