<?xml version="1.0" encoding="UTF-8" standalone="no"?>
<!-- Created with Inkscape (http://www.inkscape.org/) -->

<svg
   xmlns:dc="http://purl.org/dc/elements/1.1/"
   xmlns:cc="http://creativecommons.org/ns#"
   xmlns:rdf="http://www.w3.org/1999/02/22-rdf-syntax-ns#"
   xmlns:svg="http://www.w3.org/2000/svg"
   xmlns="http://www.w3.org/2000/svg"
   xmlns:sodipodi="http://sodipodi.sourceforge.net/DTD/sodipodi-0.dtd"
   xmlns:inkscape="http://www.inkscape.org/namespaces/inkscape"
   width="744.09448819"
   height="1052.3622047"
   id="svg2"
   version="1.1"
   inkscape:version="0.48.4 r9943 custom"
   sodipodi:docname="plasma-gun.svg">
  <sodipodi:namedview
     id="base"
     pagecolor="#ffffff"
     bordercolor="#666666"
     borderopacity="1.0"
     inkscape:pageopacity="0.0"
     inkscape:pageshadow="2"
     inkscape:zoom="2.8284271"
     inkscape:cx="88.242017"
     inkscape:cy="1010.1783"
     inkscape:document-units="px"
     inkscape:current-layer="layer1"
     showgrid="false"
     inkscape:window-width="1860"
     inkscape:window-height="1036"
     inkscape:window-x="60"
     inkscape:window-y="22"
     inkscape:window-maximized="0" />
  <defs
     id="defs4" />
  <metadata
     id="metadata7">
    <rdf:RDF>
      <cc:Work
         rdf:about="">
        <dc:format>image/svg+xml</dc:format>
        <dc:type
           rdf:resource="http://purl.org/dc/dcmitype/StillImage" />
        <dc:title />
      </cc:Work>
    </rdf:RDF>
  </metadata>
  <g
     id="layer1"
     inkscape:groupmode="layer"
     inkscape:label="Layer 1">
    <rect
       style="opacity:0.71100913;fill:#ff0000;fill-opacity:1;fill-rule:nonzero;stroke:none"
       id="rect3120"
       width="128"
       height="128"
       x="0.0062558651"
       y="0.0075223446" />
    <rect
       y="0.039373383"
       x="0.048603043"
       height="127.80236"
       width="127.77782"
       id="rect2993"
       style="fill:#666666;fill-opacity:1;fill-rule:nonzero;stroke:none" />
    <path
       style="fill:#008066;stroke:none"
       d="M 11.496866,66.783031 11.040543,73.051463 21.104991,79.918285 21.095575,72.535706 11.496866,66.783031"
       id="path3904"
       inkscape:connector-curvature="0"
       sodipodi:nodetypes="ccccc" />
    <path
       style="fill:#005544;stroke:none"
       d="M 21.079716,72.529077 21.068148,79.909192 87.703323,59.992214 87.196443,50.544911 21.079716,72.529077"
       id="path3906"
       inkscape:connector-curvature="0"
       sodipodi:nodetypes="ccccc" />
    <path
       style="fill:#002b22;stroke:none"
       d="M 96.829843,45.888233 87.246997,50.067201 87.475149,58.947482 97.286159,52.417837 96.829843,45.888233"
       id="path3908"
       inkscape:connector-curvature="0"
       sodipodi:nodetypes="ccccc" />
    <path
       style="fill:#00d4aa;stroke:none"
       d="M 76.181091,62.73467 C 88.861615,61.275791 98.320924,67.840654 109.15065,72.79025 L 118.1406,63.99949 C 105.48205,61.095329 92.799386,56.597237 82.911898,50.45898 L 59.869386,59.492701"
       id="path3910"
       inkscape:connector-curvature="0"
       sodipodi:nodetypes="ccccc" />
    <path
       style="fill:#008066;stroke:none"
       d="M 60.137053,59.49702 60.013854,68.248722 75.481776,70.283879 C 88.171013,67.744588 98.060307,76.448912 109.15065,82.584696 L 109.11748,72.787208 C 98.123491,66.716136 88.594343,62.041098 76.637449,62.734751"
       id="path3912"
       inkscape:connector-curvature="0"
       sodipodi:nodetypes="cccccc" />
    <path
       style="fill:#005544;stroke:none"
       d="M 109.13673,72.82521 118.16309,64.040575 118.61941,73.443242 109.03657,82.584696"
       id="path3914"
       inkscape:connector-curvature="0"
       sodipodi:nodetypes="cccc" />
    <path
       style="fill:#00d4aa;stroke:none"
       d="M 11.04054,66.521818 21.095579,72.535706 87.643527,50.305751 96.829843,45.888233 C 88.539918,46.368836 80.249997,46.260828 71.960073,44.843501 L 11.04054,66.521818"
       id="path3916"
       inkscape:connector-curvature="0"
       sodipodi:nodetypes="cccccc" />
    <path
       sodipodi:nodetypes="cccc"
       inkscape:connector-curvature="0"
       id="active"
       d="M 59.051311,49.351712 66.244702,46.576501 76.569275,49.844321 69.702861,52.419813"
       style="fill:#00ff00;stroke:none" />
    <path
       style="opacity:0.3669725;fill:#000000;fill-opacity:1;stroke:none"
       d="M 12.640742,69.247376 12.195133,72.818084 21.107313,79.19435 60.053545,66.696867 60.126766,61.264608 21.124023,74.026387 12.640742,69.247376"
       id="path3115"
       inkscape:connector-curvature="0"
       sodipodi:nodetypes="ccccccc" />
    <path
       style="opacity:0.66055047;fill:#000000;fill-opacity:1;stroke:none"
       d="M 58.984083,49.353421 69.678698,52.414028 76.489141,49.863522 66.240135,46.547863 58.984083,49.353421"
       id="path3885"
       inkscape:connector-curvature="0"
       sodipodi:nodetypes="ccccc" />
    <path
       style="opacity:0.39449541;fill:#000000;fill-opacity:1;stroke:none"
       d="M 85.386418,51.840167 74.134789,55.98474 80.373316,57.515043 71.906745,61.595856 72.247711,69.846325 75.639203,70.297194 C 86.128269,67.993589 93.241278,73.797052 102.43097,78.939297 L 102.43097,69.502425 113.15651,62.773537 C 103.82129,60.396408 94.707571,57.07687 85.386418,51.840167"
       id="path3887"
       inkscape:connector-curvature="0"
       sodipodi:nodetypes="cccccccccc" />
  </g>
</svg>
