<?xml version="1.0" encoding="UTF-8" standalone="no"?>
<!-- Created with Inkscape (http://www.inkscape.org/) -->

<svg
   xmlns:dc="http://purl.org/dc/elements/1.1/"
   xmlns:cc="http://creativecommons.org/ns#"
   xmlns:rdf="http://www.w3.org/1999/02/22-rdf-syntax-ns#"
   xmlns:svg="http://www.w3.org/2000/svg"
   xmlns="http://www.w3.org/2000/svg"
   xmlns:sodipodi="http://sodipodi.sourceforge.net/DTD/sodipodi-0.dtd"
   xmlns:inkscape="http://www.inkscape.org/namespaces/inkscape"
   width="37.687344"
   height="32.928841"
   id="svg2"
   version="1.1"
   inkscape:version="0.48.4 r9943 custom"
   sodipodi:docname="time-bomb.svg">
  <sodipodi:namedview
     id="base"
     pagecolor="#ffffff"
     bordercolor="#666666"
     borderopacity="1.0"
     inkscape:pageopacity="0.0"
     inkscape:pageshadow="2"
     inkscape:zoom="11.313709"
     inkscape:cx="14.653892"
     inkscape:cy="22.198635"
     inkscape:document-units="px"
     inkscape:current-layer="layer1"
     showgrid="false"
     inkscape:window-width="1855"
     inkscape:window-height="1036"
     inkscape:window-x="107"
     inkscape:window-y="22"
     inkscape:window-maximized="0"
     showguides="true"
     inkscape:guide-bbox="true"
     fit-margin-top="0"
     fit-margin-left="0"
     fit-margin-right="0"
     fit-margin-bottom="0" />
  <defs
     id="defs4" />
  <metadata
     id="metadata7">
    <rdf:RDF>
      <cc:Work
         rdf:about="">
        <dc:format>image/svg+xml</dc:format>
        <dc:type
           rdf:resource="http://purl.org/dc/dcmitype/StillImage" />
        <dc:title />
      </cc:Work>
    </rdf:RDF>
  </metadata>
  <g
     inkscape:label="Layer 1"
     inkscape:groupmode="layer"
     id="layer1"
     transform="translate(-0.11720195,-0.15337656)">
    <rect
       style="fill:#666666;fill-opacity:1;fill-rule:nonzero;stroke:none"
       id="rect2993"
       width="37.687344"
       height="32.928841"
       x="0.11720195"
       y="0.15337656" />
    <path
       style="fill:#aa8800;fill-opacity:1;stroke:none"
       d="M 33.044614,11.665143 33.423421,23.534436 25.594739,28.080122 13.599178,27.701315 3.7501902,23.660705 4.3815362,12.296489 11.452604,10.276183 25.405336,9.3923 33.044614,11.665143"
       id="path2997"
       inkscape:connector-curvature="0"
       sodipodi:nodetypes="ccccccccc" />
    <path
       style="fill:#2b2200;fill-opacity:1;stroke:none"
       d="M 25.215932,27.953853 33.297153,23.660705 33.133002,12.92152 24.994961,9.1018811 35.443727,11.665143 35.822534,23.534436 27.362506,27.575046"
       id="path2999"
       inkscape:connector-curvature="0"
       sodipodi:nodetypes="ccccccc" />
    <path
       sodipodi:nodetypes="ccccc"
       inkscape:connector-curvature="0"
       id="path3793"
       d="M 4.2552672,12.296489 C 14.62375,17.978379 23.254587,17.242565 33.196137,12.861543 L 26.099816,9.6448382 14.7356,9.266031 4.2552672,12.296489"
       style="fill:#806600;fill-opacity:1;stroke:none" />
    <path
       style="fill:#a05a2c;fill-opacity:1;stroke:none"
       d="M 12.715294,20.503978 23.246135,20.346142 23.574434,12.549027 26.352354,9.7711073 28.12012,9.3923 27.109968,6.4881115 12.967833,7.3088604 C 11.115904,11.465766 12.382612,16.101376 12.715294,20.503978 L 12.715294,20.503978"
       id="path2995"
       inkscape:connector-curvature="0"
       sodipodi:nodetypes="ccccccccc" />
    <path
       sodipodi:nodetypes="cccccccc"
       style="fill:#000000;fill-opacity:1;stroke:none"
       d="M 23.069358,20.377709 C 22.174123,15.748852 21.397235,11.374443 22.059206,6.7406496 L 27.236237,6.4881115 28.751466,10.149914 26.226085,9.6448382 23.700703,12.549027 24.20578,20.125171 23.069358,20.377709"
       id="path3001"
       inkscape:connector-curvature="0" />
    <path
       inkscape:connector-curvature="0"
       id="path3791"
       d="M 13.599178,11.538874 19.912631,11.538874 20.291439,14.569332 13.977985,14.443063 13.599178,11.538874"
       style="fill:#445500;stroke:none" />
    <path
       sodipodi:nodetypes="ccccc"
       inkscape:connector-curvature="0"
       id="path3789"
       d="M 3.6239212,23.408167 C 14.75793,27.392711 22.943739,27.245111 33.423422,23.408167 L 25.089663,28.458929 13.34664,27.827584 3.6239212,23.408167"
       style="fill:#806600;fill-opacity:1;stroke:none" />
    <path
       sodipodi:nodetypes="cccc"
       inkscape:connector-curvature="0"
       id="active"
       d="M 19.910583,11.539518 20.288544,14.562332 13.98355,14.437861 13.606146,11.548938"
       style="fill:#00ff00;stroke:none" />
  </g>
</svg>
