<?xml version="1.0" encoding="UTF-8" standalone="no"?>
<!-- Created with Inkscape (http://www.inkscape.org/) -->

<svg
   xmlns:dc="http://purl.org/dc/elements/1.1/"
   xmlns:cc="http://creativecommons.org/ns#"
   xmlns:rdf="http://www.w3.org/1999/02/22-rdf-syntax-ns#"
   xmlns:svg="http://www.w3.org/2000/svg"
   xmlns="http://www.w3.org/2000/svg"
   xmlns:sodipodi="http://sodipodi.sourceforge.net/DTD/sodipodi-0.dtd"
   xmlns:inkscape="http://www.inkscape.org/namespaces/inkscape"
   width="744.09448819"
   height="1052.3622047"
   id="svg2"
   version="1.1"
   inkscape:version="0.48.4 r9943 custom"
   sodipodi:docname="toggle.svg">
  <defs
     id="defs4">
    <linearGradient
       id="linearGradient3817">
      <stop
         style="stop-color:#000000;stop-opacity:1;"
         offset="0"
         id="stop3819" />
      <stop
         style="stop-color:#000000;stop-opacity:0;"
         offset="1"
         id="stop3821" />
    </linearGradient>
    <linearGradient
       id="linearGradient3780">
      <stop
         style="stop-color:#ff0000;stop-opacity:1;"
         offset="0"
         id="stop3782" />
      <stop
         style="stop-color:#580000;stop-opacity:1;"
         offset="1"
         id="stop3784" />
    </linearGradient>
  </defs>
  <sodipodi:namedview
     id="base"
     pagecolor="#ffffff"
     bordercolor="#666666"
     borderopacity="1.0"
     inkscape:pageopacity="0.0"
     inkscape:pageshadow="2"
     inkscape:zoom="2.8284271"
     inkscape:cx="166.53762"
     inkscape:cy="944.33208"
     inkscape:document-units="px"
     inkscape:current-layer="layer1"
     showgrid="false"
     inkscape:window-width="1860"
     inkscape:window-height="1035"
     inkscape:window-x="60"
     inkscape:window-y="23"
     inkscape:window-maximized="0" />
  <metadata
     id="metadata7">
    <rdf:RDF>
      <cc:Work
         rdf:about="">
        <dc:format>image/svg+xml</dc:format>
        <dc:type
           rdf:resource="http://purl.org/dc/dcmitype/StillImage" />
        <dc:title />
      </cc:Work>
    </rdf:RDF>
  </metadata>
  <g
     inkscape:label="Layer 1"
     inkscape:groupmode="layer"
     id="layer1">
    <path
       style="opacity:0.71100913;fill:#ff0000;fill-opacity:1;fill-rule:nonzero;stroke:none"
       d="M -0.35355297,-0.16626394 127.64645,-0.16626394 127.64645,127.83374 -0.35355297,127.83374 z"
       id="rect3126" />
    <path
       style="fill:#800080;fill-opacity:1;fill-rule:nonzero;stroke:none"
       d="M -0.18489058,0.22046527 127.4034,0.22046527 127.4034,127.81766 -0.18489058,127.81766 z"
       id="rect3792" />
    <path
       style="fill:#aa8800;stroke:none"
       d="M 127.34482,127.92049 -0.35355339,128.17362 -0.35355339,-0.16625643 C 17.331175,84.376189 101.36059,36.691946 127.34482,127.92049 z"
       id="path3994"
       inkscape:connector-curvature="0"
       sodipodi:nodetypes="cccc" />
    <path
       inkscape:connector-curvature="0"
       id="path3017"
       style="font-size:40px;font-style:normal;font-weight:normal;line-height:125%;letter-spacing:0px;word-spacing:0px;fill:#ffffff;fill-opacity:1;stroke:none;font-family:Sans"
       d="M 86.397121,14.396629 C 87.58199,15.698737 88.486938,17.293788 89.111965,19.181786 89.749957,21.069825 90.068967,23.21175 90.068996,25.607567 90.068967,28.003412 89.743447,30.151848 89.092434,32.052879 88.454385,33.940906 87.555949,35.516426 86.397121,36.779442 85.19918,38.094548 83.779911,39.08413 82.139309,39.748192 80.511685,40.412254 78.649708,40.744285 76.553371,40.744286 74.509087,40.744285 72.64711,40.405744 70.967434,39.728661 69.300759,39.051578 67.881489,38.068506 66.709621,36.779442 65.537742,35.490384 64.632795,33.908354 63.994778,32.033348 63.369775,30.158358 63.057275,28.016433 63.057278,25.607567 63.057275,23.237792 63.369775,21.115398 63.994778,19.240379 64.619774,17.352381 65.531231,15.7378 66.729153,14.396629 67.874979,13.120615 69.294248,12.144053 70.986965,11.466942 72.692682,10.789888 74.548149,10.451347 76.553371,10.451317 78.636687,10.451347 80.505175,10.796398 82.15884,11.486473 83.825484,12.163584 85.238243,13.133636 86.397121,14.396629 M 86.045559,25.607567 C 86.045534,21.831543 85.19918,18.92139 83.506496,16.877098 81.813767,14.819832 79.502571,13.791187 76.572903,13.791161 73.617161,13.791187 71.292944,14.819832 69.600246,16.877098 67.920552,18.92139 67.080709,21.831543 67.080715,25.607567 67.080709,29.422682 67.940083,32.345856 69.65884,34.377098 71.37758,36.395331 73.682265,37.404445 76.572903,37.404442 79.463509,37.404445 81.761684,36.395331 83.467434,34.377098 85.18616,32.345856 86.045534,29.422682 86.045559,25.607567" />
    <path
       inkscape:connector-curvature="0"
       id="path3019"
       style="font-size:40px;font-style:normal;font-weight:normal;line-height:125%;letter-spacing:0px;word-spacing:0px;fill:#ffffff;fill-opacity:1;stroke:none;font-family:Sans"
       d="M 118.38931,40.138817 113.60415,40.138817 99.81509,14.123192 99.81509,40.138817 96.201809,40.138817 96.201809,11.056786 102.1979,11.056786 114.77603,34.806786 114.77603,11.056786 118.38931,11.056786 118.38931,40.138817" />
    <path
       inkscape:connector-curvature="0"
       id="path3022"
       style="font-size:40px;font-style:normal;font-weight:normal;line-height:125%;letter-spacing:0px;word-spacing:0px;fill:#ffffff;fill-opacity:1;stroke:none;font-family:Sans"
       d="M 29.475024,96.067459 C 30.659893,97.369567 31.56484,98.964617 32.189868,100.85262 32.82786,102.74066 33.14687,104.88258 33.146899,107.2784 33.14687,109.67424 32.821349,111.82268 32.170337,113.72371 31.532288,115.61174 30.633852,117.18726 29.475024,118.45027 28.277083,119.76538 26.857814,120.75496 25.217212,121.41902 23.589588,122.08308 21.727611,122.41511 19.631274,122.41512 17.58699,122.41511 15.725012,122.07657 14.045337,121.39949 12.378662,120.72241 10.959392,119.73934 9.7875242,118.45027 8.6156445,117.16121 7.7106975,115.57918 7.0726805,113.70418 6.4476779,111.82919 6.1351782,109.68726 6.1351805,107.2784 6.1351782,104.90862 6.4476779,102.78623 7.0726805,100.91121 7.6976767,99.023211 8.6091341,97.408629 9.8070555,96.067459 10.952882,94.791444 12.372151,93.814883 14.064868,93.137772 15.770585,92.460718 17.626052,92.122176 19.631274,92.122147 21.71459,92.122176 23.583077,92.467228 25.236743,93.157303 26.903387,93.834414 28.316146,94.804465 29.475024,96.067459 M 29.123462,107.2784 C 29.123436,103.50237 28.277083,100.59222 26.584399,98.547928 24.89167,96.490662 22.580474,95.462017 19.650805,95.46199 16.695064,95.462017 14.370847,96.490662 12.678149,98.547928 10.998455,100.59222 10.158612,103.50237 10.158618,107.2784 10.158612,111.09351 11.017986,114.01669 12.736743,116.04793 14.455482,118.06616 16.760168,119.07527 19.650805,119.07527 22.541412,119.07527 24.839587,118.06616 26.545337,116.04793 28.264062,114.01669 29.123436,111.09351 29.123462,107.2784" />
    <path
       inkscape:connector-curvature="0"
       id="path3024"
       style="font-size:40px;font-style:normal;font-weight:normal;line-height:125%;letter-spacing:0px;word-spacing:0px;fill:#ffffff;fill-opacity:1;stroke:none;font-family:Sans"
       d="M 57.85393,96.165115 43.146899,96.165115 43.146899,104.36824 55.783618,104.36824 55.783618,107.80574 43.146899,107.80574 43.146899,121.80965 39.279712,121.80965 39.279712,92.727615 57.85393,92.727615 57.85393,96.165115" />
    <path
       inkscape:connector-curvature="0"
       id="path3026"
       style="font-size:40px;font-style:normal;font-weight:normal;line-height:125%;letter-spacing:0px;word-spacing:0px;fill:#ffffff;fill-opacity:1;stroke:none;font-family:Sans"
       d="M 80.82268,96.165115 66.115649,96.165115 66.115649,104.36824 78.752368,104.36824 78.752368,107.80574 66.115649,107.80574 66.115649,121.80965 62.248462,121.80965 62.248462,92.727615 80.82268,92.727615 80.82268,96.165115" />
  </g>
</svg>
