<?xml version="1.0" encoding="UTF-8" standalone="no"?>
<!-- Created with Inkscape (http://www.inkscape.org/) -->

<svg
   xmlns:dc="http://purl.org/dc/elements/1.1/"
   xmlns:cc="http://creativecommons.org/ns#"
   xmlns:rdf="http://www.w3.org/1999/02/22-rdf-syntax-ns#"
   xmlns:svg="http://www.w3.org/2000/svg"
   xmlns="http://www.w3.org/2000/svg"
   xmlns:xlink="http://www.w3.org/1999/xlink"
   xmlns:sodipodi="http://sodipodi.sourceforge.net/DTD/sodipodi-0.dtd"
   xmlns:inkscape="http://www.inkscape.org/namespaces/inkscape"
   width="800"
   height="480"
   id="svg2"
   sodipodi:version="0.32"
   inkscape:version="0.48.2 r9819"
   sodipodi:docname="chapter0b.svg"
   inkscape:output_extension="org.inkscape.output.svg.inkscape"
   version="1.0">
  <sodipodi:namedview
     id="base"
     pagecolor="#ffffff"
     bordercolor="#666666"
     borderopacity="1.0"
     gridtolerance="10000"
     guidetolerance="10"
     objecttolerance="10"
     inkscape:pageopacity="0.0"
     inkscape:pageshadow="2"
     inkscape:zoom="1.2993087"
     inkscape:cx="431.56093"
     inkscape:cy="248.3605"
     inkscape:document-units="px"
     inkscape:current-layer="layer1"
     showgrid="false"
     inkscape:window-width="1278"
     inkscape:window-height="688"
     inkscape:window-x="277"
     inkscape:window-y="170"
     inkscape:window-maximized="0" />
  <defs
     id="defs4">
    <linearGradient
       id="linearGradient3822">
      <stop
         id="stop3824"
         offset="0"
         style="stop-color:#ff00ff;stop-opacity:1;" />
      <stop
         id="stop3827"
         offset="1"
         style="stop-color:#78ffff;stop-opacity:1;" />
    </linearGradient>
    <linearGradient
       id="linearGradient3824">
      <stop
         id="stop3826"
         offset="0"
         style="stop-color:#00ff00;stop-opacity:1;" />
      <stop
         id="stop3828"
         offset="1"
         style="stop-color:#45455e;stop-opacity:1;" />
    </linearGradient>
    <linearGradient
       id="linearGradient3858">
      <stop
         id="stop3860"
         offset="0"
         style="stop-color:#aa4400;stop-opacity:1;" />
      <stop
         id="stop3862"
         offset="1"
         style="stop-color:#ffcede;stop-opacity:0;" />
    </linearGradient>
    <linearGradient
       id="linearGradient3850"
       inkscape:collect="always">
      <stop
         id="stop3852"
         offset="0"
         style="stop-color:#666666;stop-opacity:1;" />
      <stop
         id="stop3854"
         offset="1"
         style="stop-color:#666666;stop-opacity:0;" />
    </linearGradient>
    <linearGradient
       id="linearGradient3842"
       inkscape:collect="always">
      <stop
         id="stop3844"
         offset="0"
         style="stop-color:#00ffff;stop-opacity:1;" />
      <stop
         id="stop3846"
         offset="1"
         style="stop-color:#00ffff;stop-opacity:0;" />
    </linearGradient>
    <linearGradient
       id="linearGradient3800">
      <stop
         id="stop3802"
         offset="0"
         style="stop-color:#00ff00;stop-opacity:1;" />
      <stop
         id="stop3804"
         offset="1"
         style="stop-color:#ff0000;stop-opacity:1;" />
    </linearGradient>
    <inkscape:perspective
       id="perspective10"
       inkscape:persp3d-origin="372.04724 : 350.78739 : 1"
       inkscape:vp_z="744.09448 : 526.18109 : 1"
       inkscape:vp_y="0 : 1000 : 0"
       inkscape:vp_x="0 : 526.18109 : 1"
       sodipodi:type="inkscape:persp3d" />
    <inkscape:perspective
       sodipodi:type="inkscape:persp3d"
       inkscape:vp_x="0 : 526.18109 : 1"
       inkscape:vp_y="0 : 1000 : 0"
       inkscape:vp_z="744.09448 : 526.18109 : 1"
       inkscape:persp3d-origin="372.04724 : 350.78739 : 1"
       id="perspective2390" />
    <inkscape:perspective
       sodipodi:type="inkscape:persp3d"
       inkscape:vp_x="0 : 526.18109 : 1"
       inkscape:vp_y="0 : 1000 : 0"
       inkscape:vp_z="744.09448 : 526.18109 : 1"
       inkscape:persp3d-origin="372.04724 : 350.78739 : 1"
       id="perspective2420" />
    <linearGradient
       gradientUnits="userSpaceOnUse"
       y2="195.99675"
       x2="534.375"
       y1="195.99675"
       x1="311.53317"
       id="linearGradient3806"
       xlink:href="#linearGradient3800"
       inkscape:collect="always" />
    <linearGradient
       gradientUnits="userSpaceOnUse"
       y2="285.93362"
       x2="341.436"
       y1="285.93362"
       x1="194.28571"
       id="linearGradient3848"
       xlink:href="#linearGradient3842"
       inkscape:collect="always" />
    <linearGradient
       gradientUnits="userSpaceOnUse"
       y2="121.64498"
       x2="460.33486"
       y1="121.64498"
       x1="429.79176"
       id="linearGradient3856"
       xlink:href="#linearGradient3850"
       inkscape:collect="always" />
    <linearGradient
       gradientUnits="userSpaceOnUse"
       y2="81.676914"
       x2="463.99202"
       y1="81.676914"
       x1="435.11781"
       id="linearGradient3864"
       xlink:href="#linearGradient3858"
       inkscape:collect="always" />
    <linearGradient
       gradientTransform="translate(35.918367,-2.8571429)"
       gradientUnits="userSpaceOnUse"
       y2="88.041649"
       x2="427.77609"
       y1="88.041649"
       x1="396.33997"
       id="linearGradient3872"
       xlink:href="#linearGradient3800"
       inkscape:collect="always" />
    <linearGradient
       gradientUnits="userSpaceOnUse"
       y2="162.17687"
       x2="497.27891"
       y1="162.17687"
       x1="-68.435376"
       id="linearGradient3829"
       xlink:href="#linearGradient3822"
       inkscape:collect="always" />
    <linearGradient
       y2="195.99675"
       x2="534.375"
       y1="195.99675"
       x1="311.53317"
       gradientUnits="userSpaceOnUse"
       id="linearGradient3881"
       xlink:href="#linearGradient3800"
       inkscape:collect="always" />
    <linearGradient
       y2="285.93362"
       x2="341.436"
       y1="285.93362"
       x1="194.28571"
       gradientUnits="userSpaceOnUse"
       id="linearGradient3883"
       xlink:href="#linearGradient3842"
       inkscape:collect="always" />
    <linearGradient
       y2="121.64498"
       x2="460.33486"
       y1="121.64498"
       x1="429.79176"
       gradientUnits="userSpaceOnUse"
       id="linearGradient3885"
       xlink:href="#linearGradient3850"
       inkscape:collect="always" />
    <linearGradient
       y2="88.041649"
       x2="427.77609"
       y1="88.041649"
       x1="396.33997"
       gradientTransform="translate(35.918367,-2.8571429)"
       gradientUnits="userSpaceOnUse"
       id="linearGradient3887"
       xlink:href="#linearGradient3800"
       inkscape:collect="always" />
    <linearGradient
       y2="81.676914"
       x2="463.99202"
       y1="81.676914"
       x1="435.11781"
       gradientUnits="userSpaceOnUse"
       id="linearGradient3889"
       xlink:href="#linearGradient3858"
       inkscape:collect="always" />
    <linearGradient
       y2="162.17687"
       x2="497.27891"
       y1="162.17687"
       x1="-68.435376"
       gradientUnits="userSpaceOnUse"
       id="linearGradient3891"
       xlink:href="#linearGradient3822"
       inkscape:collect="always" />
    <linearGradient
       y2="162.17687"
       x2="497.27891"
       y1="162.17687"
       x1="-68.435376"
       gradientUnits="userSpaceOnUse"
       id="linearGradient3894"
       xlink:href="#linearGradient3822"
       inkscape:collect="always" />
    <linearGradient
       y2="81.676914"
       x2="463.99202"
       y1="81.676914"
       x1="435.11781"
       gradientUnits="userSpaceOnUse"
       id="linearGradient3898"
       xlink:href="#linearGradient3858"
       inkscape:collect="always" />
    <linearGradient
       y2="88.041649"
       x2="427.77609"
       y1="88.041649"
       x1="396.33997"
       gradientTransform="translate(35.918367,-2.8571429)"
       gradientUnits="userSpaceOnUse"
       id="linearGradient3901"
       xlink:href="#linearGradient3800"
       inkscape:collect="always" />
    <linearGradient
       y2="121.64498"
       x2="460.33486"
       y1="121.64498"
       x1="429.79176"
       gradientUnits="userSpaceOnUse"
       id="linearGradient3911"
       xlink:href="#linearGradient3850"
       inkscape:collect="always" />
    <linearGradient
       y2="285.93362"
       x2="341.436"
       y1="285.93362"
       x1="194.28571"
       gradientUnits="userSpaceOnUse"
       id="linearGradient3917"
       xlink:href="#linearGradient3842"
       inkscape:collect="always" />
    <linearGradient
       y2="195.99675"
       x2="534.375"
       y1="195.99675"
       x1="311.53317"
       gradientUnits="userSpaceOnUse"
       id="linearGradient3920"
       xlink:href="#linearGradient3800"
       inkscape:collect="always" />
  </defs>
  <metadata
     id="metadata7">
    <rdf:RDF>
      <cc:Work
         rdf:about="">
        <dc:format>image/svg+xml</dc:format>
        <dc:type
           rdf:resource="http://purl.org/dc/dcmitype/StillImage" />
        <dc:title />
      </cc:Work>
    </rdf:RDF>
  </metadata>
  <g
     id="layer1"
     inkscape:groupmode="layer"
     inkscape:label="Layer 1">
    <rect
       y="1.4285717"
       x="1.4285715"
       height="485.71429"
       width="802.85712"
       id="rect2416"
       style="fill:#800000;fill-opacity:1;stroke:none" />
    <path
       style="fill:#000000;fill-rule:evenodd;stroke:none"
       d="M197.14285 346.2582L209.73492 340.41298L226.39214 359.18816L344.29314 301.36104L229.99999 365.21934L197.14285 346.2582L197.14285 346.2582"
       id="path2418"
       sodipodi:nodetypes="ccccccc"
       inkscape:connector-curvature="0" />
    <path
       inkscape:connector-curvature="0"
       sodipodi:nodetypes="ccccccccc"
       id="path4706"
       d="M0.83683464 56.600388L690.16609 252.00078L439.11811 457.78685L1.2554246 312.57151L-3.6519254 482.0921L803.69397 484.11241L802.2654 -5.8875948L-4.8774454 -3.0304548L0.83683464 56.600388L0.83683464 56.600388"
       style="opacity:0.52564105;fill:#000000;fill-rule:evenodd;stroke:none" />
    <path
       style="fill:#000000;fill-rule:evenodd;stroke:none"
       d="M229.99999 365.21934L343.36964 300.61481L354.08022 301.33912L357.14285 311.49611L384.28571 303.59563L382.85714 298.06529L462.85715 284.63449L478.21429 276.14148L537.14286 260.04426L557.14286 271.99373L455.71428 309.91601L413.64632 312.26425L402.85714 312.87869L229.99999 365.21934L229.99999 365.21934"
       id="path2420"
       sodipodi:nodetypes="cccccccccccccc"
       inkscape:connector-curvature="0" />
    <path
       style="fill:#000000;fill-rule:evenodd;stroke:none"
       d="M230.71428 364.82431L402.89675 312.88416L334.28571 352.57858L277.14285 363.24422L230.71428 364.82431L230.71428 364.82431"
       id="path2422"
       sodipodi:nodetypes="ccccc"
       inkscape:connector-curvature="0" />
    <path
       style="fill:#000000;fill-rule:evenodd;stroke:none"
       d="M333.38016 352.77609L389.94307 324.02457L402.87508 312.79687L333.38016 352.77609L333.38016 352.77609"
       id="path2424"
       sodipodi:nodetypes="cccc"
       inkscape:connector-curvature="0" />
    <path
       style="fill:#000000;fill-rule:evenodd;stroke:none"
       d="M402.92645 312.80441L389.28571 324.33438L460.71429 311.89113L454.99999 309.91601L402.92645 312.80441L402.92645 312.80441"
       id="path2426"
       sodipodi:nodetypes="ccccc"
       inkscape:connector-curvature="0" />
    <path
       style="fill:#000000;fill-rule:evenodd;stroke:none"
       d="M455.35714 309.81725L460.0 311.89113L491.42858 310.31103L505.71429 305.96577L556.91013 272.02864L455.35714 309.81725L455.35714 309.81725"
       id="path2429"
       sodipodi:nodetypes="cccccc"
       inkscape:connector-curvature="0" />
    <path
       style="fill:#000000;fill-rule:evenodd;stroke:none"
       d="M527.14286 285.42454L509.28572 295.69515L505.71429 299.64539L490.71429 307.15084L482.14286 308.33591L485.0 298.85534L495.71429 293.32501L507.85715 291.34989L527.14286 285.42454L527.14286 285.42454"
       id="path2431"
       inkscape:connector-curvature="0" />
    <path
       style="fill:#000000;fill-rule:evenodd;stroke:none"
       d="M498.57143 292.92999L506.42858 292.13994L526.59446 285.44644L498.57143 292.92999L498.57143 292.92999"
       id="path2433"
       sodipodi:nodetypes="cccc"
       inkscape:connector-curvature="0" />
    <path
       style="fill:#000000;fill-rule:evenodd;stroke:none"
       d="M314.39031 283.74569L337.47461 287.40376L342.97968 288.91197L362.85714 286.21458L363.57142 284.23946L444.99999 264.48828L452.85714 259.74799L507.14286 248.2923L537.23215 260.14302L478.12501 276.28961L463.57143 285.02951L383.23222 298.06735L374.2659 295.98543L352.31245 297.06575L354.08022 301.29532L342.65164 300.78048L314.39031 283.74569L314.39031 283.74569"
       id="path2435"
       sodipodi:nodetypes="ccccccccccccccccc"
       inkscape:connector-curvature="0" />
    <path
       style="fill:#000000;fill-rule:evenodd;stroke:none"
       d="M395.93009 286.07972L405.02146 285.52107L408.55699 281.88986L410.5773 284.6831L413.10268 283.00716L414.11283 279.37594L422.19405 273.78947L432.80065 270.99622L484.82352 260.38191L500.98596 259.54394L506.03672 262.33718L507.55195 260.38191L522.19916 257.30935L505.02657 257.03003L500.48088 255.35408L475.22707 256.19205L435.32603 265.40975L413.10268 272.39284L399.9707 278.53797L395.93009 281.33121L395.93009 286.07972L395.93009 286.07972"
       id="path2437"
       inkscape:connector-curvature="0" />
    <path
       style="fill:#000000;fill-rule:evenodd;stroke:none"
       d="M352.14285 297.07774L374.30738 295.92758L374.11797 301.23747L353.21428 304.58319L352.14285 297.07774L352.14285 297.07774"
       id="path2439"
       sodipodi:nodetypes="ccccc"
       inkscape:connector-curvature="0" />
    <path
       style="fill:#000000;fill-rule:evenodd;stroke:none"
       d="M405.35714 265.87086L401.78571 259.15545L406.78571 255.79775L415.35714 242.36695L418.21428 240.19432L419.28571 237.42915L423.57142 230.91125L428.21428 224.78839L447.00607 219.53326L454.84834 219.22211L466.42858 221.23317L477.14286 225.77595L481.42858 230.12121L497.5 240.58934L511.78572 252.24254L525.35715 257.97038L524.64286 258.56292L515.35715 258.76043L510.35715 257.37785L508.92858 258.95794L506.78572 258.36541L505.71429 254.21766L484.64286 240.19431L476.07143 236.44159L473.92858 243.3545L480.71429 265.27832L453.57142 299.05285L464.28572 327.69208L441.78571 338.95026L434.64285 336.3826L449.99999 327.69208L434.64285 299.25037L448.21428 267.05593L439.99999 266.26588L410.35714 272.98129L421.07142 267.84598L433.21428 262.11813L436.78571 261.13057L432.85714 241.5769L434.64285 233.67642L426.42856 243.94704L417.49999 253.2301L415.35714 255.20522L415.71428 259.74799L413.21428 258.76043L409.99999 259.15545L412.49999 263.89574L405.35714 265.87086L405.35714 265.87086"
       id="path2441"
       sodipodi:nodetypes="cccccccccccccccccccccccccccccccccccccccccccccccc"
       inkscape:connector-curvature="0" />
    <path
       style="fill:#000000;fill-rule:evenodd;stroke:none"
       d="M441.07143 226.76351L435.71428 239.60178L443.21428 240.78685L455.35714 239.00925L460.71428 226.76351L441.07143 226.76351L441.07143 226.76351"
       id="path2443"
       sodipodi:nodetypes="cccccc"
       inkscape:connector-curvature="0" />
    <path
       style="fill:#000000;fill-rule:evenodd;stroke:none"
       d="M464.28571 244.83585L439.46428 257.77288L446.60713 266.26589L458.92856 260.6368L468.57142 251.65001L464.28571 244.83585L464.28571 244.83585"
       id="path2445"
       sodipodi:nodetypes="cccccc"
       inkscape:connector-curvature="0" />
    <path
       style="fill:#000000;fill-rule:evenodd;stroke:none"
       d="M445.35714 222.22074L439.28571 224.19585L434.99999 227.15854L429.28571 230.91126L424.64285 234.8615L422.85714 237.82418L420.71428 241.37939L418.21428 244.53958L415.35714 247.69977L413.21428 246.90972L415.35714 242.95949L418.92857 239.7993L419.64285 236.6391L427.85714 225.57844L436.07142 222.61576L446.10053 219.05643L445.35714 222.22074L445.35714 222.22074"
       id="path2447"
       sodipodi:nodetypes="csssssssssssccssc"
       inkscape:connector-curvature="0" />
    <path
       style="fill:#000000;fill-rule:evenodd;stroke:none"
       d="M467.49999 221.6282L461.42857 221.43068L456.07142 221.6282L457.85714 223.99834L463.92857 225.18342L469.99999 227.35605L476.07142 230.12121L477.49999 234.26896L483.21428 236.83662L487.49999 239.7993L491.78571 243.157L496.42857 246.31719L501.78571 247.89728L502.85714 246.71221L498.92857 243.35451L493.92857 239.00925L488.57142 236.44159L484.64285 233.67643L479.64285 230.31872L472.85714 223.80083L467.49999 221.6282L467.49999 221.6282"
       id="path2449"
       sodipodi:nodetypes="csssssssssssssssssccc"
       inkscape:connector-curvature="0" />
    <path
       style="fill:#000000;fill-rule:evenodd;stroke:none"
       d="M470.35714 257.97039L444.2857 295.69516L470.35714 257.97039L470.35714 257.97039"
       id="path2451"
       sodipodi:nodetypes="ccc"
       inkscape:connector-curvature="0" />
    <path
       style="fill:#000000;fill-rule:evenodd;stroke:none"
       d="M352.74607 304.37544L374.0224 301.1283L384.31333 303.6073L357.54429 312.33617L352.74607 304.37544L352.74607 304.37544"
       id="path2453"
       sodipodi:nodetypes="ccccc"
       inkscape:connector-curvature="0" />
    <path
       style="fill:#000000;fill-rule:evenodd;stroke:none"
       d="M374.21181 295.85605L383.11378 298.02082L384.31333 303.64221L373.95927 301.16322L374.21181 295.85605L374.21181 295.85605"
       id="path2455"
       sodipodi:nodetypes="ccccc"
       inkscape:connector-curvature="0" />
    <path
       style="fill:#000000;fill-rule:evenodd;stroke:none"
       d="M437.85141 214.01412L437.34634 208.98629L466.5145 211.08122L466.76703 215.34091L459.5697 217.08668L451.99355 217.64533L444.4174 217.64533L437.85141 214.01412L437.85141 214.01412"
       id="path2457"
       sodipodi:nodetypes="cccssssc"
       inkscape:connector-curvature="0" />
    <path
       style="fill:#000000;fill-rule:evenodd;stroke:none"
       d="M436.08365 218.27381L439.11411 206.12322L445.93263 212.89683L462.47389 216.45821L466.94429 212.09625L466.64077 217.64533L436.08365 218.27381L436.08365 218.27381"
       id="path2459"
       sodipodi:nodetypes="ccccscc"
       inkscape:connector-curvature="0" />
    <path
       style="opacity:0.55833333;fill:#000000;fill-rule:evenodd;stroke:none"
       d="M439.55357 205.97537L466.33928 211.20944L467.05357 212.69078L465.625 216.09786L445.89286 212.83892L439.55357 205.97537L439.55357 205.97537"
       id="path2461"
       sodipodi:nodetypes="cccccc"
       inkscape:connector-curvature="0" />
    <path
       sodipodi:nodetypes="cccccccccccccc"
       id="path2430"
       d="M227.14285 359.50505L340.5125 242.68653L351.22308 243.99624L354.28571 262.36219L381.42857 248.07647L380.0 238.07647L460.0 213.79076L475.35714 198.43362L534.28571 169.32647L554.28571 190.93362L452.85714 259.50505L410.78918 263.75115L400.0 264.86219L227.14285 359.50505L227.14285 359.50505"
       style="fill:#c83737;fill-opacity:1;fill-rule:evenodd;stroke:none"
       inkscape:connector-curvature="0" />
    <path
       sodipodi:nodetypes="ccccc"
       id="path2432"
       d="M227.85714 358.79075L400.03961 264.87209L331.42857 336.6479L274.28571 355.93362L227.85714 358.79075L227.85714 358.79075"
       style="fill:#000000;fill-rule:evenodd;stroke:none"
       inkscape:connector-curvature="0" />
    <path
       sodipodi:nodetypes="cccc"
       id="path2434"
       d="M330.52302 337.00504L387.08593 285.01628L400.01794 264.71425L330.52302 337.00504L330.52302 337.00504"
       style="fill:#333333;fill-rule:evenodd;stroke:none"
       inkscape:connector-curvature="0" />
    <path
       sodipodi:nodetypes="ccccc"
       id="path2436"
       d="M400.06931 264.72787L386.42857 285.57647L457.85714 263.07647L452.14285 259.50504L400.06931 264.72787L400.06931 264.72787"
       style="fill:#000000;fill-rule:evenodd;stroke:none"
       inkscape:connector-curvature="0" />
    <path
       sodipodi:nodetypes="cccccc"
       id="path2438"
       d="M452.5 259.32647L457.14285 263.07647L488.57143 260.21933L502.85714 252.36219L554.05298 190.99675L452.5 259.32647L452.5 259.32647"
       style="fill:#000000;fill-rule:evenodd;stroke:none"
       inkscape:connector-curvature="0" />
    <path
       id="path2440"
       d="M524.28571 215.21933L506.42857 233.79076L502.85714 240.93362L487.85714 254.50504L479.28571 256.6479L482.14285 239.50504L492.85714 229.50504L505.0 225.93362L524.28571 215.21933L524.28571 215.21933"
       style="fill:#808080;fill-rule:evenodd;stroke:none"
       inkscape:connector-curvature="0" />
    <path
       sodipodi:nodetypes="cccc"
       id="path2442"
       d="M495.71428 228.79076L503.57143 227.36219L523.73731 215.25894L495.71428 228.79076L495.71428 228.79076"
       style="fill:none;stroke:none"
       inkscape:connector-curvature="0" />
    <path
       sodipodi:nodetypes="ccccccccccccccccc"
       id="path2444"
       d="M311.53317 212.18362L334.61747 218.79819L340.12254 221.52535L360.0 216.6479L360.71428 213.07647L442.14285 177.36219L450.0 168.79076L504.28571 148.07647L534.375 169.50505L475.26786 198.70147L460.71428 214.50504L380.37508 238.08019L371.40876 234.31564L349.45531 236.26909L351.22308 243.91703L339.7945 242.98609L311.53317 212.18362L311.53317 212.18362"
       style="fill:url(#linearGradient3920);fill-opacity:1;fill-rule:evenodd;stroke:none"
       inkscape:connector-curvature="0" />
    <path
       sodipodi:nodetypes="ccccc"
       id="path2428"
       d="M194.28571 325.21933L311.42857 212.36219L341.436 244.03586L227.14285 359.50505L194.28571 325.21933L194.28571 325.21933"
       style="fill:url(#linearGradient3917);fill-opacity:1;fill-rule:evenodd;stroke:none"
       inkscape:connector-curvature="0" />
    <path
       id="path2464"
       d="M393.07295 216.40404L402.16432 215.39389L405.69985 208.8279L407.72016 213.87866L410.24554 210.8482L411.25569 204.28221L419.33691 194.18069L429.94351 189.12992L481.96637 169.93702L498.12881 168.4218L503.17957 173.47256L504.6948 169.93702L519.34201 164.38118L502.16942 163.87611L497.62373 160.84565L472.36992 162.36088L432.46889 179.0284L410.24554 191.6553L397.11356 202.76698L393.07295 207.81774L393.07295 216.40404L393.07295 216.40404"
       style="opacity:0.56837607;fill:#000000;fill-rule:evenodd;stroke:none"
       inkscape:connector-curvature="0" />
    <path
       sodipodi:nodetypes="ccccc"
       id="path2446"
       d="M349.28571 236.29076L371.45024 234.21103L371.26083 243.81243L350.35714 249.86219L349.28571 236.29076L349.28571 236.29076"
       style="fill:#808080;fill-rule:evenodd;stroke:none"
       inkscape:connector-curvature="0" />
    <path
       sodipodi:nodetypes="cccccccccccccccccccccccccsscsccccccccccccccccccccccccc"
       id="path2448"
       d="M402.5 179.86219L398.92857 167.71933L403.92857 161.6479L412.5 137.36219L415.35714 133.43362L416.42857 128.43362L420.71428 116.6479L425.35714 105.57647L444.14893 96.074116L451.9912 95.511476L463.57143 99.147896L474.28571 107.36219L478.57143 115.21933L494.64285 134.1479L508.92857 155.21933L522.5 165.57647L521.78571 166.6479L512.5 167.00504L507.5 164.50504L506.07143 167.36219L503.92857 166.29076L502.85714 158.79076L481.78571 133.43361L464.64285 114.86219L465.71429 131.29076L469.20786 160.05985L473.79469 170.33035L476.07143 178.07647L475.88922 183.26951L450.71428 239.86218L461.42857 291.64791L438.92857 312.00505L431.78571 307.36219L447.14285 291.6479L431.78571 240.21933L445.35714 182.00505L437.14285 180.57647L407.5 192.71933L418.21428 183.43362L430.35714 173.07647L433.92857 171.29076L438.05387 155.72461L433.69544 143.47828L427.85714 132.00505L431.78571 121.6479L423.57142 140.21933L414.64285 157.00504L412.5 160.57647L412.85714 168.79076L410.35714 167.00504L407.14285 167.71933L409.64285 176.29076L402.5 179.86219L402.5 179.86219"
       style="fill:#1a1a1a;fill-rule:evenodd;stroke:none"
       inkscape:connector-curvature="0" />
    <path
       sodipodi:nodetypes="csssssss"
       id="path2450"
       d="M438.21429 109.1479L430.71428 132.71933L440.35714 134.50504L452.5 131.29076L457.85714 109.1479L443.21428 116.6479L438.21429 109.1479L438.21429 109.1479"
       style="fill:url(#linearGradient3911);fill-opacity:1;fill-rule:evenodd;stroke:none"
       inkscape:connector-curvature="0" />
    <path
       sodipodi:nodetypes="csssccccccc"
       id="path2452"
       d="M461.42857 141.82647L460.77368 147.27533L453.6357 165.28885L443.25033 167.92237L436.60714 165.21933L437.82003 172.25563L443.74999 180.57647L456.07142 170.3979L465.71428 154.1479L461.42857 141.82647L461.42857 141.82647"
       style="opacity:0.28632477;fill:#b3b3b3;fill-rule:evenodd;stroke:none"
       inkscape:connector-curvature="0" />
    <path
       sodipodi:nodetypes="csssssssssssccssc"
       id="path2454"
       d="M442.5 100.93362L436.42857 104.50504L432.14285 109.86219L426.42857 116.6479L421.78571 123.79076L420.0 129.1479L417.85714 135.57647L415.35714 141.29076L412.5 147.00504L410.35714 145.57647L412.5 138.43362L416.07143 132.71933L416.78571 127.00504L425.0 107.00505L433.21428 101.6479L443.24339 95.211886L442.5 100.93362L442.5 100.93362"
       style="fill:#808080;fill-rule:evenodd;stroke:none"
       inkscape:connector-curvature="0" />
    <path
       sodipodi:nodetypes="csssssssssssssssssssss"
       id="path2456"
       d="M464.64285 99.862186L458.57143 99.505036L453.21428 99.862186L455.0 104.1479L461.07143 106.29076L467.14285 110.21933L473.21428 115.21933L474.64285 122.71933L480.35714 127.36219L484.64285 132.71933L488.92857 138.79076L493.57143 144.50504L498.92857 147.36219L500.0 145.21933L496.07143 139.1479L491.07143 131.29076L485.71428 126.6479L481.78571 121.6479L476.78571 115.57647L470.0 103.79076L464.64285 99.862186L464.64285 99.862186"
       style="fill:#999999;fill-rule:evenodd;stroke:none"
       inkscape:connector-curvature="0" />
    <path
       sodipodi:nodetypes="ccc"
       id="path2458"
       d="M467.5 165.57647L441.42856 233.79076L467.5 165.57647L467.5 165.57647"
       style="fill:#cccccc;fill-rule:evenodd;stroke:none"
       inkscape:connector-curvature="0" />
    <path
       sodipodi:nodetypes="ccccc"
       id="path2460"
       d="M349.88893 249.48653L371.16526 243.61502L381.45619 248.09757L354.68715 263.8812L349.88893 249.48653L349.88893 249.48653"
       style="fill:#b3b3b3;fill-rule:evenodd;stroke:none"
       inkscape:connector-curvature="0" />
    <path
       sodipodi:nodetypes="ccccc"
       id="path2462"
       d="M371.35467 234.0817L380.25664 237.99605L381.45619 248.1607L371.10213 243.67816L371.35467 234.0817L371.35467 234.0817"
       style="fill:#666666;fill-rule:evenodd;stroke:none"
       inkscape:connector-curvature="0" />
    <path
       sodipodi:nodetypes="csssssssssssss"
       id="path2468"
       d="M434.99427 86.094346L434.4892 77.002976L437.72222 69.956456L442.33886 64.66478L452.09336 62.857374L458.72757 68.52113L462.80194 77.51359L463.65735 80.791046L463.90988 88.493466L456.71255 91.650186L449.13641 92.660336L441.56026 92.660336L434.99427 86.094346L434.99427 86.094346"
       style="fill:#000000;fill-rule:evenodd;stroke:none"
       inkscape:connector-curvature="0" />
    <path
       inkscape:connector-curvature="0"
       sodipodi:nodetypes="cccsccc"
       id="path2466"
       d="M432.9544 94.885201L435.98486 72.914381L458.71328 91.349663L463.68876 85.103831L463.51151 93.748771L432.9544 94.885201L432.9544 94.885201"
       style="fill:url(#linearGradient3901);fill-opacity:1;fill-rule:evenodd;stroke:none" />
    <path
       style="fill:url(#linearGradient3898);fill-opacity:1;fill-rule:evenodd;stroke:none"
       d="M436.25697 71.825946L458.85912 90.261228L463.96087 83.889127L460.62689 91.145107L435.12055 74.856406"
       id="path3672"
       sodipodi:nodetypes="ccscc"
       inkscape:connector-curvature="0" />
    <path
       sodipodi:nodetypes="cssss"
       id="path3674"
       d="M449.26535 63.059535L459.11433 90.081116L463.59689 82.189299L453.87417 64.385361L449.26535 63.059535L449.26535 63.059535"
       style="fill:#ffffff;fill-opacity:0.16000001;stroke:none"
       inkscape:connector-curvature="0" />
  </g>
</svg>
