<?xml version="1.0" encoding="UTF-8" standalone="no"?>
<!-- Created with Inkscape (http://www.inkscape.org/) -->

<svg
   xmlns:dc="http://purl.org/dc/elements/1.1/"
   xmlns:cc="http://creativecommons.org/ns#"
   xmlns:rdf="http://www.w3.org/1999/02/22-rdf-syntax-ns#"
   xmlns:svg="http://www.w3.org/2000/svg"
   xmlns="http://www.w3.org/2000/svg"
   xmlns:sodipodi="http://sodipodi.sourceforge.net/DTD/sodipodi-0.dtd"
   xmlns:inkscape="http://www.inkscape.org/namespaces/inkscape"
   width="744.09448819"
   height="1052.3622047"
   id="svg4042"
   version="1.1"
   inkscape:version="0.48.3.1 r9886"
   sodipodi:docname="title.svg"
   inkscape:export-filename="/Users/monty/Desktop/derelict.png"
   inkscape:export-xdpi="90"
   inkscape:export-ydpi="90">
  <sodipodi:namedview
     id="base"
     pagecolor="#ffffff"
     bordercolor="#666666"
     borderopacity="1.0"
     inkscape:pageopacity="0.0"
     inkscape:pageshadow="2"
     inkscape:zoom="0.49497475"
     inkscape:cx="330.02456"
     inkscape:cy="477.15923"
     inkscape:document-units="px"
     inkscape:current-layer="layer1"
     showgrid="false"
     inkscape:window-width="957"
     inkscape:window-height="547"
     inkscape:window-x="65"
     inkscape:window-y="24"
     inkscape:window-maximized="0" />
  <defs
     id="defs4044">
    <inkscape:perspective
       id="perspective4070"
       inkscape:persp3d-origin="372.04724 : 350.78739 : 1"
       inkscape:vp_z="744.09448 : 526.18109 : 1"
       inkscape:vp_y="0 : 1000 : 0"
       inkscape:vp_x="0 : 526.18109 : 1"
       sodipodi:type="inkscape:persp3d" />
  </defs>
  <metadata
     id="metadata4047">
    <rdf:RDF>
      <cc:Work
         rdf:about="">
        <dc:format>image/svg+xml</dc:format>
        <dc:type
           rdf:resource="http://purl.org/dc/dcmitype/StillImage" />
        <dc:title></dc:title>
      </cc:Work>
    </rdf:RDF>
  </metadata>
  <g
     id="layer1"
     inkscape:groupmode="layer"
     inkscape:label="Layer 1">
    <path
       inkscape:connector-curvature="0"
       id="path4120"
       d="M348.57143 369.50504L361.42857 456.6479L631.42857 446.6479L621.42857 383.79075L348.57143 369.50504"
       style="fill:#445500;stroke:none" />
    <path
       inkscape:connector-curvature="0"
       id="path4118"
       d="M485.71429 200.93361L485.71429 375.21933L592.85714 413.79075L652.85714 189.50504L485.71429 200.93361"
       style="fill:#504416;stroke:none" />
    <path
       inkscape:connector-curvature="0"
       id="path4112"
       d="M401.42857 435.21933L732.85714 439.50504L737.14286 1058.0765L275.71429 1053.7908L341.42857 429.50504L401.42857 435.21933"
       style="fill:#88aa00;stroke:none" />
    <path
       inkscape:connector-curvature="0"
       id="path4116"
       d="M398.57143 390.93361L545.71429 395.21933L527.14286 335.21933L531.42857 232.36218L381.42857 195.21933L374.28571 403.79075L398.57143 390.93361"
       style="fill:#552200;stroke:none" />
    <path
       inkscape:connector-curvature="0"
       id="path4108"
       d="M411.42857 220.93361L567.14286 245.21933L738.57143 249.50504L815.71429 225.21933L808.57143 -26.209247L434.28572 -40.494961L411.42857 220.93361"
       style="fill:#b7c8b7;stroke:none"
       sodipodi:nodetypes="ccccccc" />
    <path
       inkscape:connector-curvature="0"
       id="path4110"
       d="M426.19463 65.219325L658.50904 100.93361L815.71428 93.790754L808.72739 -31.923532L415.71429 -34.780675L462.87585 40.933611L426.19463 65.219325"
       style="fill:#8a916f;stroke:none" />
    <path
       sodipodi:nodetypes="cccccccc"
       inkscape:connector-curvature="0"
       id="path4106"
       d="M309.90358 -19.967803L177.14286 1075.2193L361.42857 1068.0765L410.0 216.6479L559.29442 -31.923532L432.20898 -36.34953L309.90358 -19.967803L309.90358 -19.967803"
       style="fill:#e3e2db;stroke:none" />
    <path
       sodipodi:nodetypes="ccccccc"
       inkscape:connector-curvature="0"
       id="path4104"
       d="M460.0 -31.923532L303.87961 104.13738L224.28571 918.07643L-15.714286 910.93363L-31.428571 -31.923532L410.0 -33.352104L460.0 -31.923532"
       style="fill:#c4c8b7;stroke:none" />
    <path
       inkscape:connector-curvature="0"
       id="path4114"
       d="M541.42857 433.79075L571.42857 243.79075L735.71429 233.79075L734.28571 448.07647L568.57143 456.6479L541.42857 433.79075"
       style="fill:#6c6753;stroke:none" />
    <path
       sodipodi:nodetypes="ccccc"
       inkscape:connector-curvature="0"
       id="path4124"
       d="M225.04641 912.59678L315.0 1070.9336L377.14286 1052.3622L226.11784 814.29583L225.04641 912.59678"
       style="fill:#917c6f;stroke:none" />
    <path
       sodipodi:nodetypes="ccccc"
       inkscape:connector-curvature="0"
       id="path4126"
       d="M226.42857 814.86219L375.71429 816.6479L501.42857 1058.0765L367.14286 1053.0765L226.42857 814.86219"
       style="fill:#bcd35f;stroke:none" />
    <path
       sodipodi:nodetypes="ccccc"
       inkscape:connector-curvature="0"
       id="path4128"
       d="M-15.714286 905.21933L225.0 911.6479L315.71429 1072.3622L-17.142857 1066.6479L-15.714286 905.21933"
       style="fill:#cdde87;stroke:none" />
    <path
       sodipodi:nodetypes="ccccc"
       inkscape:connector-curvature="0"
       id="path4640"
       d="M405.71429 336.6479L527.14286 338.07647L547.14285 393.79075L401.42857 392.36218L405.71429 336.6479"
       style="opacity:0.56422017000000002;fill:#554400;stroke:none" />
    <path
       sodipodi:nodetypes="ccccccc"
       inkscape:connector-curvature="0"
       id="path4660"
       d="M431.25767 760.93361L334.01841 865.21933L274.28571 1070.9336L801.50746 1065.2193L810.0 712.36218L563.80924 723.14896L431.25767 760.93361"
       style="fill:#550000;stroke:none" />
    <path
       sodipodi:nodetypes="cccccc"
       inkscape:connector-curvature="0"
       id="path4662"
       d="M442.10317 1055.2193L563.08201 832.36218L812.15608 853.79076L815.71429 1065.2193L428.57143 1070.9336L442.10317 1055.2193"
       style="fill:#2b0000;stroke:none" />
    <path
       sodipodi:nodetypes="cccccccccc"
       inkscape:connector-curvature="0"
       id="path4652"
       d="M486.28571 438.07647L473.42857 663.79075L573.42857 783.79075L793.42857 726.6479L812.71429 700.21933L807.71428 793.79076L573.42857 828.07647L473.42857 710.93361L476.28571 669.50504L486.28571 438.07647"
       style="fill:#aa0000;stroke:none" />
    <path
       sodipodi:nodetypes="ccccccc"
       inkscape:connector-curvature="0"
       id="path4656"
       d="M477.71429 666.64789L516.28571 522.36218L819.14286 525.21932L812.71428 713.79075L787.71429 730.93361L569.14286 788.07646L477.71429 666.64789"
       style="fill:#554400;stroke:none" />
    <path
       sodipodi:nodetypes="cccccccc"
       inkscape:connector-curvature="0"
       id="path4650"
       d="M814.85714 225.21932L658.52247 207.64601L513.42857 259.50504L476.28571 448.07647L530.57143 556.6479L680.57143 580.93361L819.14285 528.07647L814.85714 225.21932"
       style="fill:#aa0000;stroke:none" />
    <path
       sodipodi:nodetypes="ccccccccc"
       inkscape:connector-curvature="0"
       id="path4654"
       d="M477.71429 449.50504L476.28572 665.21932L572.00001 785.21932L794.85715 728.07647L812.00001 720.21932L819.14287 523.79075L679.14287 576.64789L532.00001 552.36218L477.71429 449.50504"
       style="opacity:0.25688076;fill:#d4aa00;stroke:none" />
    <path
       sodipodi:nodetypes="cccccccc"
       inkscape:connector-curvature="0"
       id="path4692"
       d="M747.14286 649.50504L759.03026 680.65173L788.57142 695.21933L738.57143 716.6479L622.85714 740.93361L621.42857 720.93361L684.28571 666.6479L747.14286 649.50504"
       style="fill:#2b2200;stroke:none;stroke-width:1px;stroke-linecap:butt;stroke-linejoin:miter;stroke-opacity:1" />
    <path
       inkscape:connector-curvature="0"
       id="path4664"
       d="M562.85714 560.93361L567.14286 638.07647L594.28571 720.93361L645.71429 729.50504L752.85714 653.79075L781.42857 540.93361L684.28571 580.93361L562.85714 560.93361"
       style="fill:#554400;stroke:none" />
    <path
       inkscape:connector-curvature="0"
       id="path4672"
       d="M525.71429 263.79075L658.57143 238.07647L815.71429 269.50504L808.57143 230.93361L658.57143 212.36218L525.71429 263.79075"
       style="opacity:0.35321105000000003;fill:#93ac93;stroke:none" />
    <path
       sodipodi:nodetypes="ccccc"
       inkscape:connector-curvature="0"
       id="path4674"
       d="M484.28571 439.50504L537.14285 533.79075L565.71429 322.36218L522.85714 269.50504L484.28571 439.50504"
       style="opacity:0.37155965;fill:#aad400;stroke:none" />
    <path
       sodipodi:nodetypes="ccccc"
       inkscape:connector-curvature="0"
       id="path4676"
       d="M691.42857 558.07647L728.57143 330.93361L808.57143 276.6479L811.42857 512.36218L691.42857 558.07647"
       style="opacity:0.2431193;fill:#ffdd55;stroke:none" />
    <path
       inkscape:connector-curvature="0"
       id="path4678"
       d="M354.28571 866.6479L457.14286 780.93361L522.85714 778.07647L507.14286 755.21933L438.57143 762.36218L354.28571 866.6479"
       style="opacity:0.13302755999999999;fill:#aad400;stroke:none" />
    <path
       inkscape:connector-curvature="0"
       id="path4682"
       d="M50.0 80.93361L191.42858 86.647896L192.85715 242.36218L47.142857 239.50504L50.0 80.93361"
       style="fill:#112b00;stroke:none;stroke-width:1px;stroke-linecap:butt;stroke-linejoin:miter;stroke-opacity:1" />
    <path
       inkscape:connector-curvature="0"
       id="path4684"
       d="M62.857143 92.362182L61.428572 105.21932L82.857143 108.07647L82.857143 93.790753L62.857143 92.362182"
       style="fill:#ff0000;stroke:none;stroke-width:1px;stroke-linecap:butt;stroke-linejoin:miter;stroke-opacity:1" />
    <path
       sodipodi:nodetypes="ccccc"
       inkscape:connector-curvature="0"
       id="path4686"
       d="M560.0 1068.0765L598.57143 1013.7908L684.28571 1009.505L780.0 1065.2193L560.0 1068.0765"
       style="fill:#808000;stroke:none;stroke-width:1px;stroke-linecap:butt;stroke-linejoin:miter;stroke-opacity:1" />
    <path
       inkscape:connector-curvature="0"
       id="path4688"
       d="M712.85714 1026.6479L757.14286 1033.7908L775.71429 1046.6479L768.57143 1060.9336L712.85714 1026.6479"
       style="fill:#000080;stroke:none;stroke-width:1px;stroke-linecap:butt;stroke-linejoin:miter;stroke-opacity:1" />
    <path
       inkscape:connector-curvature="0"
       id="path4690"
       d="M591.42857 1068.0765L618.57143 1050.9336L650.0 1068.0765L591.42857 1068.0765"
       style="fill:#0000ff;stroke:none;stroke-width:1px;stroke-linecap:butt;stroke-linejoin:miter;stroke-opacity:1" />
    <path
       inkscape:connector-curvature="0"
       id="path3026"
       style="font-size:59px;font-style:normal;font-variant:normal;font-weight:normal;font-stretch:normal;line-height:125%;letter-spacing:0px;word-spacing:0px;fill:#000000;fill-opacity:1;stroke:none;font-family:American Typewriter;-inkscape-font-specification:American Typewriter"
       d="M18.791 442.85618L15.782 438.43118L14.543 438.54918L12.95 438.72618L11.121 436.83818L13.776 434.77318L14.543 434.83218L17.67 435.24518L21.446 435.48118L24.75 435.30418L28.585 434.89118L31.535 434.77318L40.503 436.30718L47.937 443.26918L50.71 454.77418L48.527 465.21718L42.568 472.00218L31.594 474.65718L28.939 474.53918L24.868 474.18518L20.561 474.00818L17.375 474.18518L14.543 474.59818L14.13 474.65718L13.658 474.65718L11.121 472.59218L11.652 471.23518L12.95 470.64518L14.543 470.82218L15.782 470.94018L18.791 466.51518L18.791 442.85618M23.747 442.26618L23.747 467.22318L26.402 470.52718L31.358 470.76318L41.624 466.92818L45.459 454.77418L43.099 444.80318L36.727 439.49318L30.473 438.72618L24.75 439.25718L23.747 442.26618" />
    <path
       inkscape:connector-curvature="0"
       id="path3028"
       style="font-size:59px;font-style:normal;font-variant:normal;font-weight:normal;font-stretch:normal;line-height:125%;letter-spacing:0px;word-spacing:0px;fill:#000000;fill-opacity:1;stroke:none;font-family:American Typewriter;-inkscape-font-specification:American Typewriter"
       d="M82.069422 453.01618L81.774422 455.78918L80.063422 456.26118L61.301422 456.26118L60.298422 456.49718L60.062422 457.14618L62.717422 464.52118L69.325422 467.47118L74.045422 466.05518L76.877422 462.45618L77.408422 460.74518L79.355422 459.32918L81.538422 461.57118L77.644422 468.41518L68.794422 471.36518L58.941422 467.23518L55.283422 456.02518L59.177422 444.34318L69.325422 439.85918L78.470422 443.57618L82.069422 453.01618M60.652422 451.48218L61.950422 452.30818L76.051422 452.30818L77.290422 451.48218L74.930422 446.05418L69.384422 443.75318L63.366422 446.17218L60.652422 451.48218" />
    <path
       inkscape:connector-curvature="0"
       id="path3030"
       style="font-size:59px;font-style:normal;font-variant:normal;font-weight:normal;font-stretch:normal;line-height:125%;letter-spacing:0px;word-spacing:0px;fill:#000000;fill-opacity:1;stroke:none;font-family:American Typewriter;-inkscape-font-specification:American Typewriter"
       d="M95.305703 440.57318L95.305703 442.16618L103.5067 437.85918L110.1737 440.21918L112.7697 446.17818L111.4717 450.42618L108.0497 452.01918L105.7487 451.19318L104.8047 449.18718L105.5127 447.53518L107.1647 446.76818L107.9317 446.94518L108.2857 445.64718L106.7517 442.75618L103.0347 441.57618L96.898703 445.70618L95.954703 453.37618L95.954703 457.27018L96.013703 461.69518L97.842703 465.05818L99.435703 464.82218L100.5567 464.64518L102.4447 466.53318L100.0257 468.59818L99.789703 468.59818L97.075703 468.36218L94.420703 468.18518L90.703703 468.30318L87.399703 468.59818L84.980703 466.53318L87.222703 464.70418L88.107703 464.76318L88.992703 464.94018L89.818703 465.05818L91.411703 462.34418L91.529703 459.33518L91.352703 445.94218L89.582703 442.46118L88.284703 442.63818L86.986703 442.81518L85.039703 440.92718L87.576703 438.86218L89.346703 439.03918L91.116703 439.15718L92.650703 439.03918L93.771703 438.92118L95.305703 440.57318" />
    <path
       inkscape:connector-curvature="0"
       id="path3032"
       style="font-size:59px;font-style:normal;font-variant:normal;font-weight:normal;font-stretch:normal;line-height:125%;letter-spacing:0px;word-spacing:0px;fill:#000000;fill-opacity:1;stroke:none;font-family:American Typewriter;-inkscape-font-specification:American Typewriter"
       d="M142.10653 457.01618L141.81153 459.78918L140.10053 460.26118L121.33853 460.26118L120.33553 460.49718L120.09953 461.14618L122.75453 468.52118L129.36253 471.47118L134.08253 470.05518L136.91453 466.45618L137.44553 464.74518L139.39253 463.32918L141.57553 465.57118L137.68153 472.41518L128.83153 475.36518L118.97853 471.23518L115.32053 460.02518L119.21453 448.34318L129.36253 443.85918L138.50753 447.57618L142.10653 457.01618M120.68953 455.48218L121.98753 456.30818L136.08853 456.30818L137.32753 455.48218L134.96753 450.05418L129.42153 447.75318L123.40353 450.17218L120.68953 455.48218" />
    <path
       inkscape:connector-curvature="0"
       id="path3034"
       style="font-size:59px;font-style:normal;font-variant:normal;font-weight:normal;font-stretch:normal;line-height:125%;letter-spacing:0px;word-spacing:0px;fill:#000000;fill-opacity:1;stroke:none;font-family:American Typewriter;-inkscape-font-specification:American Typewriter"
       d="M155.63781 445.70018L155.69681 464.04918L157.28981 467.05818L158.76481 466.76318L159.70881 466.64518L161.65581 468.65118L159.23681 470.59818L156.22781 470.36218L153.04181 470.12618L150.20981 470.36218L147.43681 470.59818L147.14181 470.59818L144.66381 468.47418L146.66981 466.64518L147.08281 466.64518L147.61381 466.70418L149.32481 466.94018L150.62281 466.05518L150.97681 461.27618L151.03581 457.14618L151.21281 448.00118L151.15381 437.49918L150.97681 435.13918L149.32481 433.78218L147.79081 434.01818L146.72881 434.13618L144.72281 432.24818L147.08281 430.30118L148.20381 430.36018L149.61981 430.53718L151.21281 430.65518L152.98281 430.47818L154.75281 430.24218L156.10981 431.95318L156.05081 432.83818L155.63781 445.70018" />
    <path
       inkscape:connector-curvature="0"
       id="path3036"
       style="font-size:59px;font-style:normal;font-variant:normal;font-weight:normal;font-stretch:normal;line-height:125%;letter-spacing:0px;word-spacing:0px;fill:#000000;fill-opacity:1;stroke:none;font-family:American Typewriter;-inkscape-font-specification:American Typewriter"
       d="M174.19884 455.25218L174.19884 462.92218L174.25784 466.40318L175.85084 469.05818L177.32584 468.76318L178.21084 468.64518L180.45284 470.59218L179.68584 472.00818L177.85684 472.59818L174.96584 472.36218L172.13384 472.06718L168.71184 472.30318L165.64384 472.59818L163.28384 470.59218L165.28984 468.64518L166.64684 468.82218L168.06284 468.99918L169.77384 465.22318L169.77384 460.09018L169.77384 455.25218L169.77384 450.11918L168.00384 446.40218L166.64684 446.63818L165.40784 446.81518L163.28384 444.92718L165.87984 442.92118L167.47284 442.98018L169.89184 443.21618L171.30784 443.09818L172.78284 442.92118L174.49384 445.22218L174.43484 445.93018L174.37584 446.63818L174.25784 450.29618L174.19884 455.25218M171.13084 439.79418L168.77084 438.85018L167.82684 436.49018L168.77084 434.18918L171.13084 433.24518L173.43184 434.18918L174.43484 436.49018L173.43184 438.85018L171.13084 439.79418" />
    <path
       inkscape:connector-curvature="0"
       id="path3038"
       style="font-size:59px;font-style:normal;font-variant:normal;font-weight:normal;font-stretch:normal;line-height:125%;letter-spacing:0px;word-spacing:0px;fill:#000000;fill-opacity:1;stroke:none;font-family:American Typewriter;-inkscape-font-specification:American Typewriter"
       d="M200.13211 448.89218L203.08211 446.17818L201.07611 442.93318L196.76911 441.75318L190.22011 444.99818L187.74211 453.61218L190.04311 462.34418L196.53311 465.47118L201.01711 463.99618L203.67211 459.92518L204.38011 457.56518L206.26811 456.38518L207.92011 457.03418L208.56911 458.68618L207.62511 462.22618L205.38311 465.64818L196.35611 469.36518L186.62111 465.11718L182.96311 453.96618L186.73911 442.28418L196.88711 437.85918L204.73411 440.45518L207.86111 446.94518L206.62211 450.54418L203.55411 451.96018L201.07611 451.07518L200.13211 448.89218" />
    <path
       inkscape:connector-curvature="0"
       id="path3040"
       style="font-size:59px;font-style:normal;font-variant:normal;font-weight:normal;font-stretch:normal;line-height:125%;letter-spacing:0px;word-spacing:0px;fill:#000000;fill-opacity:1;stroke:none;font-family:American Typewriter;-inkscape-font-specification:American Typewriter"
       d="M229.26428 464.22018L229.38228 460.44418L231.50628 458.02518L233.57128 460.73918L231.91928 469.70718L224.54428 473.12918L217.81828 470.12018L216.34328 462.68618L216.34328 448.52618L215.22228 447.28718L213.33428 447.28718L211.74128 446.69718L211.15128 445.16318L211.74128 443.68818L213.15728 443.03918L215.45828 443.03918L216.46128 441.91818L216.46128 435.84118L218.76228 433.59918L220.88628 435.84118L220.88628 442.15418L221.94828 443.03918L228.37928 443.03918L230.62128 445.10418L228.20228 447.28718L221.71228 447.28718L220.88628 448.52618L220.88628 463.04018L224.95728 469.23518L229.26428 464.22018" />
    <g
       id="text3136"
       style="font-size:40px;font-style:normal;font-weight:normal;line-height:125%;letter-spacing:0px;word-spacing:0px;fill:#000000;fill-opacity:1;stroke:none;font-family:Sans">
      <path
         id="path3141"
         style="font-variant:normal;font-stretch:normal;font-family:American Typewriter;-inkscape-font-specification:American Typewriter"
         d="m 241.89692,469.17402 c -0.69333,0 -1.28,-0.24 -1.76,-0.72 -0.48,-0.50667 -0.72,-1.10667 -0.72,-1.8 0,-0.69333 0.24,-1.28 0.72,-1.76 0.48,-0.50666 1.06667,-0.76 1.76,-0.76 0.69333,0 1.28,0.25334 1.76,0.76 0.48,0.48 0.72,1.06667 0.72,1.76 0,0.69333 -0.24,1.29333 -0.72,1.8 -0.48,0.48 -1.06667,0.72 -1.76,0.72" />
    </g>
  </g>
</svg>
