<?xml version="1.0" encoding="UTF-8" standalone="no"?>
<!-- Created with Inkscape (http://www.inkscape.org/) -->

<svg
   xmlns:dc="http://purl.org/dc/elements/1.1/"
   xmlns:cc="http://creativecommons.org/ns#"
   xmlns:rdf="http://www.w3.org/1999/02/22-rdf-syntax-ns#"
   xmlns:svg="http://www.w3.org/2000/svg"
   xmlns="http://www.w3.org/2000/svg"
   xmlns:sodipodi="http://sodipodi.sourceforge.net/DTD/sodipodi-0.dtd"
   xmlns:inkscape="http://www.inkscape.org/namespaces/inkscape"
   width="800"
   height="480"
   id="svg2"
   version="1.1"
   inkscape:version="0.48.2 r9819"
   sodipodi:docname="hand.svg">
  <sodipodi:namedview
     id="base"
     pagecolor="#ffffff"
     bordercolor="#666666"
     borderopacity="1.0"
     inkscape:pageopacity="0.0"
     inkscape:pageshadow="2"
     inkscape:zoom="1.4"
     inkscape:cx="458.54294"
     inkscape:cy="181.06006"
     inkscape:document-units="px"
     inkscape:current-layer="layer1"
     showgrid="false"
     inkscape:window-width="1857"
     inkscape:window-height="1036"
     inkscape:window-x="63"
     inkscape:window-y="22"
     inkscape:window-maximized="0"
     showguides="true"
     inkscape:guide-bbox="true" />
  <defs
     id="defs4" />
  <metadata
     id="metadata7">
    <rdf:RDF>
      <cc:Work
         rdf:about="">
        <dc:format>image/svg+xml</dc:format>
        <dc:type
           rdf:resource="http://purl.org/dc/dcmitype/StillImage" />
        <dc:title />
      </cc:Work>
    </rdf:RDF>
  </metadata>
  <g
     id="layer1"
     inkscape:groupmode="layer"
     inkscape:label="Layer 1">
    <path
       style="fill:#00112b;stroke:none"
       d="M216.50007 464.34263L221.55084 512.32488L179.12443 511.31472L151.85031 476.46446L195.79195 464.84771L216.50007 464.34263"
       id="path3114"
       inkscape:connector-curvature="0" />
    <path
       style="fill:#803300;stroke:none"
       d="M208.92393 465.85786L235.5667 433.0279L227.61176 404.61736L198.82241 431.51268L208.92393 465.85786"
       id="path3106"
       inkscape:connector-curvature="0"
       sodipodi:nodetypes="ccccc" />
    <path
       inkscape:connector-curvature="0"
       id="path3015"
       d="M597.70438 479.6471L566.1475 456.18504L557.40763 435.59148L575.61637 434.39266L598.37198 444.23267L614.09856 440.30106L614.09856 426.366L596.88467 406.69298L610.24509 394.08148L633.35762 405.22706L639.72001 397.48119L649.06385 401.46715L657.25167 401.59047L670.95361 408.03732L679.09878 425.74363L686.34104 448.82883L693.61034 491.12303L610.81972 496.86099L597.70438 479.6471L597.70438 479.6471"
       style="fill:#000080;stroke:none" />
    <path
       inkscape:connector-curvature="0"
       id="path3017"
       d="M671.47821 415.49893L652.66176 416.48959L634.03112 415.55089L619.59292 414.1285L629.25397 433.45828L632.95186 457.30408L594.15756 455.77755L594.05205 469.90184L621.02684 496.10719L634.18508 495.89363L690.33149 492.55161L681.5557 437.20434L671.47821 415.49893L671.47821 415.49893"
       style="fill:#808000;stroke:none" />
    <path
       style="fill:#000080;stroke:none"
       d="M160.43661 438.58374L131.14219 467.87816L135.1828 481.01015L206.90363 491.11167L207.68577 477.09478L228.25917 470.71758L222.05591 449.69542L186.70057 435.55328L160.43661 438.58374"
       id="path3108"
       inkscape:connector-curvature="0"
       sodipodi:nodetypes="ccccccccc" />
    <path
       style="fill:#808000;stroke:none"
       d="M146.29448 452.72588L147.30463 471.91877L185.69042 482.0203L188.72088 492.12183L134.17264 483.03045L125.08127 464.84771L146.29448 452.72588"
       id="path3110"
       inkscape:connector-curvature="0" />
    <path
       style="fill:#aa4400;stroke:none"
       d="M175.5889 377.46952L245.28942 355.75123L253.37064 378.98474L212.96454 420.401L175.5889 377.46952"
       id="path3104"
       inkscape:connector-curvature="0"
       sodipodi:nodetypes="ccccc" />
    <path
       style="fill:#00112b;stroke:none"
       d="M175.5889 462.32233L207.4087 457.77664L212.45946 449.19034L199.32748 441.10912L163.97214 450.2005L175.5889 462.32233"
       id="path3112"
       inkscape:connector-curvature="0" />
    <path
       style="fill:#d45500;stroke:none"
       d="M154.3757 467.87816L154.3757 442.62435L148.31478 410.29947L177.6092 376.96444L212.58574 419.76965L201.41522 449.7567L185.74119 458.88832L154.3757 467.87816"
       id="path3102"
       inkscape:connector-curvature="0"
       sodipodi:nodetypes="cccccccc" />
    <path
       style="opacity:0.20258622;fill:#ffffff;stroke:none"
       d="M633.36564 492.12183L615.1829 469.89847L622.25397 464.84771L642.45702 470.90863L653.5687 453.73603L670.74129 453.73603L688.92403 494.14214L633.36564 492.12183"
       id="path3975"
       inkscape:connector-curvature="0" />
    <path
       style="opacity:0.29310345;fill:#000000;stroke:none"
       d="M566.69558 453.73603L570.73619 444.64466L593.9697 448.68527L619.22351 444.64466L617.2032 425.45176L609.55092 408.03932L623.75958 408.82539L635.38595 408.27917L643.46717 404.23856L656.59915 407.26902L668.72098 408.27917L657.60931 402.21825L651.54839 402.21825L640.07957 398.65734L633.60549 406.85585L611.14229 395.14719L598.66857 407.03442L615.24943 426.52319L615.60132 440.8439L598.31668 444.94579L575.302 435.436L558.50232 436.15028L566.69558 453.73603"
       id="path3977"
       inkscape:connector-curvature="0"
       sodipodi:nodetypes="ccccccccccccccccccccccc" />
  </g>
</svg>
