<?xml version="1.0" encoding="UTF-8" standalone="no"?>
<!-- Created with Inkscape (http://www.inkscape.org/) -->

<svg
   xmlns:dc="http://purl.org/dc/elements/1.1/"
   xmlns:cc="http://creativecommons.org/ns#"
   xmlns:rdf="http://www.w3.org/1999/02/22-rdf-syntax-ns#"
   xmlns:svg="http://www.w3.org/2000/svg"
   xmlns="http://www.w3.org/2000/svg"
   xmlns:xlink="http://www.w3.org/1999/xlink"
   xmlns:sodipodi="http://sodipodi.sourceforge.net/DTD/sodipodi-0.dtd"
   xmlns:inkscape="http://www.inkscape.org/namespaces/inkscape"
   width="800"
   height="480"
   id="svg2"
   version="1.1"
   inkscape:version="0.48.2 r9819"
   sodipodi:docname="mission.svg">
  <defs
     id="defs4">
    <linearGradient
       id="linearGradient3785">
      <stop
         style="stop-color:#000000;stop-opacity:1;"
         offset="0"
         id="stop3787" />
      <stop
         style="stop-color:#ffabff;stop-opacity:1;"
         offset="1"
         id="stop3789" />
    </linearGradient>
    <linearGradient
       id="linearGradient3777">
      <stop
         style="stop-color:#000000;stop-opacity:1;"
         offset="0"
         id="stop3779" />
      <stop
         style="stop-color:#ffb1ff;stop-opacity:1;"
         offset="1"
         id="stop3781" />
    </linearGradient>
    <linearGradient
       id="linearGradient3769">
      <stop
         style="stop-color:#000000;stop-opacity:1;"
         offset="0"
         id="stop3771" />
      <stop
         style="stop-color:#ff99ff;stop-opacity:1;"
         offset="1"
         id="stop3773" />
    </linearGradient>
    <linearGradient
       id="linearGradient3761">
      <stop
         style="stop-color:#000000;stop-opacity:1;"
         offset="0"
         id="stop3763" />
      <stop
         style="stop-color:#ffb4ff;stop-opacity:1;"
         offset="1"
         id="stop3765" />
    </linearGradient>
    <linearGradient
       inkscape:collect="always"
       xlink:href="#linearGradient3761"
       id="linearGradient3767"
       x1="130.92857"
       y1="305.21933"
       x2="286.21429"
       y2="305.21933"
       gradientUnits="userSpaceOnUse"
       gradientTransform="matrix(0.55702916,0,0,0.55702916,208.57143,471.55414)" />
    <linearGradient
       inkscape:collect="always"
       xlink:href="#linearGradient3769"
       id="linearGradient3775"
       x1="170.92857"
       y1="762.005"
       x2="595.97821"
       y2="762.005"
       gradientUnits="userSpaceOnUse"
       gradientTransform="matrix(0.55702916,0,0,0.55702916,208.57143,471.55414)" />
    <linearGradient
       inkscape:collect="always"
       xlink:href="#linearGradient3777"
       id="linearGradient3783"
       x1="437.35715"
       y1="865.93359"
       x2="562.85706"
       y2="865.93359"
       gradientUnits="userSpaceOnUse"
       gradientTransform="matrix(0.55702916,0,0,0.55702916,208.57143,471.55414)" />
    <linearGradient
       inkscape:collect="always"
       xlink:href="#linearGradient3785"
       id="linearGradient3791"
       x1="239.5"
       y1="314.75851"
       x2="460.86707"
       y2="314.75851"
       gradientUnits="userSpaceOnUse"
       gradientTransform="matrix(0.55702916,0,0,0.55702916,208.57143,471.55414)" />
    <linearGradient
       inkscape:collect="always"
       xlink:href="#linearGradient3777"
       id="linearGradient3012"
       gradientUnits="userSpaceOnUse"
       gradientTransform="matrix(0.55702916,0,0,0.55702916,208.57143,471.55414)"
       x1="437.35715"
       y1="865.93359"
       x2="562.85706"
       y2="865.93359" />
    <linearGradient
       inkscape:collect="always"
       xlink:href="#linearGradient3761"
       id="linearGradient3014"
       gradientUnits="userSpaceOnUse"
       gradientTransform="matrix(0.55702916,0,0,0.55702916,208.57143,471.55414)"
       x1="130.92857"
       y1="305.21933"
       x2="286.21429"
       y2="305.21933" />
    <linearGradient
       inkscape:collect="always"
       xlink:href="#linearGradient3769"
       id="linearGradient3016"
       gradientUnits="userSpaceOnUse"
       gradientTransform="matrix(0.55702916,0,0,0.55702916,208.57143,471.55414)"
       x1="170.92857"
       y1="762.005"
       x2="595.97821"
       y2="762.005" />
    <linearGradient
       inkscape:collect="always"
       xlink:href="#linearGradient3785"
       id="linearGradient3018"
       gradientUnits="userSpaceOnUse"
       gradientTransform="matrix(0.55702916,0,0,0.55702916,208.57143,471.55414)"
       x1="239.5"
       y1="314.75851"
       x2="460.86707"
       y2="314.75851" />
    <linearGradient
       inkscape:collect="always"
       xlink:href="#linearGradient3785"
       id="linearGradient3022"
       gradientUnits="userSpaceOnUse"
       gradientTransform="matrix(0.55702916,0,0,0.55702916,28.57143,28.696988)"
       x1="239.5"
       y1="314.75851"
       x2="460.86707"
       y2="314.75851" />
    <linearGradient
       inkscape:collect="always"
       xlink:href="#linearGradient3769"
       id="linearGradient3025"
       gradientUnits="userSpaceOnUse"
       gradientTransform="matrix(0.55702916,0,0,0.55702916,28.57143,28.696988)"
       x1="170.92857"
       y1="762.005"
       x2="595.97821"
       y2="762.005" />
    <linearGradient
       inkscape:collect="always"
       xlink:href="#linearGradient3761"
       id="linearGradient3028"
       gradientUnits="userSpaceOnUse"
       gradientTransform="matrix(0.55702916,0,0,0.55702916,28.57143,28.696988)"
       x1="130.92857"
       y1="305.21933"
       x2="286.21429"
       y2="305.21933" />
    <linearGradient
       inkscape:collect="always"
       xlink:href="#linearGradient3777"
       id="linearGradient3031"
       gradientUnits="userSpaceOnUse"
       gradientTransform="matrix(0.55702916,0,0,0.55702916,28.57143,28.696988)"
       x1="437.35715"
       y1="865.93359"
       x2="562.85706"
       y2="865.93359" />
  </defs>
  <sodipodi:namedview
     id="base"
     pagecolor="#ffffff"
     bordercolor="#666666"
     borderopacity="1.0"
     inkscape:pageopacity="0.0"
     inkscape:pageshadow="2"
     inkscape:zoom="0.35"
     inkscape:cx="-205.27264"
     inkscape:cy="581.79473"
     inkscape:document-units="px"
     inkscape:current-layer="layer1"
     showgrid="false"
     inkscape:window-width="1360"
     inkscape:window-height="693"
     inkscape:window-x="0"
     inkscape:window-y="24"
     inkscape:window-maximized="1" />
  <metadata
     id="metadata7">
    <rdf:RDF>
      <cc:Work
         rdf:about="">
        <dc:format>image/svg+xml</dc:format>
        <dc:type
           rdf:resource="http://purl.org/dc/dcmitype/StillImage" />
        <dc:title />
      </cc:Work>
    </rdf:RDF>
  </metadata>
  <g
     inkscape:label="Layer 1"
     inkscape:groupmode="layer"
     id="layer1"
     transform="translate(0,-572.36218)">
    <rect
       style="fill:#ffffff;fill-opacity:1;stroke:none"
       id="rect3004"
       width="415.38461"
       height="588.85938"
       x="28.571426"
       y="29.217058" />
    <path
       style="fill:url(#linearGradient3031);fill-opacity:1;stroke:none"
       d="m 337.32475,433.46105 -3.58091,31.03448 c 7.56937,57.85495 9.80464,99.17411 6.76393,124.13791 L 272.47064,462.10827 z"
       id="path2991"
       inkscape:connector-curvature="0"
       sodipodi:nodetypes="ccccc" />
    <path
       style="fill:url(#linearGradient3028);fill-opacity:1;stroke:none"
       d="m 173.39902,18.076458 c -3.04655,43.137556 -0.54871,87.661232 -11.14058,128.912462 l 25.46419,140.05304 -62.06898,92.30769 -23.87268,-117.77187 c 3.25927,-29.95008 -0.67184,-50.21975 3.97879,-85.94165 l 7.95756,-33.42175 c -8.16209,-9.46597 -10.13467,-36.70476 -11.93635,-65.251976 2.99683,-14.50981 2.78492,-32.22836 9.54908,-42.970826 l 1.59151,-12.7321 z"
       id="path2983"
       inkscape:connector-curvature="0"
       sodipodi:nodetypes="ccccccccccc" />
    <path
       style="fill:url(#linearGradient3025);fill-opacity:1;stroke:none"
       d="m 184.53961,291.81649 c 17.9888,7.97463 57.5936,5.20663 67.24138,-1.19363 l -0.39788,12.7321 c 17.87713,8.64465 26.10145,11.3491 30.23872,11.53845 20.04625,2.31954 23.9846,8.02472 27.85146,7.16181 10.60672,11.86605 25.52243,29.01145 27.85146,55.70292 12.71644,9.8065 16.13141,14.96225 20.68965,20.68965 5.28925,12.73209 2.95706,25.46419 -25.46419,38.19629 -50.17694,31.76775 -30.33105,70.74899 -14.3236,91.51193 l 31.83023,87.53313 -224.40319,-1.5915 c 10.99675,-28.8763 20.48354,-50.1613 36.52927,-74.86271 26.74473,-41.17192 25.03653,-76.14722 -19.32576,-139.0745 -2.6845,-3.80793 -13.73458,-11.45187 -18.79502,-23.99381 z"
       id="path2985"
       inkscape:connector-curvature="0"
       sodipodi:nodetypes="cccccccccccsscc" />
    <path
       style="fill:url(#linearGradient3022);fill-opacity:1;stroke:none"
       d="m 162.25844,146.19317 c 31.75899,-21.0125 60.87227,-21.12427 84.73066,-13.08865 7.99445,2.69256 15.16202,2.42591 30.44101,22.00386 3.79738,4.86583 10.91643,18.6453 5.78323,38.83014 l -36.60477,78.77983 -12.73209,7.1618 -34.61539,-7.1618 -15.51724,-10.34482 z"
       id="path2987"
       inkscape:connector-curvature="0"
       sodipodi:nodetypes="csscccccc" />
    <path
       style="opacity:0.53138075;fill:#ffaaaa;fill-opacity:1;stroke:none"
       d="m 284.0091,190.7555 c -3.01847,-9.13106 -4.69818,-18.52986 -12.73209,-26.65782 -21.22016,0 -36.6223,-3.49082 -63.66048,0 -9.02382,-1.87387 -18.9755,16.66506 -29.0451,37.7984 0.33712,11.75288 4.73986,25.13202 10.34483,38.99204 7.75834,10.80948 15.406,21.80345 26.25995,27.45358 l 19.09814,9.54906 14.32361,-6.76392 7.95756,-2.78514 c 30.99871,-25.86207 29.68008,-51.72413 27.45358,-77.5862 z"
       id="path2989"
       inkscape:connector-curvature="0"
       sodipodi:nodetypes="cccccccccc" />
  </g>
</svg>
