<?xml version="1.0" encoding="UTF-8" standalone="no"?>
<!-- Created with Inkscape (http://www.inkscape.org/) -->

<svg
   xmlns:dc="http://purl.org/dc/elements/1.1/"
   xmlns:cc="http://creativecommons.org/ns#"
   xmlns:rdf="http://www.w3.org/1999/02/22-rdf-syntax-ns#"
   xmlns:svg="http://www.w3.org/2000/svg"
   xmlns="http://www.w3.org/2000/svg"
   xmlns:sodipodi="http://sodipodi.sourceforge.net/DTD/sodipodi-0.dtd"
   xmlns:inkscape="http://www.inkscape.org/namespaces/inkscape"
   sodipodi:docname="teste.svg"
   inkscape:version="0.48.2 r9819"
   version="1.1"
   id="svg2"
   height="480"
   width="800">
  <sodipodi:namedview
     id="base"
     pagecolor="#ffffff"
     bordercolor="#666666"
     borderopacity="1.0"
     inkscape:pageopacity="0.0"
     inkscape:pageshadow="2"
     inkscape:zoom="0.7"
     inkscape:cx="390.08377"
     inkscape:cy="208.74854"
     inkscape:document-units="px"
     inkscape:current-layer="layer1"
     showgrid="false"
     inkscape:window-width="1360"
     inkscape:window-height="693"
     inkscape:window-x="0"
     inkscape:window-y="24"
     inkscape:window-maximized="1"
     showguides="true"
     inkscape:guide-bbox="true" />
  <defs
     id="defs4" />
  <metadata
     id="metadata7">
    <rdf:RDF>
      <cc:Work
         rdf:about="">
        <dc:format>image/svg+xml</dc:format>
        <dc:type
           rdf:resource="http://purl.org/dc/dcmitype/StillImage" />
        <dc:title />
      </cc:Work>
    </rdf:RDF>
  </metadata>
  <g
     transform="translate(0,-572.36218)"
     inkscape:label="Layer 1"
     inkscape:groupmode="layer"
     id="layer1">
    <path
       inkscape:connector-curvature="0"
       style="fill:#f2f2f2;fill-opacity:1;stroke:none"
       d="m 0,569.50927 808.12201,0 0,496.99503 -808.12201,0 z"
       id="rect3028" />
    <path
       inkscape:connector-curvature="0"
       id="path3081"
       d="m 112.11844,1043.6741 c 0,0 11.1385,-37.5805 11.1385,-37.5805 0,0 0.78199,-3.5165 0.78199,-3.5165 0,0 -0.11283,-4.1351 -0.11283,-4.1351 0,0 -9.53234,-13.38333 -9.53234,-13.38333 l -5.13455,-4.33043 -3.03697,-9.27949 c 0,0 -3.51172,-10.07721 -3.51172,-10.07721 0,0 -5.996269,-2.87366 -5.996269,-2.87366 0,0 -13.781672,-9.28209 -13.781672,-9.28209 0,0 -14.578273,-23.30512 -14.578273,-23.30512 0,0 1.352908,-16.9595 1.352908,-16.9595 0,0 29.736527,-34.62775 29.736527,-34.62775 0,0 25.017199,-31.79739 25.017199,-31.79739 0,0 -0.55701,-1.81579 -0.55701,-1.81579 0,0 -8.47507,-9.16884 -8.47507,-9.16884 0,0 -5.03973,-33.62004 -5.03973,-33.62004 0,0 4.48327,-15.29026 4.48327,-15.29026 0,0 20.02769,-14.93945 20.02769,-14.93945 0,0 11.91538,-3.07709 11.91538,-3.07709 0,0 8.44292,1.08261 8.44292,1.08261 0,0 1.49278,6.3972 1.49278,6.3972 0,0 8.92159,35.19325 8.92159,35.19325 0,0 24.90453,36.41348 24.90453,36.41348 0,0 1.52028,-16.08445 1.52028,-16.08445 0,0 -1.41675,-47.63471 -1.41675,-47.63471 0,0 6.6169,7.4493 6.6169,7.4493 0,0 13.7295,14.25983 13.7295,14.25983 0,0 5.50955,1.21859 5.50955,1.21859 0,0 9.52072,-0.61974 9.52072,-0.61974 0,0 44.47985,-18.34583 44.47985,-18.34583 0,0 2.70053,-0.78121 2.70053,-0.78121 0,0 -1.70874,7.10266 -1.70874,7.10266 0,0 -9.46483,36.03075 -9.46483,36.03075 0,0 -1.4721,20.18866 -1.4721,20.18866 0,0 3.68347,20.84192 3.68347,20.84192 0,0 2.14787,-7.41399 2.14787,-7.41399 0,0 9.36261,-28.25574 9.36261,-28.25574 0,0 15.40868,-19.1249 15.40868,-19.1249 0,0 8.14778,-9.03022 8.14778,-9.03022 0,0 2.58844,-2.48657 2.58844,-2.48657 0,0 6.10388,3.74756 6.10388,3.74756 0,0 19.37685,8.64243 19.37685,8.64243 0,0 54.7771,44.52421 54.7771,44.52421 0,0 8.256,22.5801 8.256,22.5801 0,0 7.54051,22.25609 7.54051,22.25609 0,0 13.57916,24.50293 13.57916,24.50293 0,0 0.82637,58.66034 0.82637,58.66034 l -0.18184,57.68019 -2.49403,-3.1481 c 0,0 -20.96379,-28.8013 -20.96379,-28.8013 0,0 -5.00364,-8.3516 -5.00364,-8.3516 0,0 -2.0481,-3.71176 -2.0481,-3.71176 0,0 -8.81791,-4.94906 -8.81791,-4.94906 0,0 -28.46974,-14.58612 -28.46974,-14.58612 0,0 -34.45835,-36.59913 -34.45835,-36.59913 0,0 -4.40512,-5.08941 -4.40512,-5.08941 0,0 -19.35529,33.20401 -19.35529,33.20401 0,0 -1.53101,22.981 -1.53101,22.981 0,0 9.6146,4.60016 9.6146,4.60016 0,0 19.23973,8.96481 19.23973,8.96481 0,0 29.17235,19.8518 29.17235,19.8518 0,0 11.44484,16.5232 11.44484,16.5232 0,0 -101.18669,0.2589 -101.18669,0.2589 0,0 -101.1867,-0.6186 -101.1867,-0.6186 0,0 -0.75464,-0.6187 -0.75464,-0.6187 0,0 -0.31423,0.6187 -0.31423,0.6187 0,0 -19.24569,0.6186 -19.24569,0.6186 0,0 -19.32723,-1.0826 -19.32723,-1.0826 z"
       style="fill:#008080" />
    <path
       inkscape:connector-curvature="0"
       id="path3079"
       d="m 254.89465,726.08413 c 0,0 1.27775,-0.42239 1.27775,-0.42239 0,0 -0.87885,0.7687 -0.87885,0.7687 0,0 -0.3989,-0.34631 -0.3989,-0.34631 z"
       style="fill:#350845" />
    <path
       inkscape:connector-curvature="0"
       id="path3077"
       d="m 261.14162,725.51845 c 0,0 7.83841,-0.43672 7.83841,-0.43672 l 3.56291,0.0238 -4.27549,0.46054 c 0,0 -7.83841,0.43673 -7.83841,0.43673 l -3.56291,-0.0238 4.27549,-0.46054 z"
       style="fill:#350845" />
    <path
       inkscape:connector-curvature="0"
       id="path3002"
       d="m 186.38698,722.38024 c 0,0 -5.30087,-3.51108 -5.30087,-3.51108 0,0 1.25804,-0.71284 1.25804,-0.71284 0,0 6.47037,5.75772 6.47037,5.75772 0,0 -2.42754,-1.5338 -2.42754,-1.5338 z"
       style="fill:#350845" />
    <path
       inkscape:connector-curvature="0"
       id="path3005"
       d="m 118.7627,1043.3648 c 0,0 1.35846,-3.3413 1.35846,-3.3413 0,0 0.99803,-2.863 0.99803,-2.863 0,0 1.06888,-3.1344 1.06888,-3.1344 0,0 1.06887,-4.2993 1.06887,-4.2993 0,0 1.85906,-6.0504 1.85906,-6.0504 0,0 1.60331,-10.1595 1.60331,-10.1595 0,0 0.37704,-6.4968 0.37704,-6.4968 0,0 10.75341,16.485 10.75341,16.485 0,0 11.63521,19.023 11.63521,19.023 l 1.51462,2.2286 -16.29866,0 -16.29864,0 0.36041,-1.3919 z"
       style="fill:#000080" />
    <path
       inkscape:connector-curvature="0"
       id="path3003"
       d="m 168.85994,1044.2927 c 0,0 -3.16807,-0.4793 -3.16807,-0.4793 0,0 -4.98581,-1.4997 -4.98581,-1.4997 0,0 -1.82,-2.0915 -1.82,-2.0915 0,0 -1.78146,-2.6347 -1.78146,-2.6347 0,0 -1.78146,-2.4745 -1.78146,-2.4745 0,0 -1.78145,-2.4746 -1.78145,-2.4746 0,0 -1.78146,-2.4745 -1.78146,-2.4745 0,0 -1.78145,-2.4745 -1.78145,-2.4745 0,0 -1.78146,-2.4746 -1.78146,-2.4746 0,0 -1.62402,-2.3612 -1.62402,-2.3612 0,0 -3.32379,-4.8614 -3.32379,-4.8614 0,0 -2.65147,-3.6329 -2.65147,-3.6329 0,0 -0.95171,-1.3249 -0.95171,-1.3249 0,0 -1.78145,-2.6668 -1.78145,-2.6668 0,0 -1.78146,-2.4745 -1.78146,-2.4745 0,0 -1.78145,-2.4745 -1.78145,-2.4745 0,0 -1.78146,-2.4746 -1.78146,-2.4746 0,0 -1.62403,-2.3611 -1.62403,-2.3611 0,0 -3.32379,-4.86149 -3.32379,-4.86149 0,0 -2.65147,-3.63288 -2.65147,-3.63288 0,0 -0.9517,-1.46216 -0.9517,-1.46216 0,0 -1.05002,-1.533 -1.05002,-1.533 0,0 -1.50594,-2.86643 -1.50594,-2.86643 0,0 -1.13169,-2.47246 -1.13169,-2.47246 0,0 -1.37498,-1.69441 -1.37498,-1.69441 0,0 -3.25082,-4.82299 -3.25082,-4.82299 0,0 -1.3167,-2.38585 -1.3167,-2.38585 0,0 -2.22496,-3.29529 -2.22496,-3.29529 0,0 -0.95373,-4.1283 -0.95373,-4.1283 0,0 1.43374,-1.60645 1.43374,-1.60645 0,0 2.12011,-1.92805 2.12011,-1.92805 0,0 -1.45365,-6.00529 -1.45365,-6.00529 0,0 -14.501781,-5.55018 -14.501781,-5.55018 0,0 -13.326247,-7.31741 -13.326247,-7.31741 0,0 -5.643438,-10.6962 -5.643438,-10.6962 0,0 -3.468516,-6.68119 -3.468516,-6.68119 0,0 -2.120902,-6.5504 -2.120902,-6.5504 0,0 6.811147,-14.30112 6.811147,-14.30112 0,0 5.151458,-6.61734 5.151458,-6.61734 0,0 5.121544,-7.11428 5.121544,-7.11428 0,0 4.170061,-5.01872 4.170061,-5.01872 0,0 3.218642,-4.12878 3.218642,-4.12878 0,0 3.224672,-4.12878 3.224672,-4.12878 0,0 9.32573,-10.80099 9.32573,-10.80099 0,0 3.07475,-4.5156 3.07475,-4.5156 0,0 2.07771,-3.44162 2.07771,-3.44162 0,0 2.52145,-4.37199 2.52145,-4.37199 0,0 6.24883,-10.81198 6.24883,-10.81198 0,0 3.09903,-4.44482 3.09903,-4.44482 0,0 0.75228,-3.66301 0.75228,-3.66301 0,0 -3.94807,-8.26089 -3.94807,-8.26089 l -2.86116,-3.40248 -0.22797,-13.60992 c 0,0 5.42949,-24.51649 5.42949,-24.51649 0,0 13.68191,-10.95204 13.68191,-10.95204 0,0 7.48212,-2.84115 7.48212,-2.84115 0,0 8.69193,5.21283 8.69193,5.21283 0,0 14.98812,40.52044 14.98812,40.52044 0,0 18.34362,23.81736 18.34362,23.81736 0,0 1.52029,-16.08445 1.52029,-16.08445 0,0 -1.4312,-47.6137 -1.4312,-47.6137 0,0 6.69913,7.57825 6.69913,7.57825 l 6.05695,7.55724 0.127,10.12532 0.127,10.12532 2.36704,1.75821 c 0,0 4.86547,0.10727 4.86547,0.10727 0,0 0.91834,-3.24783 0.91834,-3.24783 0,0 2.2286,-4.63974 2.2286,-4.63974 0,0 7.56772,-6.13143 7.56772,-6.13143 0,0 25.7811,-7.85698 25.7811,-7.85698 0,0 15.20925,-7.40124 15.20925,-7.40124 0,0 10.99784,-4.58276 10.99784,-4.58276 0,0 -2.11103,6.95962 -2.11103,6.95962 0,0 -9.43649,35.94209 -9.43649,35.94209 0,0 -1.4721,20.18866 -1.4721,20.18866 0,0 3.68347,20.84192 3.68347,20.84192 0,0 2.14787,-7.41399 2.14787,-7.41399 0,0 9.34557,-28.2202 9.34557,-28.2202 0,0 11.49063,-15.13037 11.49063,-15.13037 0,0 6.97895,-2.28603 6.97895,-2.28603 0,0 3.11574,1.3087 3.11574,1.3087 0,0 2.97922,0.87574 2.97922,0.87574 0,0 9.61987,3.41871 9.61987,3.41871 0,0 21.02117,8.35577 21.02117,8.35577 0,0 6.41325,3.09405 6.41325,3.09405 0,0 6.30773,3.62494 6.30773,3.62494 0,0 2.10745,1.32332 2.10745,1.32332 0,0 4.94214,3.14902 4.94214,3.14902 0,0 5.68369,3.56419 5.68369,3.56419 0,0 13.38148,10.67506 13.38148,10.67506 0,0 1.35297,2.27837 1.35297,2.27837 0,0 1.78244,4.70722 1.78244,4.70722 0,0 1.45501,4.81576 1.45501,4.81576 0,0 1.8559,6.55778 1.8559,6.55778 0,0 1.7898,7.24757 1.7898,7.24757 0,0 2.10089,8.35154 2.10089,8.35154 0,0 1.84767,8.35154 1.84767,8.35154 0,0 2.3761,8.98497 2.3761,8.98497 0,0 3.33507,9.58881 3.33507,9.58881 0,0 22.8111,23.41615 22.8111,23.41615 l 1.6917,0.73215 0.18331,40.74961 0.18331,40.74965 -2.32106,-2.5437 c 0,0 -9.98131,-8.8051 -9.98131,-8.8051 0,0 -7.66026,-7.009 -7.66026,-7.009 0,0 -15.0654,-10.83599 -15.0654,-10.83599 0,0 -9.26357,-6.20356 -9.26357,-6.20356 0,0 -7.02466,-5.18239 -7.02466,-5.18239 0,0 -11.12538,-6.49094 -11.12538,-6.49094 0,0 -9.28438,-10.02901 -9.28438,-10.02901 0,0 -3.04087,-4.02111 -3.04087,-4.02111 0,0 -3.63375,-4.94906 -3.63375,-4.94906 0,0 -6.16519,-7.0465 -6.16519,-7.0465 0,0 -5.54449,-7.20677 -5.54449,-7.20677 0,0 -1.48569,-2.77272 -1.48569,-2.77272 0,0 -1.05002,-1.50091 -1.05002,-1.50091 0,0 -1.82748,-2.23484 -1.82748,-2.23484 0,0 -2.95673,-3.55642 -2.95673,-3.55642 0,0 -7.61422,-6.57478 -7.61422,-6.57478 0,0 -8.26646,-6.20587 -8.26646,-6.20587 0,0 -3.38477,-2.23469 -3.38477,-2.23469 0,0 -1.60331,-2.28517 -1.60331,-2.28517 0,0 -2.53164,-3.2322 -2.53164,-3.2322 0,0 -5.75621,3.97938 -5.75621,3.97938 0,0 -7.41384,9.30786 -7.41384,9.30786 0,0 2.29604,-2.42927 2.29604,-2.42927 0,0 2.47927,-2.81575 2.47927,-2.81575 0,0 13.3906,12.65966 13.3906,12.65966 0,0 4.07602,6.27605 4.07602,6.27605 0,0 2.01075,3.26192 2.01075,3.26192 0,0 -6.70415,11.97361 -6.70415,11.97361 0,0 -13.79271,38.14416 -13.79271,38.14416 0,0 3.02046,9.55172 3.02046,9.55172 0,0 4.16962,4.50949 4.16962,4.50949 0,0 7.625,5.6723 7.625,5.6723 0,0 9.02657,6.5075 9.02657,6.5075 0,0 5.65033,2.6162 5.65033,2.6162 0,0 16.2082,13.4811 16.2082,13.4811 0,0 5.23393,4.4487 5.23393,4.4487 0,0 8.84947,7.2533 8.84947,7.2533 0,0 -86.29208,1.0826 -86.29208,1.0826 0,0 -86.96239,-0.464 -86.96239,-0.464 z"
       style="fill:#ff5555" />
    <path
       inkscape:connector-curvature="0"
       id="path3001"
       d="m 233.37362,1002.0691 c 0,0 4.25279,-2.44564 4.25279,-2.44564 0,0 6.05695,-3.98009 6.05695,-3.98009 0,0 13.18277,-9.39262 13.18277,-9.39262 0,0 1.90584,-3.27408 1.90584,-3.27408 0,0 -0.20062,-3.17638 -0.20062,-3.17638 0,0 -0.63635,-1.59194 -0.63635,-1.59194 0,0 -1.04739,-1.39192 -1.04739,-1.39192 0,0 -8.97774,6.64264 -8.97774,6.64264 0,0 -13.38241,8.90395 -13.38241,8.90395 0,0 -13.29045,2.71504 -13.29045,2.71504 0,0 -29.57217,-1.9362 -29.57217,-1.9362 0,0 -6.41324,-3.97322 -6.41324,-3.97322 0,0 -6.64175,-5.3349 -6.64175,-5.3349 0,0 -7.54023,-8.90889 -7.54023,-8.90889 0,0 -2.67219,-3.36891 -2.67219,-3.36891 0,0 -1.74344,-10.51675 -1.74344,-10.51675 0,0 -0.53444,-12.14963 -0.53444,-12.14963 0,0 -2.73182,-3.94398 -2.73182,-3.94398 0,0 -3.92829,-0.20062 -3.92829,-0.20062 0,0 -1.79433,6.95712 -1.79433,6.95712 0,0 15.96684,39.64223 15.96684,39.64223 0,0 4.63181,3.36759 4.63181,3.36759 0,0 3.28676,1.79148 3.28676,1.79148 0,0 12.56834,4.35752 12.56834,4.35752 0,0 3.21101,0.6404 3.21101,0.6404 0,0 7.51776,0.9141 7.51776,0.9141 0,0 28.52599,-0.3463 28.52599,-0.3463 z"
       style="fill:#800080" />
    <path
       inkscape:connector-curvature="0"
       id="path2998"
       d="m 152.84732,943.0371 c 0,0 4.89969,-8.47493 4.89969,-8.47493 0,0 4.85049,-9.78736 4.85049,-9.78736 0,0 7.80962,-16.08445 7.80962,-16.08445 0,0 7.68085,-15.80796 7.68085,-15.80796 0,0 10.27184,-22.88941 10.27184,-22.88941 0,0 1.96231,-7.18436 1.96231,-7.18436 0,0 -0.51166,-6.48371 -0.51166,-6.48371 0,0 -9.23965,-3.68648 -9.23965,-3.68648 0,0 -6.71004,6.90161 -6.71004,6.90161 0,0 -10.37824,25.40808 -10.37824,25.40808 0,0 -7.48138,15.46582 -7.48138,15.46582 0,0 -7.48537,15.47014 -7.48537,15.47014 0,0 -9.58203,21.25897 -9.58203,21.25897 0,0 4.42697,6.49184 4.42697,6.49184 0,0 9.4866,-0.5978 9.4866,-0.5978 z"
       style="fill:#0000ff" />
    <path
       inkscape:connector-curvature="0"
       id="path2996"
       d="m 410.13916,1040.4263 -1.86299,-3.0932 2.14461,0 c 0,0 2.1446,3.0932 2.1446,3.0932 0,0 -0.28161,3.0931 -0.28161,3.0931 0,0 -2.14461,-3.0931 -2.14461,-3.0931 z"
       style="fill:#1a191b" />
    <path
       inkscape:connector-curvature="0"
       id="path2994"
       d="m 254.89465,726.08413 c 0,0 1.27775,-0.42239 1.27775,-0.42239 0,0 -0.87885,0.7687 -0.87885,0.7687 0,0 -0.3989,-0.34631 -0.3989,-0.34631 z"
       style="fill:#1a191b" />
    <path
       inkscape:connector-curvature="0"
       id="path2992"
       d="m 261.14162,725.51845 c 0,0 7.83841,-0.43672 7.83841,-0.43672 l 3.56291,0.0238 -4.27549,0.46054 c 0,0 -7.83841,0.43673 -7.83841,0.43673 l -3.56291,-0.0238 4.27549,-0.46054 z"
       style="fill:#677821" />
    <path
       inkscape:connector-curvature="0"
       id="path3000"
       d="m 186.38698,722.38024 c 0,0 -5.30087,-3.51108 -5.30087,-3.51108 0,0 1.23839,-0.72018 1.23839,-0.72018 0,0 5.03991,3.4744 5.03991,3.4744 0,0 0.89116,2.68162 0.89116,2.68162 0,0 -1.86859,-1.92476 -1.86859,-1.92476 z"
       style="fill:#d35f5f" />
  </g>
</svg>
