<?xml version="1.0" encoding="UTF-8" standalone="no"?>
<!-- Created with Inkscape (http://www.inkscape.org/) -->

<svg
   xmlns:dc="http://purl.org/dc/elements/1.1/"
   xmlns:cc="http://creativecommons.org/ns#"
   xmlns:rdf="http://www.w3.org/1999/02/22-rdf-syntax-ns#"
   xmlns:svg="http://www.w3.org/2000/svg"
   xmlns="http://www.w3.org/2000/svg"
   xmlns:sodipodi="http://sodipodi.sourceforge.net/DTD/sodipodi-0.dtd"
   xmlns:inkscape="http://www.inkscape.org/namespaces/inkscape"
   width="744.09448819"
   height="1052.3622047"
   id="svg2"
   version="1.1"
   inkscape:version="0.48.4 r9943 custom"
   sodipodi:docname="intro3.svg">
  <defs
     id="defs4" />
  <sodipodi:namedview
     id="base"
     pagecolor="#ffffff"
     bordercolor="#666666"
     borderopacity="1.0"
     inkscape:pageopacity="0.0"
     inkscape:pageshadow="2"
     inkscape:zoom="0.7"
     inkscape:cx="535.79248"
     inkscape:cy="749.20768"
     inkscape:document-units="px"
     inkscape:current-layer="layer1"
     showgrid="false"
     inkscape:window-width="1859"
     inkscape:window-height="1036"
     inkscape:window-x="61"
     inkscape:window-y="22"
     inkscape:window-maximized="0"
     showguides="true"
     inkscape:guide-bbox="true" />
  <metadata
     id="metadata7">
    <rdf:RDF>
      <cc:Work
         rdf:about="">
        <dc:format>image/svg+xml</dc:format>
        <dc:type
           rdf:resource="http://purl.org/dc/dcmitype/StillImage" />
        <dc:title />
      </cc:Work>
    </rdf:RDF>
  </metadata>
  <g
     inkscape:label="Layer 1"
     inkscape:groupmode="layer"
     id="layer1">
    <rect
       style="fill:#008000;fill-opacity:1;fill-rule:nonzero;stroke:none"
       id="rect3014"
       width="900"
       height="420"
       x="0.64996892"
       y="0.21932557" />
    <rect
       style="fill:#000000;fill-opacity:1;fill-rule:nonzero;stroke:none"
       id="rect3790"
       width="404.06104"
       height="377.56793"
       x="26.03266"
       y="23.640408" />
    <path
       style="fill:#c8b7b7;stroke:none"
       d="M 105.07719,58.409264 123.19406,57.322744 186.32861,306.68056 96.842256,309.39687 z"
       id="path3000"
       inkscape:connector-curvature="0" />
    <path
       style="fill:#c8c4b7;stroke:none"
       d="M 106.17518,57.322744 109.46916,285.49329 168.76071,284.40677 122.64506,56.236214 z"
       id="path3806"
       inkscape:connector-curvature="0" />
    <path
       style="fill:#916f6f;stroke:none"
       d="M 102.33222,143.15832 79.274376,165.97538 96.293256,271.36845 z"
       id="path3002"
       inkscape:connector-curvature="0" />
    <path
       style="fill:#6c5353;stroke:none"
       d="M 144.60491,138.26896 168.21171,153.48032 187.97561,308.31035 z"
       id="path3004"
       inkscape:connector-curvature="0" />
    <path
       style="fill:#ac9d93;stroke:none"
       d="M 33.707706,95.894423 51.275596,104.04337 70.490436,346.88203 48.530596,364.80973 50.726596,404.46794 30.962726,403.92467 26.570766,35.592214 37.001686,39.395054 z"
       id="path3014"
       inkscape:connector-curvature="0"
       sodipodi:nodetypes="ccccccccc" />
    <path
       style="fill:#483e37;stroke:none"
       d="M 107.27318,59.495794 122.64506,57.322744 114.95911,105.1299 z"
       id="path3792"
       inkscape:connector-curvature="0" />
    <path
       style="fill:#000000;stroke:none"
       d="M 107.27318,86.658953 124.29205,82.856124 135.82096,110.01926 126.48803,102.41358 107.82217,103.50011 104.52819,117.08169 z"
       id="path3794"
       inkscape:connector-curvature="0" />
    <path
       style="fill:#918a6f;stroke:none"
       d="M 172.05471,158.3697 196.21051,167.60516 187.42661,306.68056 z"
       id="path3796"
       inkscape:connector-curvature="0" />
    <path
       style="fill:#aca793;stroke:none"
       d="M 198.40641,170.86474 205.54341,171.95127 189.62251,303.96424 z"
       id="path3798"
       inkscape:connector-curvature="0" />
    <path
       style="fill:#ffccaa;stroke:none"
       d="M 58.961526,171.40801 66.098476,173.58107 72.137426,245.83507 62.255496,249.09465 z"
       id="path3800"
       inkscape:connector-curvature="0" />
    <path
       style="fill:#d45500;stroke:none"
       d="M 100.13622,188.24919 81.470366,190.42224 82.568346,212.15276 99.038226,213.78254 z"
       id="path3802"
       inkscape:connector-curvature="0" />
    <path
       style="fill:#00ffff;stroke:none"
       d="M 100.13622,309.94015 111.11615,285.49329 168.76071,283.8635 186.87751,306.68056 z"
       id="path3804"
       inkscape:connector-curvature="0" />
    <rect
       y="23.660717"
       x="464.43884"
       height="377.56793"
       width="404.06104"
       id="rect3784"
       style="fill:#000000;fill-opacity:1;fill-rule:nonzero;stroke:none" />
    <path
       inkscape:connector-curvature="0"
       id="path3786"
       d="M 543.48341,58.429574 561.60031,57.343054 624.73491,306.70087 535.24851,309.41718 z"
       style="fill:#c8b7b7;stroke:none" />
    <path
       inkscape:connector-curvature="0"
       id="path3788"
       d="M 544.58141,57.343054 547.87541,285.5136 607.16701,284.42708 561.05131,56.256524 z"
       style="fill:#c8c4b7;stroke:none" />
    <path
       inkscape:connector-curvature="0"
       id="path3790"
       d="M 540.73851,143.17863 517.68061,165.99569 534.69951,271.38876 z"
       style="fill:#916f6f;stroke:none" />
    <path
       inkscape:connector-curvature="0"
       id="path3793"
       d="M 583.01121,138.28927 606.61801,153.50063 626.38191,308.33066 z"
       style="fill:#6c5353;stroke:none" />
    <path
       sodipodi:nodetypes="ccccccccc"
       inkscape:connector-curvature="0"
       id="path3795"
       d="M 472.11401,95.914733 489.68191,104.06368 508.89671,346.90234 486.93691,364.83004 489.13291,404.48825 469.36901,403.94498 464.97701,35.612524 475.40791,39.415364 z"
       style="fill:#ac9d93;stroke:none" />
    <path
       inkscape:connector-curvature="0"
       id="path3797"
       d="M 545.67941,59.516104 561.05131,57.343054 553.36541,105.15021 z"
       style="fill:#483e37;stroke:none" />
    <path
       inkscape:connector-curvature="0"
       id="path3799"
       d="M 545.67941,86.679263 562.69831,82.876433 574.22721,110.03957 564.89431,102.43389 546.22841,103.52042 542.93441,117.102 z"
       style="fill:#000000;stroke:none" />
    <path
       inkscape:connector-curvature="0"
       id="path3801"
       d="M 610.46101,158.39001 634.61681,167.62547 625.83291,306.70087 z"
       style="fill:#918a6f;stroke:none" />
    <path
       inkscape:connector-curvature="0"
       id="path3803"
       d="M 636.81271,170.88505 643.94971,171.97158 628.02881,303.98455 z"
       style="fill:#aca793;stroke:none" />
    <path
       inkscape:connector-curvature="0"
       id="path3805"
       d="M 497.36781,171.42832 504.50471,173.60138 510.54371,245.85538 500.66181,249.11496 z"
       style="fill:#ffccaa;stroke:none" />
    <path
       inkscape:connector-curvature="0"
       id="path3807"
       d="M 538.54251,188.2695 519.87661,190.44255 520.97461,212.17307 537.44451,213.80285 z"
       style="fill:#d45500;stroke:none" />
    <path
       inkscape:connector-curvature="0"
       id="path3809"
       d="M 538.54251,309.96046 549.52241,285.5136 607.16701,283.88381 625.28381,306.70087 z"
       style="fill:#00ffff;stroke:none" />
  </g>
</svg>
