<?xml version="1.0" encoding="UTF-8" standalone="no"?>
<svg
   xmlns:dc="http://purl.org/dc/elements/1.1/"
   xmlns:cc="http://creativecommons.org/ns#"
   xmlns:rdf="http://www.w3.org/1999/02/22-rdf-syntax-ns#"
   xmlns:svg="http://www.w3.org/2000/svg"
   xmlns="http://www.w3.org/2000/svg"
   xmlns:sodipodi="http://sodipodi.sourceforge.net/DTD/sodipodi-0.dtd"
   xmlns:inkscape="http://www.inkscape.org/namespaces/inkscape"
   id="svg2985"
   version="1.1"
   inkscape:version="0.48.4 r9943 custom"
   width="100%"
   height="100%"
   sodipodi:docname="floor2.svg">
  <sodipodi:namedview
     pagecolor="#ffffff"
     bordercolor="#666666"
     borderopacity="1"
     objecttolerance="10"
     gridtolerance="10"
     guidetolerance="10"
     inkscape:pageopacity="0"
     inkscape:pageshadow="2"
     inkscape:window-width="1860"
     inkscape:window-height="1036"
     id="namedview3036"
     showgrid="false"
     inkscape:zoom="2.8284271"
     inkscape:cx="473.89679"
     inkscape:cy="834.85727"
     inkscape:window-x="60"
     inkscape:window-y="22"
     inkscape:window-maximized="0"
     inkscape:current-layer="svg2985" />
  <metadata
     id="metadata3040">
    <rdf:RDF>
      <cc:Work
         rdf:about="">
        <dc:format>image/svg+xml</dc:format>
        <dc:type
           rdf:resource="http://purl.org/dc/dcmitype/StillImage" />
      </cc:Work>
    </rdf:RDF>
  </metadata>
  <defs
     id="defs3038">
    <linearGradient
       id="linearGradient3061">
      <stop
         style="stop-color:#483737;stop-opacity:1;"
         offset="0"
         id="stop3063" />
      <stop
         style="stop-color:#ffffff;stop-opacity:1;"
         offset="1"
         id="stop3065" />
    </linearGradient>
  </defs>
  <path
     id="control room-entry"
     d="M 253.3383,450.61071 296.82585,450.61071 296.82585,384.87945 253.3383,384.87945 253.3383,450.61071"
     style="fill:#a3a281;stroke:none"
     inkscape:connector-curvature="0" />
  <path
     style="fill:#28170b;fill-opacity:1;fill-rule:nonzero;stroke:none"
     d="M 214.74823,435.55472 402.70136,435.55472 402.70136,522.5089 214.74823,522.5089 214.74823,435.55472"
     id="control room-walls"
     inkscape:connector-curvature="0" />
  <path
     inkscape:connector-curvature="0"
     style="fill:#ac9393;stroke:none"
     d="M 157.80968,178.11894 220.08117,178.11894 220.08117,122.94963 157.80968,122.94963 157.80968,178.11894"
     id="dinner room-entry" />
  <path
     style="fill:#241c1c;fill-opacity:1;fill-rule:nonzero;stroke:none"
     d="M -57.843642,98.986906 169.39013,98.986906 169.39013,406.75453 -57.843642,406.75453 -57.843642,98.986906"
     id="dinner room-walls"
     inkscape:connector-curvature="0" />
  <path
     id="hyggym-entry"
     d="M 408.14838,325.62598 445.78699,325.62598 445.78699,275.58048 408.14838,275.58048 408.14838,325.62598"
     style="fill:#917c6f;stroke:none"
     inkscape:connector-curvature="0" />
  <path
     id="control room"
     d="M 222.87701,515.71449 394.41516,515.71449 394.41516,446.01049 222.87701,446.01049 222.87701,515.71449"
     style="fill:#008080;stroke:none"
     inkscape:connector-curvature="0" />
  <path
     id="rect3006"
     d="M 258.81246,222.41364 408.00823,222.41364 408.00823,85.0043 258.81246,85.0043 258.81246,222.41364"
     style="fill:#57a32c;stroke:none"
     inkscape:connector-curvature="0">
    <path
       id="rect3012"
       d="M235.34473 161.48863L246.7809 161.48863L246.7809 133.28195L235.34473 133.28195L235.34473 161.48863"
       style="fill:#cc0000;stroke:none"
       inkscape:connector-curvature="0" />
  </path>
  <path
     id="rect3008"
     d="M 233.33079,384.90363 396.42151,384.90363 396.42151,227.05463 233.33079,227.05463 233.33079,384.90363"
     style="fill:#a36b4f;stroke:none"
     inkscape:connector-curvature="0" />
  <path
     id="rect3010"
     d="M 225.01442,373.20094 389.2453,373.20094 389.2453,109.6147 225.01442,109.6147 225.01442,373.20094"
     style="fill:#0d1fcc;stroke:none"
     inkscape:connector-curvature="0" />
  <path
     id="elevator-shaft-2"
     d="M 254.04972,80.766274 307.1555,80.766274 307.1555,26.877923 254.04972,26.877923 254.04972,80.766274"
     style="fill:#008000;stroke:none"
     inkscape:connector-curvature="0" />
  <path
     id="main hall 2-walls"
     d="M 217.78996,389.17495 415.17233,389.17495 415.17233,78.839955 217.78996,78.839955 217.78996,389.17495"
     style="fill:#784421;stroke:none"
     inkscape:connector-curvature="0" />
  <path
     inkscape:connector-curvature="0"
     id="dinner room"
     d="M -51.250787,104.46182 161.47873,104.46182 161.47873,401.67068 -51.250787,401.67068 -51.250787,104.46182"
     style="fill:#6c5d53;fill-opacity:1;fill-rule:nonzero;stroke:none" />
  <path
     style="fill:#483737;fill-opacity:1;fill-rule:nonzero;stroke:none"
     d="M 436.34169,82.974967 743.98691,82.974967 743.98691,406.07778 436.34169,406.07778 436.34169,82.974967"
     id="hyggym-walls"
     inkscape:connector-curvature="0" />
  <path
     style="fill:#0066ff;fill-opacity:1;fill-rule:nonzero;stroke:none"
     d="M 448.17419,92.501321 732.15433,92.501321 732.15433,207.61167 448.17419,207.61167 448.17419,92.501321"
     id="hyggym-bathroom"
     inkscape:connector-curvature="0" />
  <path
     style="fill:#222b00;fill-opacity:1;fill-rule:nonzero;stroke:none"
     d="M 294.10235,490.56543 380.60672,490.56543 380.60672,502.73451 294.10235,502.73451 294.10235,490.56543"
     id="control room-table"
     inkscape:connector-curvature="0" />
  <path
     style="fill:#2b1100;fill-opacity:1;fill-rule:nonzero;stroke:none"
     d="M 303.95236,465.44894 319.99236,465.44894 319.99236,488.50615 303.95236,488.50615 303.95236,465.44894"
     id="control room-chair cushion 1"
     inkscape:connector-curvature="0" />
  <path
     style="fill:#803300;fill-opacity:1;fill-rule:nonzero;stroke:none"
     d="M 299.58352,468.1186 304.73924,468.1186 304.73924,486.05198 299.58352,486.05198 299.58352,468.1186"
     id="control room-right arm 1"
     inkscape:connector-curvature="0" />
  <path
     style="fill:#803300;fill-opacity:1;fill-rule:nonzero;stroke:none"
     d="M 319.52078,468.15747 324.67649,468.15747 324.67649,486.09085 319.52078,486.09085 319.52078,468.15747"
     id="control room-left arm 1"
     inkscape:connector-curvature="0" />
  <path
     style="fill:#ff6600;fill-opacity:1;fill-rule:nonzero;stroke:none"
     d="M 299.6167,463.18291 324.6477,463.18291 324.6477,468.94721 299.6167,468.94721 299.6167,463.18291"
     id="control room-back support 1"
     inkscape:connector-curvature="0" />
  <path
     style="fill:#2b1100;fill-opacity:1;fill-rule:nonzero;stroke:none"
     d="M 354.99134,465.90186 371.03134,465.90186 371.03134,488.95908 354.99134,488.95908 354.99134,465.90186"
     id="control room-chair cushion 2"
     inkscape:connector-curvature="0" />
  <path
     style="fill:#803300;fill-opacity:1;fill-rule:nonzero;stroke:none"
     d="M 350.6225,468.57151 355.77822,468.57151 355.77822,486.50489 350.6225,486.50489 350.6225,468.57151"
     id="control room-right arm 2"
     inkscape:connector-curvature="0" />
  <path
     style="fill:#803300;fill-opacity:1;fill-rule:nonzero;stroke:none"
     d="M 370.55977,468.61039 375.71549,468.61039 375.71549,486.54378 370.55977,486.54378 370.55977,468.61039"
     id="control room-left arm 2"
     inkscape:connector-curvature="0" />
  <path
     style="fill:#ff6600;fill-opacity:1;fill-rule:nonzero;stroke:none"
     d="M 350.65568,463.63583 375.68668,463.63583 375.68668,469.40013 350.65568,469.40013 350.65568,463.63583"
     id="control room-back support 2"
     inkscape:connector-curvature="0" />
  <path
     style="fill:#916f6f;fill-opacity:1;fill-rule:nonzero;stroke:none"
     d="M 229.33081,493.60399 278.74952,493.60399 278.74952,511.26656 229.33081,511.26656 229.33081,493.60399"
     id="control room-cabinet"
     inkscape:connector-curvature="0" />
  <path
     style="fill:#483737;fill-opacity:1;fill-rule:nonzero;stroke:none"
     d="M 475.32508,92.10441 538.53153,92.10441 538.53153,125.04979 475.32508,125.04979 475.32508,92.10441"
     id="hyggym-crapper 1"
     inkscape:connector-curvature="0" />
  <path
     style="fill:#483737;fill-opacity:1;fill-rule:nonzero;stroke:none"
     d="M 544.44775,91.707465 615.28237,91.707465 615.28237,125.84364 544.44775,125.84364 544.44775,91.707465"
     id="hyggym-crapper 2"
     inkscape:connector-curvature="0" />
  <path
     style="fill:#008080;fill-opacity:1;fill-rule:nonzero;stroke:none"
     d="M 679.9837,103.61542 733.23,103.61542 733.23,192.1313 679.9837,192.1313 679.9837,103.61542"
     id="hyggym-showers"
     inkscape:connector-curvature="0" />
  <path
     style="fill:#000080;fill-opacity:1;fill-rule:nonzero;stroke:none"
     d="M 685.36216,110.7602 727.85162,110.7602 727.85162,135.37 685.36216,135.37 685.36216,110.7602"
     id="hyggym-private3"
     inkscape:connector-curvature="0" />
  <path
     style="fill:#000080;fill-opacity:1;fill-rule:nonzero;stroke:none"
     d="M 685.89995,139.73626 726.77587,139.73626 726.77587,162.36138 685.89995,162.36138 685.89995,139.73626"
     id="hyggym-private2"
     inkscape:connector-curvature="0" />
  <path
     style="fill:#000080;fill-opacity:1;fill-rule:nonzero;stroke:none"
     d="M 685.89995,167.91844 727.85156,167.91844 727.85156,187.36813 685.89995,187.36813 685.89995,167.91844"
     id="hyggym-private1"
     inkscape:connector-curvature="0" />
  <path
     style="fill:#483737;fill-opacity:1;fill-rule:nonzero;stroke:none"
     d="M -36.306981,328.93274 110.49395,328.93274 110.49395,351.61446 -36.306981,351.61446 -36.306981,328.93274"
     id="dinner room-stand 1"
     inkscape:connector-curvature="0" />
  <path
     style="fill:#483737;fill-opacity:1;fill-rule:nonzero;stroke:none"
     d="M 110.05442,328.93274 142.57917,328.93274 142.57917,401.67068 110.05442,401.67068 110.05442,328.93274"
     id="dinner room-stand 2"
     inkscape:connector-curvature="0" />
  <path
     style="fill:#ac9d93;fill-opacity:1;fill-rule:nonzero;stroke:none"
     d="M 78.590763,351.66193 110.23647,351.66193 110.23647,384.51132 78.590763,384.51132 78.590763,351.66193"
     id="dinner room-stove"
     inkscape:connector-curvature="0" />
  <path
     style="fill:#483e37;fill-opacity:1;fill-rule:nonzero;stroke:none"
     d="M -51.138115,384.39832 110.16709,384.39832 110.16709,401.60514 -51.138115,401.60514 -51.138115,384.39832"
     id="dinner room-working area"
     inkscape:connector-curvature="0" />
  <path
     style="fill:#aca793;fill-opacity:1;fill-rule:nonzero;stroke:none"
     d="M -26.297445,386.27633 3.3704023,386.27633 3.3704023,399.9636 -26.297445,399.9636 -26.297445,386.27633"
     id="dinner room-sink 1"
     inkscape:connector-curvature="0" />
  <path
     style="fill:#806600;fill-opacity:1;fill-rule:nonzero;stroke:none"
     d="M 15.622196,138.87546 74.518364,138.87546 74.518364,300.77609 15.622196,300.77609 15.622196,138.87546"
     id="dinner room-table"
     inkscape:connector-curvature="0" />
  <path
     style="fill:#445500;fill-opacity:1;fill-rule:nonzero;stroke:none"
     d="M 123.30552,195.57979 161.54407,195.57979 161.54407,310.55272 123.30552,310.55272 123.30552,195.57979"
     id="dinner room-cabinet"
     inkscape:connector-curvature="0" />
  <path
     style="fill:#502d16;fill-opacity:1;fill-rule:nonzero;stroke:none"
     d="M -50.43711,113.06522 -24.065688,113.06522 -24.065688,309.37951 -50.43711,309.37951 -50.43711,113.06522"
     id="dinner room-storage"
     inkscape:connector-curvature="0" />
  <path
     style="fill:#d38d5f;fill-opacity:1;fill-rule:nonzero;stroke:none"
     d="M -5.4749483,150.60741 11.226953,150.60741 11.226953,292.95484 -5.4749483,292.95484 -5.4749483,150.60741"
     id="dinner room-bench1"
     inkscape:connector-curvature="0" />
  <path
     style="fill:#d38d5f;fill-opacity:1;fill-rule:nonzero;stroke:none"
     d="M 79.276606,150.60741 95.978506,150.60741 95.978506,292.95484 79.276606,292.95484 79.276606,150.60741"
     id="dinner room-bench 2"
     inkscape:connector-curvature="0" />
  <path
     style="fill:#806600;fill-opacity:1;fill-rule:nonzero;stroke:none"
     d="M 448.24986,207.67417 523.54763,207.67417 523.54763,396.61392 448.24986,396.61392 448.24986,207.67417"
     id="hyggym"
     inkscape:connector-curvature="0"
     sodipodi:nodetypes="ccccc" />
  <path
     style="fill:#484537;fill-opacity:1;fill-rule:nonzero;stroke:none"
     d="M 229.54015,93.863089 405.40738,93.863089 405.40738,376.31391 229.54015,376.31391 229.54015,93.863089"
     id="main hall 2"
     inkscape:connector-curvature="0" />
  <path
     style="fill:#008080;fill-opacity:1;fill-rule:nonzero;stroke:none"
     d="M 524.2787,184.13395 629.69558,184.13395 629.69558,207.61164 524.2787,207.61164 524.2787,184.13395"
     id="hyggym-sauna"
     inkscape:connector-curvature="0" />
  <path
     style="fill:#445500;fill-opacity:1;fill-rule:nonzero;stroke:none"
     d="M -14.146651,396.7139 -11.504935,396.7139 -11.504935,401.69134 -14.146651,401.69134 -14.146651,396.7139"
     id="dinner room-tap 1"
     inkscape:connector-curvature="0" />
  <path
     style="fill:#aca793;fill-opacity:1;fill-rule:nonzero;stroke:none"
     d="M 29.407847,386.13809 59.075697,386.13809 59.075697,399.82533 29.407847,399.82533 29.407847,386.13809"
     id="dinner room-sink 2"
     inkscape:connector-curvature="0" />
  <path
     style="fill:#445500;fill-opacity:1;fill-rule:nonzero;stroke:none"
     d="M 41.558642,396.57565 44.200358,396.57565 44.200358,401.55309 41.558642,401.55309 41.558642,396.57565"
     id="dinner room-tap 2"
     inkscape:connector-curvature="0" />
  <path
     style="fill:#000080;fill-opacity:1;fill-rule:nonzero;stroke:none"
     d="M 297.58534,493.15113 375.76412,493.15113 375.76412,499.94442 297.58534,499.94442 297.58534,493.15113"
     id="control room-table computer"
     inkscape:connector-curvature="0" />
  <g
     id="flowRoot4262"
     style="font-size:40px;font-style:normal;font-weight:normal;line-height:125%;letter-spacing:0px;word-spacing:0px;fill:#000000;fill-opacity:1;stroke:none;font-family:Sans" />
  <path
     style="opacity:0.40366971;fill:#00ffff;fill-opacity:1;fill-rule:nonzero;stroke:none"
     d="M 227.02345,512.78735 392.56139,512.78735 392.56139,524.21735 227.02345,524.21735 z"
     id="control room-window" />
  <path
     sodipodi:nodetypes="cccccc"
     inkscape:connector-curvature="0"
     id="hyggym-toilete1"
     d="M 727.89503,120.7577 722.32108,120.7577 C 710.8422,113.09915 714.33024,113.24672 704.58587,122.30043 714.525,131.06587 711.01372,132.25819 721.70186,126.00514 L 727.89503,126.88905 727.89503,120.7577"
     style="fill:#ffffff;stroke:none" />
  <path
     sodipodi:nodetypes="ccc"
     inkscape:connector-curvature="0"
     id="hyggym-toilete-water1"
     d="M 708.31858,122.4637 C 714.69435,127.99585 713.03412,128.28292 718.77964,122.66077 712.85416,116.59354 714.38916,117.13039 708.31858,122.4637 z"
     style="fill:#00ffff;stroke:none" />
  <path
     style="fill:#ffffff;stroke:none"
     d="M 726.90969,148.93856 721.33574,148.93856 C 709.85686,141.28001 713.3449,141.42758 703.60053,150.48129 713.53966,159.24673 710.02838,160.43905 720.71652,154.186 L 726.90969,155.06991 726.90969,148.93856"
     id="hyggym-toilete2"
     inkscape:connector-curvature="0"
     sodipodi:nodetypes="cccccc" />
  <path
     style="fill:#00ffff;stroke:none"
     d="M 707.33324,150.64456 C 713.70901,156.17671 712.04878,156.46378 717.7943,150.84163 711.86882,144.7744 713.40382,145.31125 707.33324,150.64456 z"
     id="hyggym-toilete-water2"
     inkscape:connector-curvature="0"
     sodipodi:nodetypes="ccc" />
  <path
     sodipodi:nodetypes="cccccc"
     inkscape:connector-curvature="0"
     id="hyggym-toilete3"
     d="M 727.69797,175.14873 722.12402,175.14873 C 710.64514,167.49018 714.13318,167.63775 704.38881,176.69146 714.32794,185.4569 710.81666,186.64922 721.5048,180.39617 L 727.69797,181.28008 727.69797,175.14873"
     style="fill:#ffffff;stroke:none" />
  <path
     sodipodi:nodetypes="ccc"
     inkscape:connector-curvature="0"
     id="hyggym-toilete-water3"
     d="M 708.12152,176.85473 C 714.49729,182.38688 712.83706,182.67395 718.58258,177.0518 712.6571,170.98457 714.1921,171.52142 708.12152,176.85473 z"
     style="fill:#00ffff;stroke:none" />
  <path
     style="opacity:0.40366971;fill:#ffffff;fill-opacity:1;fill-rule:nonzero;stroke:none"
     d="M 480.35587,93.363708 533.14855,93.363708 533.14855,118.72519 480.35587,118.72519 z"
     id="hyggym-box2" />
  <path
     style="opacity:0.40366971;fill:#ffffff;fill-opacity:1;fill-rule:nonzero;stroke:none"
     d="M 548.75562,93.363708 608.7022,93.363708 608.7022,119.83998 548.75562,119.83998 z"
     id="hyggym-box1" />
  <path
     sodipodi:nodetypes="ccccccccc"
     inkscape:connector-curvature="0"
     id="hyggym-shower1"
     d="M 517.88248,93.611492 518.01483,103.28138 513.14462,103.26448 512.99827,111.8732 526.34194,111.8563 526.37574,103.23357 520.80179,103.23357 520.62162,93.57769 517.88248,93.611492"
     style="fill:#cccccc;stroke:none" />
  <path
     style="fill:#cccccc;stroke:none"
     d="M 568.33213,93.315888 568.46448,102.98577 563.59427,102.96887 563.44792,111.57759 576.79159,111.56069 576.82539,102.93796 571.25144,102.93796 571.07127,93.282086 568.33213,93.315888"
     id="hyggym-shower2"
     inkscape:connector-curvature="0"
     sodipodi:nodetypes="ccccccccc" />
  <path
     style="opacity:0.40366971;fill:#cccccc;fill-opacity:1;fill-rule:nonzero;stroke:none"
     d="M 552.97552,189.20009 608.94311,189.20009 608.94311,207.33043 552.97552,207.33043 z"
     id="hyggym-sink" />
  <path
     sodipodi:nodetypes="ccccccccc"
     inkscape:connector-curvature="0"
     id="hyggym-tap2"
     d="M 563.53312,207.33169 563.48262,201.2032 565.33954,201.2139 565.39534,195.75794 560.30766,195.76864 560.29476,201.23347 562.42,201.23347 562.4887,207.35309 563.53312,207.33169"
     style="fill:#cccccc;stroke:none" />
  <path
     style="fill:#cccccc;stroke:none"
     d="M 597.03484,207.72583 596.98434,201.59734 598.84126,201.60804 598.89706,196.15208 593.80938,196.16278 593.79648,201.62761 595.92172,201.62761 595.99042,207.74723 597.03484,207.72583"
     id="hyggym-tap1"
     inkscape:connector-curvature="0"
     sodipodi:nodetypes="ccccccccc" />
  <path
     style="fill:#28170b;stroke:none"
     d="M 228.75215,133.06924 254.015,133.20445 254.07242,93.818715 355.60346,93.818714 353.43569,280.04889 405.88044,282.20264 405.86354,316.11251 294.22398,315.12717 292.91622,376.80905 258.40523,376.88078 259.90018,164.09579 228.45655,163.90765 228.75215,133.06924 228.75215,133.06924"
     id="main hall 2 pathways"
     inkscape:connector-curvature="0"
     sodipodi:nodetypes="cccccccccccccc" />
  <path
     sodipodi:nodetypes="ccccc"
     inkscape:connector-curvature="0"
     id="dinner room lamp"
     d="M -9.4757187,104.23291 -10.033114,108.13468 134.33225,107.57729 134.4716,104.37226 z"
     style="fill:#ffeeaa;fill-opacity:1;stroke:none" />
  <path
     sodipodi:nodetypes="ccccc"
     inkscape:connector-curvature="0"
     id="path3998"
     d="M -51.419709,317.71528 -46.821198,317.71528 -46.68185,377.21723 -51.559058,377.35657 z"
     style="fill:#ffeeaa;fill-opacity:1;stroke:none" />
  <path
     sodipodi:nodetypes="ccccccccccccccccccccc"
     inkscape:connector-curvature="0"
     id="dinner room glare"
     d="M -10.033114,107.9051 -24.002832,121.17808 -24.063628,244.95869 C -21.895833,252.58478 -15.164597,257.92914 -5.5739522,261.8438 L -5.6436266,244.07684 C 3.7083306,247.32831 5.9527155,246.05094 11.147905,245.95804 L 11.287253,261.28641 15.746415,261.56511 15.622521,245.82714 74.413712,245.12194 74.413712,258.49943 79.2332,258.5487 79.150121,244.56455 95.871978,244.56455 96.102858,259.05683 C 111.95027,257.97943 119.34282,254.25989 123.3505,249.48258 L 123.41523,197.51339 161.54608,197.47957 161.47845,125.18435 133.77485,106.23291 z"
     style="opacity:0.39908256;fill:#ffeeaa;fill-opacity:1;stroke:none" />
  <path
     style="fill:#ffeeaa;fill-opacity:1;stroke:none"
     d="M -51.419709,317.71528 -46.821198,317.71528 -46.68185,377.21723 -51.559058,377.35657 z"
     id="dinner room lamp 2"
     inkscape:connector-curvature="0"
     sodipodi:nodetypes="ccccc" />
  <path
     sodipodi:nodetypes="ccccc"
     inkscape:connector-curvature="0"
     id="dinner room 3"
     d="M 156.58029,317.71528 161.1788,317.71528 161.31815,377.21723 156.44094,377.35657 z"
     style="fill:#ffeeaa;fill-opacity:1;stroke:none" />
  <path
     sodipodi:nodetypes="ccccsssscccccc"
     inkscape:connector-curvature="0"
     id="dinner room glare 2"
     d="M -47.329477,317.15789 -37.575061,309.35436 -21.967994,309.07566 17.049671,302.94431 C 27.657988,308.19333 29.090678,329.02864 30.304312,329.00822 L 18.831847,329.20125 C 23.133296,329.12888 21.940974,351.61012 21.725829,351.61745 L 35.101009,351.16194 C 38.144384,351.05829 31.648818,373.8252 26.077707,384.24465 L 14.240792,384.10805 C 15.032794,390.68201 11.385366,395.98756 8.7051505,401.56945 L -37.575061,402.16066 -48.16557,377.63527 -47.329477,317.15789"
     style="opacity:0.20642204;fill:#ffeeaa;fill-opacity:1;stroke:none" />
  <path
     style="opacity:0.73853215;fill:#000000;stroke:none"
     d="M -17.834741,399.96535 -12.637048,386.26906 -26.308708,386.28174 -26.296753,400.0104 z"
     id="dinner room shadow"
     inkscape:connector-curvature="0"
     sodipodi:nodetypes="ccccc" />
  <path
     style="opacity:0.19724773;fill:#fff6d5;stroke:none"
     d="M 156.34936,318.27268 150.49671,310.19045 123.46304,310.74784 123.18434,307.12477 77.199238,299.32125 C 72.41769,307.46714 68.255446,316.15493 69.330975,329.42577 L 77.583957,329.1377 C 74.150411,338.55955 76.637902,344.13397 78.000632,351.44361 L 68.68858,351.16889 C 64.526201,369.41088 67.698006,375.73482 69.12027,384.90177 L 77.067363,384.61979 C 76.844844,393.31423 77.520587,396.31842 80.264912,402.16066 L 145.75885,402.16066 156.62806,377.63527 z"
     id="dinner room glare 3"
     inkscape:connector-curvature="0"
     sodipodi:nodetypes="ccccccccccccccc" />
  <path
     style="opacity:0.44954128;fill:#000000;stroke:none"
     d="M 103.67551,351.7164 103.95421,384.32401 100.47049,384.46337 102.28202,402.43936 110.36425,402.16066 110.29458,351.64672 z"
     id="path4188"
     inkscape:connector-curvature="0"
     sodipodi:nodetypes="ccccccc" />
  <path
     style="fill:#550000;stroke:none"
     d="M 86.768067,353.48595 81.632319,357.05709 86.664581,360.6501 91.312607,357.09295 z"
     id="path4190"
     inkscape:connector-curvature="0"
     sodipodi:nodetypes="ccccc" />
  <path
     sodipodi:nodetypes="ccccc"
     inkscape:connector-curvature="0"
     id="path4192"
     d="M 94.453757,359.79215 89.318009,363.36329 94.350271,366.9563 98.998294,363.39915 z"
     style="fill:#550000;stroke:none" />
  <path
     style="fill:#550000;stroke:none"
     d="M 84.009101,367.67491 78.873353,371.24605 83.905615,374.83906 88.553638,371.28191 z"
     id="path4194"
     inkscape:connector-curvature="0"
     sodipodi:nodetypes="ccccc" />
  <path
     sodipodi:nodetypes="ccccc"
     inkscape:connector-curvature="0"
     id="path4196"
     d="M 93.172808,374.37525 88.03706,377.94639 93.069322,381.5394 97.717345,377.98225 z"
     style="fill:#550000;stroke:none" />
  <path
     style="fill:#fff6d5;fill-opacity:1;fill-rule:nonzero;stroke:none"
     d="M 346.5,224.36218 354.5,224.36218 354.5,255.86218 346.5,255.86218 z"
     id="main hall 2-lamp"
     inkscape:connector-curvature="0" />
  <path
     style="opacity:0.30275233;fill:#fff6d5;stroke:none"
     d="M 350.9064,255.65158 308.52267,315.23902 294.25953,315.11348 258.6875,329.98718 259.94194,164.09701 239.43371,133.12171 254.05806,133.21573 254,108.36218 350.81802,224.39942 z"
     id="main hall 2 - glare"
     inkscape:connector-curvature="0"
     sodipodi:nodetypes="cccccccccc" />
  <path
     style="opacity:0.35321105;fill:#000000;stroke:none"
     d="M 336.58282,230.95717 259.55689,206.56199 259.07252,265.1581 336.93637,246.15997 z"
     id="main hall 2 box soft shadow"
     inkscape:connector-curvature="0"
     sodipodi:nodetypes="ccccc" />
  <path
     style="fill:#222b00;fill-opacity:1;fill-rule:nonzero;stroke:none"
     d="M 322.08713,230.42685 336.75959,230.42685 336.75959,245.62964 322.08713,245.62964 z"
     id="main hall 2 box"
     inkscape:connector-curvature="0" />
  <path
     style="opacity:0.25688076;fill:#000000;stroke:none"
     d="M 322.12818,230.42592 259.42608,216.17043 259.09933,256.08536 322.13132,245.62964 z"
     id="main hall 2 box hard shadow"
     inkscape:connector-curvature="0"
     sodipodi:nodetypes="ccccc" />
  <rect
     style="opacity:0.57339448;fill:#000000;fill-opacity:1;fill-rule:nonzero;stroke:none"
     id="control room shadow"
     width="178.1909"
     height="77.074638"
     x="220.26376"
     y="441.77548" />
  <path
     style="fill:#008000;stroke:none"
     d="M 555.07881,210.36224 556.84657,279.84804 527.89073,283.76226 527.68362,326.05998 558.96789,339.24501 562.32666,395.28322 743.16921,395.46 743.16921,359.69045 625.78948,359.39756 588.31283,332.5275 588.31283,300.00059 738.92657,256.86707 738.92657,210.19803 708.52098,210.28014 694.26488,236.36098 582.65597,268.18078 582.53097,210.15146 z"
     id="hyggym plumbing"
     inkscape:connector-curvature="0"
     sodipodi:nodetypes="cccccccccccccccccc" />
  <path
     style="fill:#445500;stroke:none"
     d="M 527.97855,287.52461 520.04105,287.39961 520.10355,292.52461 527.65468,295.53912 527.63258,300.35542 519.97855,302.27461 519.97855,307.39961 527.52209,310.95832 527.47855,316.14961 519.97855,317.36836 520.0098,322.71211 527.85355,324.77461 z"
     id="hyggym prop pipe"
     inkscape:connector-curvature="0"
     sodipodi:nodetypes="ccccccccccccc" />
  <rect
     style="fill:#fff6d5;fill-opacity:1;fill-rule:nonzero;stroke:none"
     id="hyggym-lamp"
     width="16.125"
     height="6.5"
     x="533.125"
     y="92.737175" />
  <path
     style="opacity:0.60091744;fill:#f4eed7;stroke:none"
     d="M 551.5004,96.000253 531.85522,96.000253 526.29993,103.18492 523.57479,103.22986 520.72043,111.92902 525.27264,111.88731 522.76704,118.82145 499.90533,118.69594 497.5296,125.17353 521.9688,125.01224 448.16596,197.48017 448.23784,222.35139 C 464.80262,251.25254 492.94595,266.21912 524.55008,274.44116 L 524.55008,207.49457 629.67859,207.72313 613.06158,184.18149 599.273,184.18149 564.62477,126.05229 583.3631,125.69874 576.35832,119.82092 567.78465,119.9093 z"
     id="hyggym-glare"
     inkscape:connector-curvature="0"
     sodipodi:nodetypes="cccccccccccccccccccccc" />
  <path
     style="opacity:0.19724773;fill:#000000;stroke:none"
     d="M 524.73483,185.06929 494.01608,263.53804 C 503.91199,268.01326 514.02215,271.87248 524.58275,274.43671 z"
     id="hyggym-shadow"
     inkscape:connector-curvature="0"
     sodipodi:nodetypes="cccc" />
</svg>
