<?xml version="1.0" encoding="UTF-8" standalone="no"?>
<svg
   xmlns:dc="http://purl.org/dc/elements/1.1/"
   xmlns:cc="http://creativecommons.org/ns#"
   xmlns:rdf="http://www.w3.org/1999/02/22-rdf-syntax-ns#"
   xmlns:svg="http://www.w3.org/2000/svg"
   xmlns="http://www.w3.org/2000/svg"
   xmlns:sodipodi="http://sodipodi.sourceforge.net/DTD/sodipodi-0.dtd"
   xmlns:inkscape="http://www.inkscape.org/namespaces/inkscape"
   id="svg2985"
   version="1.1"
   inkscape:version="0.48.4 r9943 custom"
   width="100%"
   height="100%"
   sodipodi:docname="floor3.svg">
  <sodipodi:namedview
     pagecolor="#ffffff"
     bordercolor="#666666"
     borderopacity="1"
     objecttolerance="10"
     gridtolerance="10"
     guidetolerance="10"
     inkscape:pageopacity="0"
     inkscape:pageshadow="2"
     inkscape:window-width="1860"
     inkscape:window-height="1036"
     id="namedview3036"
     showgrid="false"
     inkscape:zoom="1.2685914"
     inkscape:cx="498.73103"
     inkscape:cy="679.51349"
     inkscape:window-x="60"
     inkscape:window-y="22"
     inkscape:window-maximized="0"
     inkscape:current-layer="svg2985"
     showguides="true"
     inkscape:guide-bbox="true" />
  <metadata
     id="metadata3040">
    <rdf:RDF>
      <cc:Work
         rdf:about="">
        <dc:format>image/svg+xml</dc:format>
        <dc:type
           rdf:resource="http://purl.org/dc/dcmitype/StillImage" />
      </cc:Work>
    </rdf:RDF>
  </metadata>
  <defs
     id="defs3038" />
  <path
     id="lab 2-entry"
     d="M439.79778 435.14607L482.59782 435.14607L482.59782 377.28406L439.79778 377.28406L439.79778 435.14607"
     style="fill:#a3a281;stroke:none"
     inkscape:connector-curvature="0" />
  <path
     style="fill:#a05a2c;fill-opacity:1;fill-rule:nonzero;stroke:none"
     d="M320.25341 423.38381L629.78273 423.38381L629.78273 728.11084L320.25341 728.11084L320.25341 423.38381"
     id="lab 2-walls"
     inkscape:connector-curvature="0" />
  <path
     inkscape:connector-curvature="0"
     style="fill:#ac9393;stroke:none"
     d="M264.21501 196.76786L325.50203 196.76786L325.50203 148.20333L264.21501 148.20333L264.21501 196.76786"
     id="lab 1-entry" />
  <path
     style="fill:#241c1c;fill-opacity:1;fill-rule:nonzero;stroke:none"
     d="M11.99999 127.10939L275.61238 127.10939L275.61238 396.26162L11.99999 396.26162L11.99999 127.10939"
     id="lab 1-walls"
     inkscape:connector-curvature="0" />
  <path
     id="lab 3-entry"
     d="M504.21736 194.74502L541.26094 194.74502L541.26094 150.6909L504.21736 150.6909L504.21736 194.74502"
     style="fill:#917c6f;stroke:none"
     inkscape:connector-curvature="0" />
  <path
     id="lab 2"
     d="M333.64022 717.82143L616.13664 717.82143L616.13664 434.69446L333.64022 434.69446L333.64022 717.82143"
     style="fill:#008080;stroke:none"
     inkscape:connector-curvature="0" />
  <path
     id="rect3006"
     d="M363.62101 235.75966L510.45811 235.75966L510.45811 114.80076L363.62101 114.80076L363.62101 235.75966"
     style="fill:#57a32c;stroke:none"
     inkscape:connector-curvature="0">
    <path
       id="rect3012"
       d="M235.34473 161.48863L246.7809 161.48863L246.7809 133.28195L235.34473 133.28195L235.34473 161.48863"
       style="fill:#cc0000;stroke:none"
       inkscape:connector-curvature="0" />
  </path>
  <path
     id="rect3008"
     d="M338.54219 378.79659L499.05456 378.79659L499.05456 239.84505L338.54219 239.84505L338.54219 378.79659"
     style="fill:#a36b4f;stroke:none"
     inkscape:connector-curvature="0" />
  <path
     id="rect3010"
     d="M330.35729 368.49493L491.99181 368.49493L491.99181 136.46484L330.35729 136.46484L330.35729 368.49493"
     style="fill:#0d1fcc;stroke:none"
     inkscape:connector-curvature="0" />
  <path
     id="elevator-shaft-3"
     d="M358.93357 111.07011L411.19978 111.07011L411.19978 63.633191L358.93357 63.633191L358.93357 111.07011"
     style="fill:#008000;stroke:none"
     inkscape:connector-curvature="0" />
  <path
     id="main hall 3-walls"
     d="M323.24704 382.55656L517.50895 382.55656L517.50895 109.37441L323.24704 109.37441L323.24704 382.55656"
     style="fill:#806600;stroke:none"
     inkscape:connector-curvature="0" />
  <path
     inkscape:connector-curvature="0"
     id="lab 1"
     d="M19.26276 131.89737L268.27971 131.89737L268.27971 391.81564L19.26276 391.81564L19.26276 131.89737"
     style="fill:#008080;fill-opacity:1;fill-rule:nonzero;stroke:none" />
  <path
     style="fill:#483737;fill-opacity:1;fill-rule:nonzero;stroke:none"
     d="M538.34363 113.01438L848.9916 113.01438L848.9916 377.1655L538.34363 377.1655L538.34363 113.01438"
     id="lab 3-walls"
     inkscape:connector-curvature="0" />
  <path
     style="fill:#008080;fill-opacity:1;fill-rule:nonzero;stroke:none"
     d="M548.96244 122.20737L837.41601 122.20737L837.41601 369.37727L548.96244 369.37727L548.96244 122.20737"
     id="lab 3"
     inkscape:connector-curvature="0" />
  <path
     style="fill:#6c5d53;fill-opacity:1;fill-rule:nonzero;stroke:none"
     d="M334.81147 122.59899L507.89838 122.59899L507.89838 371.23522L334.81147 371.23522L334.81147 122.59899"
     id="main hall 3"
     inkscape:connector-curvature="0" />
  <rect
     y="145.05746"
     x="27.693615"
     height="231.43073"
     width="54.678036"
     id="lab 1-table1"
     style="opacity:0.40366971;fill:#ffffff;fill-opacity:1;fill-rule:nonzero;stroke:none" />
  <rect
     y="340.14783"
     x="105.15419"
     height="36.340363"
     width="144.66898"
     id="lab 1-table2"
     style="opacity:0.40366971;fill:#ffffff;fill-opacity:1;fill-rule:nonzero;stroke:none" />
  <rect
     y="670.32086"
     x="343.63867"
     height="35.841797"
     width="164.87743"
     id="lab 2-table2"
     style="opacity:0.40366971;fill:#ffffff;fill-opacity:1;fill-rule:nonzero;stroke:none" />
  <rect
     y="443.64563"
     x="354.1908"
     height="182.11507"
     width="71.227051"
     id="lab 2-table1"
     style="opacity:0.40366971;fill:#ffffff;fill-opacity:1;fill-rule:nonzero;stroke:none" />
  <rect
     y="544.39014"
     x="525.66333"
     height="157.89764"
     width="73.865089"
     id="lab 2-table3"
     style="opacity:0.40366971;fill:#ffffff;fill-opacity:1;fill-rule:nonzero;stroke:none" />
  <rect
     y="317.77341"
     x="564.40186"
     height="42.648949"
     width="247.44414"
     id="lab 3-table2"
     style="opacity:0.40366971;fill:#ffffff;fill-opacity:1;fill-rule:nonzero;stroke:none" />
  <path
     inkscape:connector-curvature="0"
     id="lab 3-prop1"
     d="M831.64151 130.84395L771.0177 157.15926L773.49213 204.34533L816.79486 227.93837L819.2693 263.32792L777.2038 269.67989L777.2038 290.55066L831.64151 311.42142L831.64151 130.84395"
     style="fill:#4d4d4d;stroke:none" />
  <path
     sodipodi:nodetypes="cccc"
     inkscape:connector-curvature="0"
     id="lab 3-tank"
     d="M 778.94061,221.69649 C 758.88649,227.34552 756.96216,227.60436 743.79884,241.54974 767.47911,272.69562 794.4833,262.74444 816.79486,246.08686 805.48461,227.02549 793.68705,224.76507 778.94061,221.69649 z"
     style="fill:#00ffff;stroke:none" />
  <path
     inkscape:connector-curvature="0"
     id="lab 3-prop2"
     d="M780.39605 201.07742L780.39605 224.81833L785.64513 227.06409L786.51998 200.75661L780.39605 201.07742"
     style="fill:#1a1a1a;stroke:none" />
  <rect
     y="220.22527"
     x="558.83435"
     height="80.30706"
     width="42.065502"
     id="lab 3-table1"
     style="opacity:0.40366971;fill:#00ffff;fill-opacity:1;fill-rule:nonzero;stroke:none" />
  <path
     inkscape:connector-curvature="0"
     id="lab 2-chair cushion 2"
     d="M451.30482 628.48489L478.1445 628.48489L478.1445 656.81946L451.30482 656.81946L451.30482 628.48489"
     style="fill:#2b1100;fill-opacity:1;fill-rule:nonzero;stroke:none" />
  <path
     inkscape:connector-curvature="0"
     id="lab 2-right arm 2"
     d="M443.99445 631.76557L452.62151 631.76557L452.62151 653.80356L443.99445 653.80356L443.99445 631.76557"
     style="fill:#803300;fill-opacity:1;fill-rule:nonzero;stroke:none" />
  <path
     inkscape:connector-curvature="0"
     id="lab 2-left arm 2"
     d="M477.35542 631.81335L485.98247 631.81335L485.98247 653.85135L477.35542 653.85135L477.35542 631.81335"
     style="fill:#803300;fill-opacity:1;fill-rule:nonzero;stroke:none" />
  <path
     inkscape:connector-curvature="0"
     id="lab 2-back support 2"
     d="M444.04997 625.70021L485.93427 625.70021L485.93427 632.78385L444.04997 632.78385L444.04997 625.70021"
     style="fill:#ff6600;fill-opacity:1;fill-rule:nonzero;stroke:none" />
  <path
     inkscape:connector-curvature="0"
     id="lab 1-chair cushion 2-7"
     d="M144.59742 306.49688L167.77659 306.49688L167.77659 334.46958L144.59742 334.46958L144.59742 306.49688"
     style="fill:#2b1100;fill-opacity:1;fill-rule:nonzero;stroke:none" />
  <path
     inkscape:connector-curvature="0"
     id="lab 1-right arm 2-0"
     d="M138.28408 309.73566L145.73453 309.73566L145.73453 331.49219L138.28408 331.49219L138.28408 309.73566"
     style="fill:#803300;fill-opacity:1;fill-rule:nonzero;stroke:none" />
  <path
     inkscape:connector-curvature="0"
     id="lab 1-left arm 2-8"
     d="M167.09513 309.78283L174.54558 309.78283L174.54558 331.53937L167.09513 331.53937L167.09513 309.78283"
     style="fill:#803300;fill-opacity:1;fill-rule:nonzero;stroke:none" />
  <path
     inkscape:connector-curvature="0"
     id="lab 1-back support 2-5"
     d="M138.33203 303.74776L174.50395 303.74776L174.50395 310.74093L138.33203 310.74093L138.33203 303.74776"
     style="fill:#ff6600;fill-opacity:1;fill-rule:nonzero;stroke:none" />
  <path
     inkscape:connector-curvature="0"
     id="lab 3-chair cushion 2-5"
     d="M630.74892 284.02831L655.92414 284.02831L655.92414 310.57065L630.74892 310.57065L630.74892 284.02831"
     style="fill:#2b1100;fill-opacity:1;fill-rule:nonzero;stroke:none" />
  <path
     inkscape:connector-curvature="0"
     id="lab 3-right arm 2-7"
     d="M623.8919 287.10148L631.98395 287.10148L631.98395 307.74551L623.8919 307.74551L623.8919 287.10148"
     style="fill:#803300;fill-opacity:1;fill-rule:nonzero;stroke:none" />
  <path
     inkscape:connector-curvature="0"
     id="lab 3-left arm 2-7"
     d="M655.18399 287.14624L663.27604 287.14624L663.27604 307.79027L655.18399 307.79027L655.18399 287.14624"
     style="fill:#803300;fill-opacity:1;fill-rule:nonzero;stroke:none" />
  <path
     inkscape:connector-curvature="0"
     id="lab 3-back support 2-2"
     d="M623.94398 281.41977L663.23082 281.41977L663.23082 288.05535L623.94398 288.05535L623.94398 281.41977"
     style="fill:#ff6600;fill-opacity:1;fill-rule:nonzero;stroke:none" />
  <rect
     y="74.900093"
     x="366.54828"
     height="26.80138"
     width="36.260689"
     id="elevator-shaft-3-hatch"
     style="opacity:0.40366971000000001;fill:#00ffff;fill-opacity:1;fill-rule:nonzero;stroke:none" />
</svg>
