<?xml version="1.0" encoding="UTF-8" standalone="no"?>
<svg
   xmlns:dc="http://purl.org/dc/elements/1.1/"
   xmlns:cc="http://creativecommons.org/ns#"
   xmlns:rdf="http://www.w3.org/1999/02/22-rdf-syntax-ns#"
   xmlns:svg="http://www.w3.org/2000/svg"
   xmlns="http://www.w3.org/2000/svg"
   xmlns:sodipodi="http://sodipodi.sourceforge.net/DTD/sodipodi-0.dtd"
   xmlns:inkscape="http://www.inkscape.org/namespaces/inkscape"
   sodipodi:docname="floor1.svg"
   height="100%"
   width="100%"
   inkscape:version="0.48.4 r9943 custom"
   version="1.1"
   id="svg2985">
  <sodipodi:namedview
     pagecolor="#ffffff"
     bordercolor="#666666"
     borderopacity="1"
     objecttolerance="10"
     gridtolerance="10"
     guidetolerance="10"
     inkscape:pageopacity="0"
     inkscape:pageshadow="2"
     inkscape:window-width="1860"
     inkscape:window-height="1036"
     id="namedview3036"
     showgrid="false"
     inkscape:zoom="1.2685914"
     inkscape:cx="223.98243"
     inkscape:cy="494.05306"
     inkscape:window-x="60"
     inkscape:window-y="22"
     inkscape:window-maximized="0"
     inkscape:current-layer="svg2985"
     showguides="true"
     inkscape:guide-bbox="true" />
  <metadata
     id="metadata3040">
    <rdf:RDF>
      <cc:Work
         rdf:about="">
        <dc:format>image/svg+xml</dc:format>
        <dc:type
           rdf:resource="http://purl.org/dc/dcmitype/StillImage" />
      </cc:Work>
    </rdf:RDF>
  </metadata>
  <defs
     id="defs3038" />
  <path
     inkscape:connector-curvature="0"
     style="fill:#cccccc;stroke:none"
     d="M 599.16585,516.30405 670.22612,516.30405 670.22612,468.811 599.16585,468.811 599.16585,516.30405"
     id="RLS BOHR 2-entry" />
  <path
     style="opacity:0.41743116;fill:#000000;stroke:none"
     d="M 660.23464,468.21199 661.90682,515.31189 639.33232,516.70538 C 632.49186,503.48012 610.76075,496.80674 638.21753,468.49069 z"
     id="RLS BOHR 2-shadow"
     inkscape:connector-curvature="0"
     sodipodi:nodetypes="ccccc" />
  <path
     inkscape:connector-curvature="0"
     id="RLS BOHR 2"
     d="M 665.7696,454.67303 C 643.42312,499.35406 659.67393,509.20339 665.7696,528.21711 701.34342,529.46574 713.05147,512.59425 738.63669,490.63911 708.72268,463.45516 705.14409,456.1205 665.7696,454.67303"
     style="fill:#ac9393;stroke:none"
     sodipodi:nodetypes="cccc" />
  <path
     inkscape:connector-curvature="0"
     style="fill:#a3a281;stroke:none"
     d="M 171.13332,450.14927 250.54676,450.14927 250.54676,390.51755 171.13332,390.51755 171.13332,450.14927"
     id="hangar-entry" />
  <path
     inkscape:connector-curvature="0"
     style="fill:#a38884;stroke:none"
     d="M 142.5797,689.58407 612.86816,689.58407 612.86816,449.59628 142.5797,449.59628 142.5797,689.58407"
     id="hangar-walls" />
  <path
     inkscape:connector-curvature="0"
     style="fill:#6c5353;stroke:none"
     d="M 152.6422,683.1105 600.52011,683.1105 600.52011,454.5429 152.6422,454.5429 152.6422,683.1105"
     id="hangar" />
  <path
     id="hangar-pit"
     d="M 156.89676,507.56676 594.22745,507.56676 594.22745,673.30216 156.89676,673.30216 156.89676,507.56676"
     style="fill:#483e37;fill-opacity:1;fill-rule:nonzero;stroke:none"
     inkscape:connector-curvature="0" />
  <path
     style="fill:#6c5d53;fill-opacity:1;fill-rule:nonzero;stroke:none"
     d="M 515.98584,29.210718 641.92265,29.210718 641.92265,439.88566 515.98584,439.88566 515.98584,29.210718"
     id="dorms 2-shielding"
     inkscape:connector-curvature="0" />
  <path
     inkscape:connector-curvature="0"
     id="dorms 1-shielding"
     d="M 341.83419,29.210718 512.84385,29.210718 512.84385,440.67393 341.83419,440.67393 341.83419,29.210718"
     style="fill:#6c5d53;fill-opacity:1;fill-rule:nonzero;stroke:none" />
  <path
     inkscape:connector-curvature="0"
     style="fill:#cc0000;stroke:none"
     d="M 579.39544,319.12586 608.22671,319.12586 608.22671,285.87434 579.39544,285.87434 579.39544,319.12586"
     id="pod 4-entry" />
  <path
     id="pod 2-entry"
     d="M 388.72603,320.75356 426.10883,320.75356 426.10883,285.88365 388.72603,285.88365 388.72603,320.75356"
     style="fill:#cc0000;stroke:none"
     inkscape:connector-curvature="0" />
  <path
     inkscape:connector-curvature="0"
     style="fill:#cc0000;stroke:none"
     d="M 548.53071,226.80142 577.94855,226.80142 577.94855,157.89049 548.53071,157.89049 548.53071,226.80142"
     id="pod 3-entry" />
  <path
     inkscape:connector-curvature="0"
     style="fill:#88aa00;stroke:none"
     d="M 511.24797,289.11444 668.45047,289.11444 668.45047,225.23862 511.24797,225.23862 511.24797,289.11444"
     id="dorms 2" />
  <path
     inkscape:connector-curvature="0"
     style="fill:#cccccc;stroke:none"
     d="M 223.18496,743.87368 299.60166,743.87368 299.60166,689.05841 223.18496,689.05841 223.18496,743.87368"
     id="LSS DAEDALUS-entry" />
  <path
     sodipodi:nodetypes="ccccccccccccc"
     inkscape:connector-curvature="0"
     style="fill:#999999;stroke:none"
     d="M 260.7622,901.90292 C 253.50006,872.55133 258.47417,847.55501 294.86092,833.73947 L 324.14308,811.98446 386.53083,802.46307 384.96808,758.83332 324.14308,741.60226 220.26235,738.34554 207.18846,702.30388 90.642268,701.87095 C 109.04433,720.78974 81.300099,727.7998 54.858428,735.14601 L 50.74847,823.98757 91.592668,845.44258 260.7622,901.90292"
     id="LSS DAEDALUS" />
  <path
     inkscape:connector-curvature="0"
     style="fill:#1f13a3;stroke:none"
     d="M 685.63454,373.23235 806.75415,373.23235 806.75415,117.92988 685.63454,117.92988 685.63454,373.23235"
     id="lounge-window" />
  <path
     inkscape:connector-curvature="0"
     style="fill:#cc0000;stroke:none"
     d="M 386.69071,227.28435 425.48696,227.28435 425.48696,164.0505 386.69071,164.0505 386.69071,227.28435"
     id="pod 1-entry" />
  <path
     inkscape:connector-curvature="0"
     style="fill:#663333;stroke:none"
     d="M 347.47978,432.32318 509.55782,432.32318 509.55782,313.79577 347.47978,313.79577 347.47978,432.32318"
     id="path3203" />
  <path
     inkscape:connector-curvature="0"
     style="fill:#663333;stroke:none"
     d="M 522.53983,434.07778 636.96751,434.07778 636.96751,310.93677 522.53983,310.93677 522.53983,434.07778"
     id="path3205" />
  <path
     inkscape:connector-curvature="0"
     style="fill:#663333;stroke:none"
     d="M 520.05132,168.72779 639.34016,168.72779 639.34016,33.45289 520.05132,33.45289 520.05132,168.72779"
     id="path3201" />
  <path
     inkscape:connector-curvature="0"
     style="fill:#663333;stroke:none"
     d="M 345.75735,178.65874 510.4252,178.65874 510.4252,38.13995 345.75735,38.13995 345.75735,178.65874"
     id="path3199" />
  <path
     inkscape:connector-curvature="0"
     style="fill:#4aa353;stroke:none"
     d="M 643.29368,385.09975 790.98459,385.09975 790.98459,111.85472 643.29368,111.85472 643.29368,385.09975"
     id="lounge-hull" />
  <path
     inkscape:connector-curvature="0"
     style="fill:#668000;stroke:none"
     d="M 323.39085,289.11444 511.34585,289.11444 511.34585,225.23862 323.39085,225.23862 323.39085,289.11444"
     id="dorms 1" />
  <path
     inkscape:connector-curvature="0"
     style="fill:#42a31d;stroke:none"
     d="M 136.28412,72.082887 199.87874,72.082887 199.87874,16.04294 136.28412,16.04294 136.28412,72.082887"
     id="elevator-shaft-1" />
  <path
     inkscape:connector-curvature="0"
     style="fill:#4fa308;stroke:none"
     d="M 92.862728,392.80541 329.22988,392.80541 329.22988,70.079662 92.862728,70.079662 92.862728,392.80541"
     id="main hall 1-walls" />
  <path
     sodipodi:nodetypes="ccccccc"
     inkscape:connector-curvature="0"
     id="LSS DAEDALUS-windshield"
     d="M 345.71527,803.90503 354.12944,787.73434 353.52195,760.6926 345.24714,749.11767 368.19587,760.27187 368.63896,793.58519 345.71527,803.90503"
     style="fill:#554400;stroke:none" />
  <path
     id="main hall 1"
     d="M 99.387666,80.374208 320.96628,80.374208 320.96628,384.0932 99.387666,384.0932 99.387666,80.374208"
     style="fill:#786721;fill-opacity:1;fill-rule:nonzero;stroke:none"
     inkscape:connector-curvature="0" />
  <path
     style="fill:#6c5d53;fill-opacity:1;fill-rule:nonzero;stroke:none"
     d="M 105.13229,91.406832 313.44284,91.406832 313.44284,378.72973 105.13229,378.72973 105.13229,91.406832"
     id="main hall 1-generators"
     inkscape:connector-curvature="0" />
  <path
     style="opacity:0.37614680000000000;fill:#ffffff;stroke:none"
     d="M 296.73679,357.13003 313.5594,280.94941 C 233.26284,253.55684 179.21624,316.13618 214.03449,376.35519 L 284.28265,369.98491 z"
     id="main hall 1-spotlight2-flash"
     inkscape:connector-curvature="0"
     sodipodi:nodetypes="ccccc" />
  <path
     inkscape:connector-curvature="0"
     id="LSS DAEDALUS-hull"
     d="M 292.39112,835.58299 325.6548,810.48949 314.25012,741.48227 57.555382,736.74352 54.141337,822.58245"
     style="fill:#483737;stroke:none"
     sodipodi:nodetypes="ccccc" />
  <path
     id="pod 1"
     d="M 354.1346,48.849748 497.84891,48.849748 497.84891,165.46751 354.1346,165.46751 354.1346,48.849748"
     style="fill:#504416;fill-opacity:1;fill-rule:nonzero;stroke:none"
     inkscape:connector-curvature="0" />
  <path
     id="pod 3"
     d="M 528.82328,46.072124 632.21104,46.072124 632.21104,159.93452 528.82328,159.93452 528.82328,46.072124"
     style="fill:#504416;fill-opacity:1;fill-rule:nonzero;stroke:none"
     inkscape:connector-curvature="0" />
  <path
     id="pod 2"
     d="M 354.44715,323.32703 500.29416,323.32703 500.29416,424.17385 354.44715,424.17385 354.44715,323.32703"
     style="fill:#504416;fill-opacity:1;fill-rule:nonzero;stroke:none"
     inkscape:connector-curvature="0" />
  <path
     id="pod 4"
     d="M 528.09484,321.66563 629.47659,321.66563 629.47659,425.53284 528.09484,425.53284 528.09484,321.66563"
     style="fill:#504416;fill-opacity:1;fill-rule:nonzero;stroke:none"
     inkscape:connector-curvature="0" />
  <path
     id="lounge"
     d="M 651.82661,121.90093 782.05155,121.90093 782.05155,376.61946 651.82661,376.61946 651.82661,121.90093"
     style="fill:#445500;fill-opacity:1;fill-rule:nonzero;stroke:none"
     inkscape:connector-curvature="0" />
  <path
     id="lounge-sofa1"
     d="M 701.22225,153.85169 750.61794,153.85169 750.61794,239.94122 701.22225,239.94122 701.22225,153.85169"
     style="fill:#552200;fill-opacity:1;fill-rule:nonzero;stroke:none"
     inkscape:connector-curvature="0" />
  <path
     id="lounge-cushion1"
     d="M 719.18435,165.38948 749.49534,165.38948 749.49534,229.29098 719.18435,229.29098 719.18435,165.38948"
     style="fill:#aa4400;fill-opacity:1;fill-rule:nonzero;stroke:none"
     inkscape:connector-curvature="0" />
  <path
     id="lounge-desk"
     d="M 694.48646,260.35423 757.35368,260.35423 757.35368,283.42978 694.48646,283.42978 694.48646,260.35423"
     style="fill:#2b1100;fill-opacity:1;fill-rule:nonzero;stroke:none"
     inkscape:connector-curvature="0" />
  <path
     id="lounge-side desk1"
     d="M 715.81644,129.8886 748.37266,129.8886 748.37266,150.30159 715.81644,150.30159 715.81644,129.8886"
     style="fill:#552200;fill-opacity:1;fill-rule:nonzero;stroke:none"
     inkscape:connector-curvature="0" />
  <path
     id="lounge-screen"
     d="M 661.93027,360.18206 768.58,360.18206 768.58,370.83232 661.93027,370.83232 661.93027,360.18206"
     style="fill:#008080;fill-opacity:1;fill-rule:nonzero;stroke:none"
     inkscape:connector-curvature="0" />
  <path
     id="lounge-sofa2"
     d="M 768.64421,297.38118 769.62407,333.25855 660.7433,334.30037 659.76343,298.42301 768.64421,297.38118"
     style="fill:#552200;fill-opacity:1;fill-rule:nonzero;stroke:none"
     inkscape:connector-curvature="0" />
  <path
     id="lounge-cushion2"
     d="M 754.34229,311.76617 755.01369,332.55382 674.19497,333.20774 673.52357,312.4201 754.34229,311.76617"
     style="fill:#aa4400;fill-opacity:1;fill-rule:nonzero;stroke:none"
     inkscape:connector-curvature="0" />
  <path
     id="lounge-side desk2"
     d="M 735.60623,337.84199 736.41174,354.69284 694.90409,355.93295 694.09858,339.08206 735.60623,337.84199"
     style="fill:#552200;fill-opacity:1;fill-rule:nonzero;stroke:none"
     inkscape:connector-curvature="0" />
  <path
     id="pod 2-bed"
     d="M 354.44715,389.46364 500.29416,389.46364 500.29416,425.79308 354.44715,425.79308 354.44715,389.46364"
     style="fill:#aa4400;fill-opacity:1;fill-rule:nonzero;stroke:none"
     inkscape:connector-curvature="0" />
  <path
     id="pod 1-bed"
     d="M 354.13457,48.809372 497.7373,48.809372 497.7373,95.848465 354.13457,95.848465 354.13457,48.809372"
     style="fill:#aa4400;fill-opacity:1;fill-rule:nonzero;stroke:none"
     inkscape:connector-curvature="0" />
  <path
     id="pod 3-bed"
     d="M 528.82318,44.904225 632.21097,44.904225 632.21097,93.982811 528.82318,93.982811 528.82318,44.904225"
     style="fill:#aa4400;fill-opacity:1;fill-rule:nonzero;stroke:none"
     inkscape:connector-curvature="0" />
  <path
     id="pod 4-bed"
     d="M 528.09484,386.81074 629.47659,386.81074 629.47659,425.49664 528.09484,425.49664 528.09484,386.81074"
     style="fill:#aa4400;fill-opacity:1;fill-rule:nonzero;stroke:none"
     inkscape:connector-curvature="0" />
  <path
     id="pod 1-pillow"
     d="M 357.7051,53.709345 C 365.73882,51.703817 373.77253,51.264821 381.80625,53.709345 L 381.80625,90.948634 357.7051,90.948634 357.7051,53.709345"
     style="fill:#d38d5f;fill-opacity:1;fill-rule:nonzero;stroke:none"
     inkscape:connector-curvature="0"
     sodipodi:nodetypes="ccccc" />
  <path
     id="pod 3-pillow"
     d="M 532.38822,49.958026 C 538.8054,46.790069 545.22257,44.355755 551.63975,49.958026 L 551.63975,87.257773 532.38822,87.257773 C 533.6264,76.475428 535.43912,66.459143 532.38822,49.958026"
     style="fill:#d38d5f;fill-opacity:1;fill-rule:nonzero;stroke:none"
     inkscape:connector-curvature="0"
     sodipodi:nodetypes="ccccc" />
  <path
     id="pod 2-pillow"
     d="M 357.08294,395.24632 C 364.37269,391.54065 372.03742,390.08484 380.80503,395.24632 379.68909,403.48603 373.86323,407.0158 380.80503,423.31325 L 357.08294,423.31325 357.08294,395.24632"
     style="fill:#d38d5f;fill-opacity:1;fill-rule:nonzero;stroke:none"
     inkscape:connector-curvature="0"
     sodipodi:nodetypes="ccccc" />
  <path
     id="pod 4-pillow"
     d="M 530.0958,392.19415 C 536.09867,387.5684 542.10153,387.90418 548.1044,392.19415 550.62092,406.60895 550.03037,415.8453 548.1044,422.85596 L 530.0958,422.85596 530.0958,392.19415"
     style="fill:#d38d5f;fill-opacity:1;fill-rule:nonzero;stroke:none"
     inkscape:connector-curvature="0"
     sodipodi:nodetypes="ccccc" />
  <path
     id="pod 1-desk"
     d="M 433.31778,138.75852 498.01464,138.75852 498.01464,165.43719 433.31778,165.43719 433.31778,138.75852"
     style="fill:#916f6f;fill-opacity:1;fill-rule:nonzero;stroke:none"
     inkscape:connector-curvature="0" />
  <path
     id="pod 3-desk"
     d="M 580.52788,132.76541 632.20642,132.76541 632.20642,159.48733 580.52788,159.48733 580.52788,132.76541"
     style="fill:#916f6f;fill-opacity:1;fill-rule:nonzero;stroke:none"
     inkscape:connector-curvature="0" />
  <path
     id="pod 2-desk"
     d="M 436.16994,323.59225 499.84927,323.59225 499.84927,346.09567 436.16994,346.09567 436.16994,323.59225"
     style="fill:#916f6f;fill-opacity:1;fill-rule:nonzero;stroke:none"
     inkscape:connector-curvature="0" />
  <path
     id="pod 4-desk"
     d="M 528.43845,321.94798 576.7805,321.94798 576.7805,345.91101 528.43845,345.91101 528.43845,321.94798"
     style="fill:#916f6f;fill-opacity:1;fill-rule:nonzero;stroke:none"
     inkscape:connector-curvature="0" />
  <path
     id="pod 1-cushion"
     d="M 477.59941,104.95031 472.49207,122.98786 451.17763,116.95265 456.28498,98.91511 477.59941,104.95031"
     style="fill:#6c5353;fill-opacity:1;fill-rule:nonzero;stroke:none"
     inkscape:connector-curvature="0" />
  <path
     id="pod 1-back support"
     d="M 480.81834,102.76226 474.16331,126.26574 467.97522,124.51358 474.63025,101.01009 480.81834,102.76226"
     style="fill:#ac9d93;fill-opacity:1;fill-rule:nonzero;stroke:none"
     inkscape:connector-curvature="0" />
  <path
     id="pod 3-cushion"
     d="M 594.41609,109.88086 607.95848,103.49032 617.42763,123.55671 603.88524,129.94724 594.41609,109.88086"
     style="fill:#6c5353;fill-opacity:1;fill-rule:nonzero;stroke:none"
     inkscape:connector-curvature="0" />
  <path
     id="pod 3-back support"
     d="M 591.19244,108.63199 608.83857,100.30494 611.58767,106.13065 593.94155,114.45771 591.19244,108.63199"
     style="fill:#ac9d93;fill-opacity:1;fill-rule:nonzero;stroke:none"
     inkscape:connector-curvature="0" />
  <path
     id="pod 2-cushion"
     d="M 465.50253,369.6867 444.37363,365.13708 448.13086,347.48938 469.25975,352.03899 465.50253,369.6867"
     style="fill:#6c5353;fill-opacity:1;fill-rule:nonzero;stroke:none"
     inkscape:connector-curvature="0" />
  <path
     id="pod 2-back support"
     d="M 468.43989,372.40295 440.90817,366.47496 441.99889,361.3514 469.53056,367.27939 468.43985,372.40294"
     style="fill:#ac9d93;fill-opacity:1;fill-rule:nonzero;stroke:none"
     inkscape:connector-curvature="0" />
  <path
     id="pod 4-cushion"
     d="M 555.11548,349.13549 563.76991,363.07567 547.40311,373.13889 538.74868,359.19866 555.11546,349.13545"
     style="fill:#6c5353;fill-opacity:1;fill-rule:nonzero;stroke:none"
     inkscape:connector-curvature="0" />
  <path
     id="pod 4-back support"
     d="M 555.58653,345.78157 566.86385,363.94595 562.11228,366.86765 550.83494,348.70327 555.58653,345.78157"
     style="fill:#ac9d93;fill-opacity:1;fill-rule:nonzero;stroke:none"
     inkscape:connector-curvature="0" />
  <path
     id="pod 1-locker"
     d="M 354.18663,123.31774 378.28779,123.31774 378.28779,165.45691 354.18663,165.45691 354.18663,123.31774"
     style="fill:#916f6f;fill-opacity:1;fill-rule:nonzero;stroke:none"
     inkscape:connector-curvature="0" />
  <path
     id="pod 3-locker"
     d="M 529.01251,117.6023 548.26407,117.6023 548.26407,159.8099 529.01251,159.8099 529.01251,117.6023"
     style="fill:#916f6f;fill-opacity:1;fill-rule:nonzero;stroke:none"
     inkscape:connector-curvature="0" />
  <path
     id="pod 4-locker"
     d="M 611.27178,321.93264 629.28038,321.93264 629.28038,359.78258 611.27178,359.78258 611.27178,321.93264"
     style="fill:#916f6f;fill-opacity:1;fill-rule:nonzero;stroke:none"
     inkscape:connector-curvature="0" />
  <path
     id="pod 2-locker"
     d="M 354.7684,323.29414 378.49048,323.29414 378.49048,358.83851 354.7684,358.83851 354.7684,323.29414"
     style="fill:#916f6f;fill-opacity:1;fill-rule:nonzero;stroke:none"
     inkscape:connector-curvature="0" />
  <path
     sodipodi:nodetypes="ccccc"
     inkscape:connector-curvature="0"
     id="LSS DAEDALUS-cargo area"
     d="M 125.2909,752.3549 126.05074,811.20215 312.21412,807.27901 306.89517,756.27809 125.2909,752.3549"
     style="fill:#f4d7d7;stroke:none" />
  <path
     id="dorms 1-floor"
     d="M 353.98243,234.54669 514.2727,234.54669 514.2727,280.70807 353.98243,280.70807 353.98243,234.54669"
     style="fill:#445500;fill-opacity:1;fill-rule:nonzero;stroke:none"
     inkscape:connector-curvature="0" />
  <path
     id="dorms 2-floor"
     d="M 513.02919,234.49839 642.61356,234.49839 642.61356,280.65974 513.02919,280.65974 513.02919,234.49839"
     style="fill:#445500;fill-opacity:1;fill-rule:nonzero;stroke:none"
     inkscape:connector-curvature="0" />
  <path
     sodipodi:nodetypes="cccc"
     style="fill:#00ffff;stroke:none"
     d="M 60.183562,749.5262 59.908967,814.72632 68.440652,814.66484 68.46251,749.60542"
     id="LSS DAEDALUS-glare"
     inkscape:connector-curvature="0" />
  <path
     style="opacity:0.33027522999999998;fill:#000000;fill-opacity:1;stroke:none"
     d="M 317.7387,761.60382 319.24763,771.48118 C 344.35877,775.16987 365.9362,786.93563 385.86104,802.47873 L 385.4669,759.51769 C 363.4175,769.16639 340.49324,763.94256 317.7387,761.60382"
     id="LSS DAEDALUS-shadow2"
     inkscape:connector-curvature="0"
     sodipodi:nodetypes="ccccc" />
  <path
     style="opacity:0.44036698000000002;fill:#000000;stroke:none"
     d="M 56.361725,820.60907 293.23863,835.19218 323.58725,811.5439 56.361725,820.60907"
     id="LSS DAEDALUS-shadow1"
     inkscape:connector-curvature="0" />
  <path
     style="opacity:0.34862384000000002;fill:#000000;fill-opacity:1;stroke:none"
     d="M 187.60966,595.95045 C 314.82148,525.69064 430.60159,522.01286 570.71174,520.27596 L 569.92346,657.43597 C 429.85493,677.33874 317.75822,638.97026 187.60966,595.95045"
     id="hangar-shaft"
     inkscape:connector-curvature="0"
     sodipodi:nodetypes="cccc" />
  <path
     style="fill:#552200;stroke:none"
     d="M 396.86539,54.067345 C 394.22541,71.124181 407.30479,79.052408 416.37423,85.838872 L 487.16342,89.740639 C 482.9557,71.795393 481.40324,71.022642 487.16342,55.182136 z"
     id="pod 1-sheet"
     inkscape:connector-curvature="0"
     sodipodi:nodetypes="ccccc" />
  <path
     style="fill:#552200;stroke:none"
     d="M 558.51001,52.39516 C 560.48462,70.719168 551.59269,80.509262 562.96917,88.068454 L 629.2992,89.740639 C 617.61173,64.94941 623.16748,59.597936 619.82348,49.050788 z"
     id="pod 3-sheet"
     inkscape:connector-curvature="0"
     sodipodi:nodetypes="ccccc" />
  <path
     style="fill:#552200;stroke:none"
     d="M 398.53758,421.94819 C 398.70452,407.9056 411.73772,402.98803 411.91507,394.07843 L 472.67115,394.07843 C 486.80738,407.61258 505.58656,405.88174 489.393,420.276 455.68547,420.23618 429.44652,408.70151 398.53758,421.94819 z"
     id="pod 2-sheet"
     inkscape:connector-curvature="0"
     sodipodi:nodetypes="ccccc" />
  <path
     style="fill:#552200;stroke:none"
     d="M 554.05085,395.19322 C 552.17868,410.8708 553.00398,415.70442 565.75615,422.50559 583.59577,418.82185 607.83173,419.60241 623.72525,423.06298 614.4295,408.45438 617.07684,405.39396 624.28265,391.84885 602.20239,395.25396 571.51807,389.69647 554.05085,395.19322 z"
     id="pod 4-sheet"
     inkscape:connector-curvature="0"
     sodipodi:nodetypes="ccccc" />
  <path
     style="fill:#800000;stroke:none"
     d="M 190.81358,115.59046 245.61177,95.783282 291.1583,178.20667 234.9368,203.76431 z"
     id="main hall 1-carpet1"
     inkscape:connector-curvature="0" />
  <path
     style="fill:#ff0000;stroke:none"
     d="M 207.89354,123.25775 240.63011,109.20104 274.79002,171.17831 243.47677,185.87396 z"
     id="main hall 1-carpet2"
     inkscape:connector-curvature="0" />
  <path
     style="fill:#000000;stroke:none"
     d="M 278.2335,369.34598 301.71843,369.98491 296.73677,350.81668 290.3318,358.48398 278.94516,350.81668 274.67517,356.56715 283.21516,363.59551 z"
     id="main hall 1-lamp2"
     inkscape:connector-curvature="0" />
  <path
     style="fill:#ffe680;stroke:none"
     d="M 498.32619,99.312398 493.29033,99.654007 C 493.15244,111.52386 493.13099,120.68256 493.2799,125.87529 L 498.29184,126.09056 z"
     id="pod 1-lamp"
     inkscape:connector-curvature="0"
     sodipodi:nodetypes="ccccc" />
  <path
     inkscape:connector-curvature="0"
     id="main hall 1-spotlight1-flash"
     d="M 300.71895,93.728945 247.10631,91.25505 243.97547,86.543193 197.27439,80.629167 C 138.80502,147.27346 177.89169,233.09111 288.7522,217.32915 L 311.61608,107.67725 z"
     style="opacity:0.37614680000000000;fill:#ffffff;stroke:none"
     sodipodi:nodetypes="ccccccc" />
  <path
     inkscape:connector-curvature="0"
     id="main hall 1-lamp1"
     d="M 309.46849,112.7945 315.81528,92.483973 293.89401,92.208449 300.64006,99.63623 289.6091,107.7118 294.79717,112.81753 304.45181,107.06863 z"
     style="fill:#000000;stroke:none" />
  <path
     sodipodi:nodetypes="ccccc"
     inkscape:connector-curvature="0"
     id="pod 3-lamp"
     d="M 534.19274,86.305846 529.15688,86.647455 C 529.01899,98.517308 528.99754,107.67601 529.14645,112.86874 L 534.15839,113.08401 z"
     style="fill:#ffe680;stroke:none" />
  <path
     style="fill:#ffe680;stroke:none"
     d="M 500.69102,352.74309 495.65516,353.0847 C 495.51727,364.95455 495.49582,374.11326 495.64473,379.30599 L 500.65667,379.52126 z"
     id="pod 2-lamp"
     inkscape:connector-curvature="0"
     sodipodi:nodetypes="ccccc" />
  <path
     sodipodi:nodetypes="ccccc"
     inkscape:connector-curvature="0"
     id="pod 4-lamp"
     d="M 532.22206,351.95481 527.1862,352.29642 C 527.04831,364.16627 527.02686,373.32498 527.17577,378.51771 L 532.18771,378.73298 z"
     style="fill:#ffe680;stroke:none" />
  <path
     style="opacity:0.43119267000000000;fill:#ffeeaa;stroke:none"
     d="M 494.64311,100.51906 486.36622,96.57768 494.24898,95.395266 485.57794,61.893541 463.90035,60.316989 C 441.21199,67.831713 419.69332,60.923143 399.26173,62.287679 398.11874,75.284757 392.46471,85.11437 386.25518,96.183542 L 404.38553,95.395266 C 392.65387,121.82913 405.93379,145.02977 418.18035,158.0632 L 432.76346,157.66906 432.76346,146.6332 491.09587,139.14458 475.33035,138.3563 C 482.28433,132.80622 489.96524,129.86384 498.19036,126.9263 z"
     id="pod 1-spot"
     inkscape:connector-curvature="0"
     sodipodi:nodetypes="ccccccccccccccc" />
  <path
     style="opacity:0.33486238000000002;fill:#000000;stroke:none;stroke-width:1px;stroke-linecap:butt;stroke-linejoin:miter;stroke-opacity:1"
     d="M 474.34501,101.11027 447.7407,95.395266 442.70434,86.194847 432.40553,79.657759 C 429.22549,84.053861 422.43594,85.207537 422.95351,95.877583 L 411.69771,96.426663 C 411.94516,111.89976 415.51397,121.944 424.64982,135.19499 L 451.1725,129.31094 448.92311,123.37906 462.71794,121.80251 465.08277,127.12337 473.95087,126.3351 467.42383,125.16477 z"
     id="pod 1-shadow"
     inkscape:connector-curvature="0"
     sodipodi:nodetypes="cccccccccccccc" />
  <path
     style="opacity:0.43577982999999998;fill:#ffe680;stroke:none"
     d="M 531.75504,85.838872 542.06685,73.576177 546.80471,81.937106 551.26387,81.658408 559.9035,72.461387 597.80637,56.575623 608.67558,92.806312 608.75836,100.40068 611.77711,106.31811 607.64756,107.85655 C 611.27076,114.3595 610.57812,121.01659 609.05595,127.70331 L 606.66558,128.6896 C 606.83641,130.55744 605.23006,131.65445 604.98284,132.93877 L 593.90461,132.93877 593.06851,153.84109 580.80582,153.56239 580.24842,143.80797 548.4769,127.92221 548.4769,137.39793 531.47634,112.59384 z"
     id="pod 3-spot"
     inkscape:connector-curvature="0"
     sodipodi:nodetypes="ccccccccccccccccccccc" />
  <path
     style="opacity:0.32568807999999999;fill:#000000;stroke:none"
     d="M 594.11363,114.33571 604.44644,115.12313 C 608.75967,111.78306 608.4598,110.2595 607.8564,107.95451 z"
     id="pod 3-shadow"
     inkscape:connector-curvature="0"
     sodipodi:nodetypes="cccc" />
  <path
     style="fill:#800000;stroke:none"
     d="M 243.83261,133.4808 237.07178,136.03656 244.9001,150.7322 252.72841,147.85696 z"
     id="main hall 1-box"
     inkscape:connector-curvature="0" />
  <path
     style="opacity:0.43119267;fill:#000000;stroke:none"
     d="M 241.34178,134.43922 238.47772,135.38488 208.55986,142.31359 C 209.34248,155.05604 209.97195,159.51618 225.03391,165.31156 L 247.37278,149.43997 249.88176,148.49591 z"
     id="main hall 1-shadow"
     inkscape:connector-curvature="0"
     sodipodi:nodetypes="ccccccc" />
  <path
     style="opacity:0.45412843000000003;fill:#ffeeaa;fill-opacity:1;stroke:none"
     d="M 498.19036,353.55562 479.66587,345.67286 489.51932,345.27872 456.41173,323.20699 435.52242,323.20699 435.91656,336.60768 417.78622,328.72493 C 397.3481,349.16723 396.17825,360.27982 398.86759,387.84562 L 416.20966,388.63389 416.6038,412.67631 C 432.59752,405.34656 438.85141,409.12907 455.22932,409.12907 474.9586,406.38131 476.78698,402.64331 495.03725,389.02803 L 480.06001,389.02803 498.19036,379.96286 z"
     id="pod 2-spot"
     inkscape:connector-curvature="0"
     sodipodi:nodetypes="ccccccccccccccc" />
  <path
     style="opacity:0.53211012000000002;fill:#000000;stroke:none"
     d="M 447.37934,350.6016 433.09608,346.42114 C 430.19267,348.40493 427.84443,350.86459 427.52213,355.06076 L 414.14465,352.83118 C 406.89468,358.97342 408.45641,366.76786 413.02986,375.12699 L 468.49213,372.40763 468.19362,367.86249 441.94473,361.33146 444.87106,362.0282 z"
     id="pod 2-shadow"
     inkscape:connector-curvature="0"
     sodipodi:nodetypes="cccccccccc" />
  <path
     style="opacity:0.21100919000000001;fill:#000000;fill-opacity:1;stroke:none"
     d="M 357.84773,54.067345 C 360.78281,53.088435 364.5546,52.423289 369.58974,52.231902 371.01749,65.350983 340.68957,82.766421 381.70948,90.528915 L 357.29034,90.298034 z"
     id="pod 1-pillowshadow"
     inkscape:connector-curvature="0"
     sodipodi:nodetypes="ccccc" />
  <path
     style="opacity:0.12844035000000001;fill:#000000;stroke:none"
     d="M 551.26387,70.231807 C 551.27031,52.496352 545.21053,48.881579 540.67336,46.960556 545.44377,46.561655 548.3932,47.951434 552.37866,50.165579 z"
     id="pod 3-pillowshadow"
     inkscape:connector-curvature="0"
     sodipodi:nodetypes="cccc" />
  <path
     style="opacity:0.23853209000000000;fill:#000000;fill-opacity:1;stroke:none"
     d="M 356.99474,395.35647 C 358.37579,393.78656 361.24863,393.29253 367.32345,391.84885 369.84561,402.44051 352.57306,415.21141 380.49325,423.00696 374.05696,423.8228 360.76751,422.7779 356.83147,423.3924 z"
     id="pod 2-pillowshadow"
     inkscape:connector-curvature="0"
     sodipodi:nodetypes="ccccc" />
  <path
     style="opacity:0.21559634000000000;fill:#000000;stroke:none"
     d="M 530.08285,391.84885 C 532.47105,399.30463 531.77082,393.63454 537.88639,416.93163 543.1792,417.98204 546.02548,420.50037 548.74159,423.0968 L 529.52546,422.50559 z"
     id="pod 4-pillowshadow"
     inkscape:connector-curvature="0"
     sodipodi:nodetypes="ccccc" />
  <path
     style="opacity:0.32110093000000001;fill:#ffe680;stroke:none"
     d="M 531.29794,351.58493 539.96898,345.27872 576.22967,335.81941 576.22967,342.91389 600.27208,332.66631 C 606.47367,339.14588 608.79256,347.01221 611.40648,355.32924 L 611.23034,351.46943 616.62881,359.9111 613.27863,359.86182 C 618.17333,373.13949 620.20698,374.21767 617.29174,386.85037 L 603.56454,386.96581 C 606.629,394.3453 601.31567,399.01547 600.66622,406.3701 590.97783,407.59159 584.97819,411.42099 575.44139,413.46458 566.30632,408.29542 560.36182,413.385 553.36967,407.94665 L 549.03415,398.88148 C 543.73285,397.40165 542.9807,393.30313 540.75725,388.63389 546.63396,386.24397 552.31256,386.81961 558.49346,387.05734 L 530.9038,378.38631 z"
     id="pod 4-spot"
     inkscape:connector-curvature="0"
     sodipodi:nodetypes="ccccccccccccccccccc" />
  <path
     style="opacity:0.40366971000000001;fill:#000000;stroke:none"
     d="M 548.0488,372.67131 567.36156,375.82441 575.63846,382.91889 C 596.40911,371.9847 590.18829,350.68922 580.36812,340.35199 L 577.01794,342.71682 555.53743,345.27872 553.56674,346.6582 564.40553,365.37975 562.0407,366.56217 560.66122,364.59148 z"
     id="pod 4-shadow"
     inkscape:connector-curvature="0"
     sodipodi:nodetypes="ccccccccccc" />
  <path
     style="opacity:0.46330279000000002;fill:#ffeeaa;stroke:none"
     d="M 362.40253,288.79835 C 387.79329,232.90807 431.20795,251.22776 450.93273,289.28813 L 425.29255,289.84552 425.84995,298.76385 C 409.24601,305.81994 403.77915,305.84379 388.50447,298.20645 L 389.06186,289.28813 z"
     id="dorms 1-spot2"
     inkscape:connector-curvature="0"
     sodipodi:nodetypes="ccccccc" />
  <path
     sodipodi:nodetypes="ccccccc"
     inkscape:connector-curvature="0"
     id="dorms 1-spot1"
     d="M 360.40253,225.00278 C 386.76067,279.3432 431.76009,261.53317 452.20743,225.1061 L 425.38962,225.42543 425.55004,215.34564 C 408.31886,208.80389 402.64548,209.19983 386.79377,216.28046 L 386.67547,225.31512 z"
     style="opacity:0.46330279000000002;fill:#ffeeaa;stroke:none" />
  <path
     sodipodi:nodetypes="ccccccc"
     inkscape:connector-curvature="0"
     id="dorms 2-spot2"
     d="M 552.86969,289.19249 C 578.26045,233.30221 622.30713,251.35721 642.03191,289.41758 L 608.17015,288.99953 608.44885,298.8933 C 593.06102,302.9091 595.61294,302.67354 579.4643,297.22111 L 579.33195,288.99253 z"
     style="opacity:0.46330279000000002;fill:#ffeeaa;stroke:none" />
  <path
     style="opacity:0.46330279000000002;fill:#ffeeaa;stroke:none"
     d="M 528.8965,224.60864 C 548.74787,278.94906 582.63876,261.13903 598.03847,224.71196 L 577.8409,225.03129 577.96171,214.9515 C 564.33223,211.66972 560.32748,210.72508 548.77282,215.88632 L 548.6837,224.92098 z"
     id="dorms 2-spot1"
     inkscape:connector-curvature="0"
     sodipodi:nodetypes="ccccccc" />
  <path
     style="fill:#ffe680;stroke:none"
     d="M 600.78167,518.33728 595.74581,518.67889 C 595.60792,530.54874 595.58647,539.70745 595.73538,544.90018 L 600.74732,545.11545 z"
     id="hangar-lamp3"
     inkscape:connector-curvature="0"
     sodipodi:nodetypes="ccccc" />
  <path
     sodipodi:nodetypes="ccccc"
     inkscape:connector-curvature="0"
     id="hangar-lamp4"
     d="M 601.33907,625.63586 596.30321,625.97747 C 596.16532,637.84732 596.14387,647.00603 596.29278,652.19876 L 601.30472,652.41403 z"
     style="fill:#ffe680;stroke:none" />
  <path
     style="fill:#ffe680;stroke:none"
     d="M 157.09508,480.15571 152.05922,480.49732 C 151.92133,492.36717 151.89988,501.52588 152.04879,506.71861 L 157.06073,506.93388 z"
     id="hangar-lamp1"
     inkscape:connector-curvature="0"
     sodipodi:nodetypes="ccccc" />
  <path
     sodipodi:nodetypes="ccccc"
     inkscape:connector-curvature="0"
     id="path3957"
     d="M 157.09508,627.86544 152.05922,628.20705 C 151.92133,640.0769 151.89988,649.23561 152.04879,654.42834 L 157.06073,654.64361 z"
     style="fill:#ffe680;stroke:none" />
  <path
     style="fill:#ffe680;stroke:none"
     d="M 397.48601,459.67405 397.27379,454.63108 C 385.4114,454.18852 376.25625,453.93196 371.06141,453.94752 L 370.71755,458.95228 z"
     id="hangar-lamp2"
     inkscape:connector-curvature="0"
     sodipodi:nodetypes="ccccc" />
  <path
     sodipodi:nodetypes="ccccc"
     inkscape:connector-curvature="0"
     id="hangar-lamp5"
     d="M 385.78071,684.30432 385.56849,679.26135 C 373.7061,678.81879 364.55095,678.56223 359.35611,678.57779 L 359.01225,683.58255 z"
     style="fill:#ffe680;stroke:none" />
  <path
     style="fill:#ffe680;stroke:none"
     d="M 727.88741,126.21481 727.43283,121.18789 C 715.56286,121.31656 706.40599,121.50076 701.21791,121.76623 L 701.11523,126.78174 z"
     id="path3943"
     inkscape:connector-curvature="0"
     sodipodi:nodetypes="ccccc" />
  <path
     style="opacity:0.63761464999999995;fill:#ffe680;stroke:none"
     d="M 727.67946,123.18435 740.49955,129.87309 748.02438,129.5944 748.86048,149.66062 715.97416,149.66062 715.79997,153.91076 701.23802,153.84109 700.72742,239.69155 C 681.47823,229.12005 663.85138,213.31293 652.15241,200.38359 L 651.87371,173.90732 700.92449,124.29914 z"
     id="lounge-spot"
     inkscape:connector-curvature="0"
     sodipodi:nodetypes="cccccccccccc" />
  <path
     style="opacity:0.44036698000000002;fill:#000000;stroke:none"
     d="M 720.71202,165.54639 750.60234,165.26769 750.68126,153.80934 715.77893,153.86047 715.77012,150.28796 748.36774,150.2423 748.28327,134.15026 781.96947,170.26034 781.96947,237.28712 C 761.10035,256.6095 723.95882,257.76443 701.40026,239.99101 L 750.69592,239.99247 749.83592,201.49838 z"
     id="lounge-shadow"
     inkscape:connector-curvature="0"
     sodipodi:nodetypes="ccccccccccccc" />
  <path
     style="opacity:0.24311930000000001;fill:#000080;stroke:none"
     d="M 739.58789,121.7786 782.36381,121.40837 782.36381,376.80975 729.54933,376.58806 730.19391,370.77599 768.6089,370.82743 768.60958,360.10423 731.79581,360.2829 732.71346,354.78069 727.82869,354.64194 726.5299,338.20647 732.12124,338.38144 732.39155,333.43807 769.58386,332.7459 769.17652,297.64704 735.00485,298.07262 736.03026,283.34739 724.44536,283.42813 724.1581,260.61696 735.70399,260.57924 736.73108,239.94762 750.59222,239.8075 750.78071,153.83992 738.08055,153.74678 738.20611,149.79464 748.49511,149.58966 748.243,130.01002 739.4284,129.95857 z"
     id="lounge-glow"
     inkscape:connector-curvature="0"
     sodipodi:nodetypes="ccccccccccccccccccccccccccccc" />
  <path
     style="fill:#554400;stroke:none"
     d="M 687.7707,459.18459 690.92381,479.28561 C 670.38331,480.00431 662.76942,495.36978 688.95312,501.75148 L 690.52967,522.64079 C 724.45876,502.1312 722.38929,478.14239 687.7707,459.18459 z"
     id="RLS BOHR 2-window"
     inkscape:connector-curvature="0"
     sodipodi:nodetypes="ccccc" />
  <path
     style="opacity:0.30275233;fill:#ffffff;stroke:none"
     d="M 665.83423,527.92785 C 688.39839,518.34206 708.8909,507.89905 710.23657,489.5332 699.87324,466.94785 684.66019,456.97177 666.88139,453.66665 641.00612,502.40958 660.36339,506.83854 665.83423,527.92785 z"
     id="RLS BOHR 2-glow"
     inkscape:connector-curvature="0"
     sodipodi:nodetypes="cccc" />
  <path
     style="fill:#1a1a1a;stroke:none"
     d="M 444.31741,576.34666 443.68659,606.446 514.97005,608.67558 516.86254,570.77271 z"
     id="hangar-hole"
     inkscape:connector-curvature="0" />
  <path
     style="fill:#4d4d4d;stroke:none;stroke-width:1px;stroke-linecap:butt;stroke-linejoin:miter;stroke-opacity:1"
     d="M 54.982241,735.08114 74.886207,750.05839 74.886207,814.69701 51.237931,823.76218 79.418793,838.14821 80.995345,727.00132 z"
     id="path3889"
     inkscape:connector-curvature="0"
     sodipodi:nodetypes="ccccccc" />
  <path
     style="fill:#222b00;stroke:none;stroke-width:1px;stroke-linecap:butt;stroke-linejoin:miter;stroke-opacity:1;fill-opacity:1"
     d="M 509.22621,237.67908 519.03039,237.62981 518.98812,278.43855 509.39356,278.3231 z"
     id="path3891"
     inkscape:connector-curvature="0"
     sodipodi:nodetypes="ccccc" />
</svg>
