<?xml version="1.0" encoding="UTF-8" standalone="no"?>
<svg
   xmlns:dc="http://purl.org/dc/elements/1.1/"
   xmlns:cc="http://creativecommons.org/ns#"
   xmlns:rdf="http://www.w3.org/1999/02/22-rdf-syntax-ns#"
   xmlns:svg="http://www.w3.org/2000/svg"
   xmlns="http://www.w3.org/2000/svg"
   xmlns:sodipodi="http://sodipodi.sourceforge.net/DTD/sodipodi-0.dtd"
   xmlns:inkscape="http://www.inkscape.org/namespaces/inkscape"
   version="1.1"
   x="0px"
   y="0px"
   width="512px"
   height="512px"
   viewBox="0 0 512 512"
   enable-background="new 0 0 512 512"
   xml:space="preserve"
   id="svg2985"
   inkscape:version="0.48.4 r9943 custom"
   sodipodi:docname="logo_github.svg"><metadata
     id="metadata2995"><rdf:RDF><cc:Work
         rdf:about=""><dc:format>image/svg+xml</dc:format><dc:type
           rdf:resource="http://purl.org/dc/dcmitype/StillImage" /></cc:Work></rdf:RDF></metadata><defs
     id="defs2993" /><sodipodi:namedview
     pagecolor="#ffffff"
     bordercolor="#666666"
     borderopacity="1"
     objecttolerance="10"
     gridtolerance="10"
     guidetolerance="10"
     inkscape:pageopacity="0"
     inkscape:pageshadow="2"
     inkscape:window-width="640"
     inkscape:window-height="480"
     id="namedview2991"
     showgrid="false"
     inkscape:zoom="0.4609375"
     inkscape:cx="256"
     inkscape:cy="256"
     inkscape:window-x="382"
     inkscape:window-y="130"
     inkscape:window-maximized="0"
     inkscape:current-layer="svg2985" /><g
     id="5151e0c8492e5103c096af88a5006e1e"
     transform="translate(-2.1694916,-57.898306)"
     style="fill:#000000"><g
       id="g2988"
       style="fill:#000000" /><path
       style="display:inline;fill:#000000"
       d="M 6.962,266.753 C 41.87934,257.42611 77.969165,252.75426 114.08,252 91.642199,232.32938 61.337576,247.93621 35.369085,247.26592 28.06387,249.66369 -8.4378212,249.47759 17.932263,245.17659 48.050974,240.93587 78.506799,240.17834 108.871,239.464 99.846417,207.00701 95.217908,167.62369 116.3756,138.98281 136.46402,117.96014 108.85946,84.120762 131.41927,64.43209 159.60989,50.277347 180.59004,92.137077 209.5021,82.347 237.97686,77.518859 267.47681,75.138216 295.62451,82.820759 322.87301,86.69174 346.00151,49.458808 371.49898,64.631209 390.41867,84.485486 368.42323,116.8213 388.94919,136.41854 409.73756,164.23461 406.62408,200.96687 401.00449,233.12922 410.14891,248.71348 438.48481,235.16083 455.47428,240.95736 474.19193,242.17143 492.87963,244.41113 511.20287,248.48675 476.96,250.3473 443.07171,238.50251 408.95014,242.73629 384.6908,256.5315 433.24819,252.75096 443.21389,255.25642 465.83362,257.54044 488.40445,261.42108 510.01763,268.61475 475.30745,266.09806 441.38358,254.69839 406.6205,254.86504 380.7164,264.34838 368.59132,295.76313 338.96256,299.43285 327.38368,304.7806 301.31142,304.09393 297.80308,308.82327 320.98603,326.55824 317.33236,358.71466 316.00873,384.47021 302.30522,402.78641 341.40418,433.71547 320.21529,442.11605 292.37263,439.25392 288.41629,404.60848 292.51892,382.50339 298.72478,367.93097 283.37877,331.59839 285.07866,364.7922 284.46868,389.34772 279.78526,415.4335 291.87525,438.14805 292.6431,467.77858 251.07168,433.35973 259.32074,415.37351 254.64143,393.58981 267.06602,357.39637 254.41701,344.36217 248.05801,363.48121 256.6266,385.34048 252.33567,405.5691 254.32549,423.8566 242.24599,461.66802 218.86388,445.75447 227.99937,419.36097 227.85142,388.35585 226.56749,358.98049 223.50569,331.25657 213.6081,373.45173 218.66789,383.36428 227.29362,406.91497 210.5742,453.4849 181.90484,439.21695 187.82607,420.95888 203.60379,405.0366 195.88504,383.55895 185.3586,358.81389 149.58838,381.64545 134.33835,357.78459 122.26763,338.66271 107.05306,320.57747 96.390566,301.25816 113.40336,291.35323 126.96351,314.81357 137.88987,325.23798 150.45951,342.48081 176.5456,350.71743 193.99944,335.55754 218.9748,319.01667 203.72275,297.60606 179.01515,301.55967 153.93662,295.48617 133.10275,278.86567 116.74651,259.5924 95.136035,247.82542 70.125445,261.53807 47.135821,261.57959 34.7937,261.31603 5.5728467,273.90002 2.7688451,267.60782 L 6.962,266.753 z"
       id="XMLID_1_"
       inkscape:connector-curvature="0" /></g></svg>