<?xml version="1.0" encoding="UTF-8" standalone="no"?>
<!-- Created with Inkscape (http://www.inkscape.org/) -->

<svg
   xmlns:dc="http://purl.org/dc/elements/1.1/"
   xmlns:cc="http://creativecommons.org/ns#"
   xmlns:rdf="http://www.w3.org/1999/02/22-rdf-syntax-ns#"
   xmlns:svg="http://www.w3.org/2000/svg"
   xmlns="http://www.w3.org/2000/svg"
   xmlns:sodipodi="http://sodipodi.sourceforge.net/DTD/sodipodi-0.dtd"
   xmlns:inkscape="http://www.inkscape.org/namespaces/inkscape"
   inkscape:export-ydpi="90"
   inkscape:export-xdpi="90"
   inkscape:export-filename="/Users/monty/Desktop/derelict.png"
   sodipodi:docname="title.svg"
   inkscape:version="0.48.4 r9943 custom"
   version="1.1"
   id="svg4042"
   height="1052.3622047"
   width="744.09448819">
  <sodipodi:namedview
     id="base"
     pagecolor="#ffffff"
     bordercolor="#666666"
     borderopacity="1.0"
     inkscape:pageopacity="0.0"
     inkscape:pageshadow="2"
     inkscape:zoom="0.49497475"
     inkscape:cx="543.64035"
     inkscape:cy="255.26759"
     inkscape:document-units="px"
     inkscape:current-layer="layer1"
     showgrid="false"
     inkscape:window-width="1860"
     inkscape:window-height="1036"
     inkscape:window-x="60"
     inkscape:window-y="22"
     inkscape:window-maximized="0"
     showguides="true"
     inkscape:guide-bbox="true" />
  <defs
     id="defs4044">
    <inkscape:perspective
       sodipodi:type="inkscape:persp3d"
       inkscape:vp_x="0 : 526.18109 : 1"
       inkscape:vp_y="0 : 1000 : 0"
       inkscape:vp_z="744.09448 : 526.18109 : 1"
       inkscape:persp3d-origin="372.04724 : 350.78739 : 1"
       id="perspective4070" />
  </defs>
  <metadata
     id="metadata4047">
    <rdf:RDF>
      <cc:Work
         rdf:about="">
        <dc:format>image/svg+xml</dc:format>
        <dc:type
           rdf:resource="http://purl.org/dc/dcmitype/StillImage" />
        <dc:title />
      </cc:Work>
    </rdf:RDF>
  </metadata>
  <g
     inkscape:label="Layer 1"
     inkscape:groupmode="layer"
     id="layer1">
    <path
       style="fill:#445500;stroke:none"
       d="M331.50089 421.90735L343.14382 500.82045L587.64511 491.76486L578.58951 434.84391L331.50089 421.90735"
       id="path4120"
       inkscape:connector-curvature="0" />
    <path
       style="fill:#504416;stroke:none"
       d="M455.69203 269.25573L455.69203 427.08198L552.71635 462.01072L607.04997 258.90648L455.69203 269.25573"
       id="path4118"
       inkscape:connector-curvature="0" />
    <path
       style="fill:#88aa00;stroke:none"
       d="M450.0769 479.64783L679.49479 485.29657L683.37577 1045.4504L265.52436 1041.5694L347.25596 476.99858L352.84971 477.62753"
       id="path4112"
       inkscape:connector-curvature="0"
       sodipodi:nodetypes="cccccc" />
    <path
       style="opacity:0.21100919;fill:#000000;fill-opacity:1;stroke:none"
       d="M352.54324 477.58538L326.21799 626.61352L596.59225 482.15645L352.54324 477.58538"
       id="path3789"
       inkscape:connector-curvature="0"
       sodipodi:nodetypes="cccc" />
    <path
       style="fill:#552200;stroke:none"
       d="M376.77892 441.31221L510.02565 445.19318L493.20811 390.85956L497.08907 297.7162L361.25502 264.08111L354.78673 452.95512L376.77892 441.31221"
       id="path4116"
       inkscape:connector-curvature="0" />
    <path
       sodipodi:nodetypes="ccccccc"
       style="fill:#b7c8b7;stroke:none"
       d="M388.42182 287.36695L529.43051 309.35914L684.66944 313.24011L743.92035 290.23778L744.27059 173.92334L414.6762 146.59209L385.39136 286.3568"
       id="path4108"
       inkscape:connector-curvature="0" />
    <path
       style="opacity:0.16513762;fill:#000000;fill-opacity:1;stroke:#000000;stroke-width:1px;stroke-linecap:butt;stroke-linejoin:miter;stroke-opacity:1"
       d="M414.05793 148.4109L387.89858 287.6767L604.07122 320.00159L611.77364 178.95905L414.05793 148.4109"
       id="path3787"
       inkscape:connector-curvature="0"
       sodipodi:nodetypes="ccccc" />
    <path
       style="fill:#8a916f;stroke:none"
       d="M401.79339 146.35827L612.16811 178.6997L744.29915 174.12546L744.15927 0.17949857L652.79588 -0.00870513L435.01045 124.36608L401.79339 146.35827"
       id="path4110"
       inkscape:connector-curvature="0"
       sodipodi:nodetypes="ccccccc" />
    <path
       style="fill:#c4c8b7;stroke:none"
       d="M222.68359 825.86691L221.3914 914.25887L1.5315357 913.2202L1.5697357 1.3223571L572.5254 0.05366642L361.19306 124.17044"
       id="path4104"
       inkscape:connector-curvature="0"
       sodipodi:nodetypes="cccccc" />
    <path
       style="fill:#6c6753;stroke:none"
       d="M506.14467 480.12194L533.31148 308.06547L682.08212 299.00986L680.78846 493.05852L530.72418 500.82045L506.14467 480.12194"
       id="path4114"
       inkscape:connector-curvature="0" />
    <path
       style="fill:#917c6f;stroke:none"
       d="M219.64153 913.20461L298.32202 1052.8001L357.37405 1040.2757L220.61178 824.18717L219.64153 913.20461"
       id="path4124"
       inkscape:connector-curvature="0"
       sodipodi:nodetypes="ccccc" />
    <path
       style="fill:#bcd35f;stroke:none"
       d="M220.65192 824.32264L356.08039 826.82219L469.92227 1045.4504L348.31845 1040.9225L220.65192 824.32264"
       id="path4126"
       inkscape:connector-curvature="0"
       sodipodi:nodetypes="ccccc" />
    <path
       style="fill:#cdde87;stroke:none"
       d="M1.6181947 907.02897L219.59951 912.85043L298.71631 1052.326L0.07200028 1052.202L0.22923495 907.02897"
       id="path4128"
       inkscape:connector-curvature="0"
       sodipodi:nodetypes="ccccc" />
    <path
       style="opacity:0.56422017;fill:#554400;stroke:none"
       d="M383.2472 392.15321L493.20811 393.44688L511.3193 443.89951L379.36622 442.60586L383.2472 392.15321"
       id="path4640"
       inkscape:connector-curvature="0"
       sodipodi:nodetypes="ccccc" />
    <path
       style="fill:#550000;stroke:none"
       d="M406.37827 776.36954L318.32225 870.80655L264.73578 1052.8001L744.69226 1052.9289L744.23842 733.26906L526.41173 742.15325L406.37827 776.36954"
       id="path4660"
       inkscape:connector-curvature="0"
       sodipodi:nodetypes="ccccccc" />
    <path
       style="fill:#2b0000;stroke:none"
       d="M416.19954 1042.863L481.30646 871.86207L562.1454 877.99715L744.23371 861.46744L744.42543 1052.6763L406.97619 1053.0526L416.19954 1042.863"
       id="path4662"
       inkscape:connector-curvature="0"
       sodipodi:nodetypes="ccccccc" />
    <path
       style="fill:#aa0000;stroke:none"
       d="M456.20948 484.00292L448.31657 690.63295L535.12261 797.06807L729.80021 748.35221L744.10786 725.17717L744.45748 804.33423L535.12261 837.17145L444.56657 731.09151L447.15388 693.57544L456.20948 484.00292"
       id="path4652"
       inkscape:connector-curvature="0"
       sodipodi:nodetypes="cccccccccc" />
    <path
       style="fill:#554400;stroke:none"
       d="M448.44756 690.98813L483.3763 560.3287L744.49974 556.35003L744.10784 732.03733L729.17125 749.20272L531.24164 800.94902L448.44756 690.98813"
       id="path4656"
       inkscape:connector-curvature="0"
       sodipodi:nodetypes="ccccccc" />
    <path
       style="fill:#aa0000;stroke:none"
       d="M744.02803 290.36404L612.18026 275.33422L480.78899 322.2957L447.15388 493.05852L496.31288 591.3765L632.14694 613.36867L744.37346 559.82124L744.02803 290.36404"
       id="path4650"
       inkscape:connector-curvature="0"
       sodipodi:nodetypes="cccccccc" />
    <path
       style="opacity:0.25688076;fill:#d4aa00;stroke:none"
       d="M453.73817 538.56429L447.15389 689.69447L533.82897 798.36172L722.0025 748.63573L745.10252 724.85309L742.98452 560.6122L630.85328 609.4877L497.60654 587.49552L455.01355 508.49431"
       id="path4654"
       inkscape:connector-curvature="0"
       sodipodi:nodetypes="ccccccccc" />
    <path
       style="fill:#2b2200;stroke:none"
       d="M692.43138 675.46424L703.19614 703.66945L729.94744 716.86129L684.66944 736.26616L579.88316 758.25832L571.51844 741.15727L635.51044 690.98814L692.43138 675.46424"
       id="path4692"
       inkscape:connector-curvature="0"
       sodipodi:nodetypes="cccccccc" />
    <path
       style="fill:#554400;stroke:none"
       d="M525.54954 595.25747L529.43051 665.11498L554.01001 740.14712L600.58169 747.90907L697.60601 679.34522L720.95379 570.32773L632.98506 612.86359L525.54954 595.25747"
       id="path4664"
       inkscape:connector-curvature="0"
       sodipodi:nodetypes="cccccccc" />
    <path
       style="opacity:0.22477064;fill:#93ac93;stroke:none"
       d="M491.91445 326.17667L612.22461 302.89083L709.21429 311.98264L741.39497 345.99851L742.50282 296.92763L612.22461 279.605L491.91445 326.17667"
       id="path4672"
       inkscape:connector-curvature="0"
       sodipodi:nodetypes="ccccccc" />
    <path
       style="opacity:0.21559634;fill:#aad400;stroke:none"
       d="M454.39836 485.29657L502.2637 570.67797L528.13686 379.21664L489.32713 331.3513L454.39836 485.29657"
       id="path4674"
       inkscape:connector-curvature="0"
       sodipodi:nodetypes="ccccc" />
    <path
       style="opacity:0.11009174;fill:#ffdd55;stroke:none"
       d="M637.93812 592.16508L667.5326 394.55472L744.6494 357.89637L744.45879 551.14683L637.93812 592.16508"
       id="path4676"
       inkscape:connector-curvature="0"
       sodipodi:nodetypes="ccccc" />
    <path
       style="opacity:0.06880733;fill:#aad400;stroke:none"
       d="M345.78265 860.8502L433.03317 797.69504L495.7557 793.14343L467.77547 760.6592L408.45564 778.67334L321.52322 870.07989"
       id="path4678"
       inkscape:connector-curvature="0"
       sodipodi:nodetypes="cccccc" />
    <path
       style="fill:#808000;stroke:none"
       d="M519.93177 1053.2432L557.89098 1005.347L635.51044 1001.4659L720.16519 1052.9289L530.79091 1053.2432"
       id="path4686"
       inkscape:connector-curvature="0"
       sodipodi:nodetypes="ccccc" />
    <path
       style="fill:#000080;stroke:none"
       d="M661.38359 1016.9898L701.48699 1023.4581L718.30453 1035.101L711.83624 1048.0377L661.38359 1016.9898"
       id="path4688"
       inkscape:connector-curvature="0" />
    <path
       style="fill:#0000ff;stroke:none"
       d="M550.16001 1052.9907L576.00219 1038.982L606.48297 1052.9907L577.43413 1052.9907"
       id="path4690"
       inkscape:connector-curvature="0"
       sodipodi:nodetypes="cccc" />
    <path
       sodipodi:nodetypes="ccccccc"
       inkscape:connector-curvature="0"
       id="path4553"
       d="M220.59943 824.31904L296.79736 825.71433L414.85714 148.07646L655.66071 -0.00388957L572.47049 0.02303197L360.57143 124.32646L220.59943 824.31904"
       style="fill:#e3e2db;stroke:none;fill-opacity:1" />
  </g>
</svg>
