<?xml version="1.0" encoding="UTF-8" standalone="no"?>
<!-- Created with Inkscape (http://www.inkscape.org/) -->

<svg
   xmlns:dc="http://purl.org/dc/elements/1.1/"
   xmlns:cc="http://creativecommons.org/ns#"
   xmlns:rdf="http://www.w3.org/1999/02/22-rdf-syntax-ns#"
   xmlns:svg="http://www.w3.org/2000/svg"
   xmlns="http://www.w3.org/2000/svg"
   version="1.1"
   width="100%"
   height="100%"
   id="svg2985">
  <metadata
     id="metadata3040">
    <rdf:RDF>
      <cc:Work
         rdf:about="">
        <dc:format>image/svg+xml</dc:format>
        <dc:type
           rdf:resource="http://purl.org/dc/dcmitype/StillImage" />
        <dc:title></dc:title>
      </cc:Work>
    </rdf:RDF>
  </metadata>
  <defs
     id="defs3038" />
  <path
     d="m 251.7664,144.03392 55.19141,0 0,-28.36652 -55.19141,0 0,28.36652"
     id="dorms 2"
     style="fill:#06a33e;stroke:none" />
  <path
     d="m 140.34741,344.039 7.1913,0 0,-12.34024 -7.1913,0 0,12.34024"
     id="rect2988"
     style="fill:#cccccc;stroke:none" />
  <path
     d="m 146.42668,350.09077 25.17467,-4.72966 0,-14.58784 -24.78053,-5.51793"
     id="RLS BOHR 2"
     style="fill:#666666;stroke:none" />
  <path
     d="m 59.192167,427.71028 10.76883,0 0,-13.78034 -10.76883,0 0,13.78034"
     id="LSS DAEDALUS-entry"
     style="fill:#cccccc;stroke:none" />
  <path
     d="m 59.010364,439.36532 42.050296,-0.78827 25.87292,-1.7946 -0.64809,-8.22339 -25.22483,-3.24773 -43.080533,-0.61383 -53.754937,-6.87479 0.394138,27.06054"
     id="LSS DAEDALUS"
     style="fill:#cccccc;stroke:none" />
  <path
     d="m 75.990157,306.56308 29.920353,0 0,-40.44976 -29.920353,0 0,40.44976"
     id="hangar-entry"
     style="fill:#a3a281;stroke:none" />
  <path
     d="m 25.764237,414.16645 118.021853,0 0,-107.97848 -118.021853,0 0,107.97848"
     id="hangar"
     style="fill:#a38884;stroke:none" />
  <path
     d="m 30.260177,409.28309 108.850543,0 0,-86.28637 -108.850543,0 0,86.28637"
     id="hangar-ceiling"
     style="fill:#a32b35;stroke:none" />
  <path
     d="m 312.99087,169.95973 42.52325,0 0,-99.97624 -42.52325,0 0,99.97624"
     id="rect3002"
     style="fill:#1f13a3;stroke:none" />
  <path
     d="m 161.58219,140.82252 155.94946,0 0,-20.79996 -155.94946,0 0,20.79996"
     id="rect3004"
     style="fill:#0d1fcc;stroke:none" />
  <path
     d="m 84.384447,165.04351 102.649823,0 0,-84.55908 -102.649823,0 0,84.55908"
     id="rect3006"
     style="fill:#57a32c;stroke:none" />
  <path
     d="m 66.852527,265.03674 112.209833,0 0,-97.13725 -112.209833,0 0,97.13725"
     id="rect3008"
     style="fill:#a36b4f;stroke:none" />
  <path
     d="m 61.130687,257.83513 112.994293,0 0,-162.20593 -112.994293,0 0,162.20593"
     id="rect3010"
     style="fill:#0d1fcc;stroke:none" />
  <path
     d="m 220.47493,124.3388 13.70144,0 0,-28.21131 -13.70144,0 0,28.21131"
     id="rect3014"
     style="fill:#cc0000;stroke:none" />
  <path
     d="m 264.87761,122.966 11.43618,0 0,-28.20668 -11.43618,0 0,28.20668"
     id="rect3016"
     style="fill:#cc0000;stroke:none" />
  <path
     d="m 274.77991,163.20403 11.43618,0 0,-28.20668 -11.43618,0 0,28.20668"
     id="rect3018"
     style="fill:#cc0000;stroke:none" />
  <path
     d="m 214.81895,181.88071 36.35407,0 0,-28.25757 -36.35407,0 0,28.25757"
     id="pod 2"
     style="fill:#663333;stroke:none" />
  <path
     d="m 255.7308,180.56399 34.0888,0 0,-28.25295 -34.0888,0 0,28.25295"
     id="pod 4"
     style="fill:#663333;stroke:none" />
  <path
     d="m 256.13007,103.77261 34.0888,0 0,-28.25295 -34.0888,0 0,28.25295"
     id="pod 3"
     style="fill:#663333;stroke:none" />
  <path
     d="m 215.12348,104.94538 36.35406,0 0,-28.25758 -36.35406,0 0,28.25758"
     id="pod 1"
     style="fill:#663333;stroke:none" />
  <path
     d="m 298.12564,175.62405 51.85203,0 0,-110.30916 -51.85203,0 0,110.30916"
     id="lounge"
     style="fill:#4aa353;stroke:none" />
  <path
     d="m 183.77828,144.03392 68.8987,0 0,-28.36652 -68.8987,0 0,28.36652"
     id="dorms 1"
     style="fill:#06a33e;stroke:none" />
  <path
     d="m 81.107587,77.87643 36.537883,0 0,-33.16186 -36.537883,0 0,33.16186"
     id="elevator 1"
     style="fill:#42a31d;stroke:none" />
  <path
     d="m 56.160107,267.66523 135.803213,0 0,-190.97422 -135.803213,0 0,190.97422"
     id="main hall 1"
     style="fill:#4fa308;stroke:none" />
  <path
     d="m 110.0069,437.05423 3.54724,-2.75896 0.78828,-3.54725 -3.54724,-3.94138 9.45931,2.75897 -0.39414,3.94138 z"
     id="path3006"
     style="fill:#0000ff;stroke:none" />
  <path
     d="m 48.521382,438.23664 -39.807933,0.39414 0,-13.79483 44.14345,0.39414 L 6.74276,420.1063 6.348622,442.17802 z"
     id="LSS DAEDALUS-flaps"
     style="fill:#4d4d4d;stroke:none" />
</svg>
