<?xml version="1.0" encoding="UTF-8" standalone="no"?>
<!-- Created with Inkscape (http://www.inkscape.org/) -->

<svg
   xmlns:dc="http://purl.org/dc/elements/1.1/"
   xmlns:cc="http://creativecommons.org/ns#"
   xmlns:rdf="http://www.w3.org/1999/02/22-rdf-syntax-ns#"
   xmlns:svg="http://www.w3.org/2000/svg"
   xmlns="http://www.w3.org/2000/svg"
   xmlns:sodipodi="http://sodipodi.sourceforge.net/DTD/sodipodi-0.dtd"
   xmlns:inkscape="http://www.inkscape.org/namespaces/inkscape"
   width="744.09448819"
   height="1052.3622047"
   id="svg4042"
   version="1.1"
   inkscape:version="0.48.3.1 r9886"
   sodipodi:docname="title.svg"
   inkscape:export-filename="/Users/monty/Desktop/derelict.png"
   inkscape:export-xdpi="90"
   inkscape:export-ydpi="90">
  <sodipodi:namedview
     id="base"
     pagecolor="#ffffff"
     bordercolor="#666666"
     borderopacity="1.0"
     inkscape:pageopacity="0.0"
     inkscape:pageshadow="2"
     inkscape:zoom="0.7"
     inkscape:cx="308.00272"
     inkscape:cy="382.47895"
     inkscape:document-units="px"
     inkscape:current-layer="layer1"
     showgrid="false"
     inkscape:window-width="959"
     inkscape:window-height="576"
     inkscape:window-x="65"
     inkscape:window-y="24"
     inkscape:window-maximized="1" />
  <defs
     id="defs4044">
    <inkscape:perspective
       sodipodi:type="inkscape:persp3d"
       inkscape:vp_x="0 : 526.18109 : 1"
       inkscape:vp_y="0 : 1000 : 0"
       inkscape:vp_z="744.09448 : 526.18109 : 1"
       inkscape:persp3d-origin="372.04724 : 350.78739 : 1"
       id="perspective4070" />
  </defs>
  <metadata
     id="metadata4047">
    <rdf:RDF>
      <cc:Work
         rdf:about="">
        <dc:format>image/svg+xml</dc:format>
        <dc:type
           rdf:resource="http://purl.org/dc/dcmitype/StillImage" />
        <dc:title />
      </cc:Work>
    </rdf:RDF>
  </metadata>
  <g
     inkscape:label="Layer 1"
     inkscape:groupmode="layer"
     id="layer1">
    <path
       style="fill:#445500;stroke:none"
       d="M348.57143 369.50504L361.42857 456.6479L631.42857 446.6479L621.42857 383.79075L348.57143 369.50504"
       id="path4120"
       inkscape:connector-curvature="0" />
    <path
       style="fill:#504416;stroke:none"
       d="M485.71429 200.93361L485.71429 375.21933L592.85714 413.79075L652.85714 189.50504L485.71429 200.93361"
       id="path4118"
       inkscape:connector-curvature="0" />
    <path
       style="fill:#88aa00;stroke:none"
       d="M401.42857 435.21933L732.85714 439.50504L737.14286 1058.0765L275.71429 1053.7908L341.42857 429.50504L401.42857 435.21933"
       id="path4112"
       inkscape:connector-curvature="0" />
    <path
       style="fill:#552200;stroke:none"
       d="M398.57143 390.93361L545.71429 395.21933L527.14286 335.21933L531.42857 232.36218L381.42857 195.21933L374.28571 403.79075L398.57143 390.93361"
       id="path4116"
       inkscape:connector-curvature="0" />
    <path
       sodipodi:nodetypes="ccccccc"
       style="fill:#b7c8b7;stroke:none"
       d="M411.42857 220.93361L567.14286 245.21933L738.57143 249.50504L815.71429 225.21933L808.57143 -26.209247L434.28572 -40.494961L411.42857 220.93361"
       id="path4108"
       inkscape:connector-curvature="0" />
    <path
       style="fill:#8a916f;stroke:none"
       d="M426.19463 65.219325L658.50904 100.93361L815.71428 93.790754L808.72739 -31.923532L415.71429 -34.780675L462.87585 40.933611L426.19463 65.219325"
       id="path4110"
       inkscape:connector-curvature="0" />
    <path
       style="fill:#e3e2db;stroke:none"
       d="M309.90358 -19.967803L177.14286 1075.2193L361.42857 1068.0765L410.0 216.6479L559.29442 -31.923532L432.20898 -36.34953L309.90358 -19.967803L309.90358 -19.967803"
       id="path4106"
       inkscape:connector-curvature="0"
       sodipodi:nodetypes="cccccccc" />
    <path
       style="fill:#c4c8b7;stroke:none"
       d="M460.0 -31.923532L303.87961 104.13738L224.28571 918.07643L-15.714286 910.93363L-31.428571 -31.923532L410.0 -33.352104L460.0 -31.923532"
       id="path4104"
       inkscape:connector-curvature="0"
       sodipodi:nodetypes="ccccccc" />
    <path
       style="fill:#6c6753;stroke:none"
       d="M541.42857 433.79075L571.42857 243.79075L735.71429 233.79075L734.28571 448.07647L568.57143 456.6479L541.42857 433.79075"
       id="path4114"
       inkscape:connector-curvature="0" />
    <path
       style="fill:#917c6f;stroke:none"
       d="M225.04641 912.59678L315.0 1070.9336L377.14286 1052.3622L226.11784 814.29583L225.04641 912.59678"
       id="path4124"
       inkscape:connector-curvature="0"
       sodipodi:nodetypes="ccccc" />
    <path
       style="fill:#bcd35f;stroke:none"
       d="M226.42857 814.86219L375.71429 816.6479L501.42857 1058.0765L367.14286 1053.0765L226.42857 814.86219"
       id="path4126"
       inkscape:connector-curvature="0"
       sodipodi:nodetypes="ccccc" />
    <path
       style="fill:#cdde87;stroke:none"
       d="M-15.714286 905.21933L225.0 911.6479L315.71429 1072.3622L-17.142857 1066.6479L-15.714286 905.21933"
       id="path4128"
       inkscape:connector-curvature="0"
       sodipodi:nodetypes="ccccc" />
    <path
       style="opacity:0.56422017000000002;fill:#554400;stroke:none"
       d="M405.71429 336.6479L527.14286 338.07647L547.14285 393.79075L401.42857 392.36218L405.71429 336.6479"
       id="path4640"
       inkscape:connector-curvature="0"
       sodipodi:nodetypes="ccccc" />
    <path
       style="fill:#550000;stroke:none"
       d="M431.25767 760.93361L334.01841 865.21933L274.28571 1070.9336L801.50746 1065.2193L810.0 712.36218L563.80924 723.14896L431.25767 760.93361"
       id="path4660"
       inkscape:connector-curvature="0"
       sodipodi:nodetypes="ccccccc" />
    <path
       style="fill:#2b0000;stroke:none"
       d="M442.10317 1055.2193L563.08201 832.36218L812.15608 853.79076L815.71429 1065.2193L428.57143 1070.9336L442.10317 1055.2193"
       id="path4662"
       inkscape:connector-curvature="0"
       sodipodi:nodetypes="cccccc" />
    <path
       style="fill:#aa0000;stroke:none"
       d="M486.28571 438.07647L473.42857 663.79075L573.42857 783.79075L793.42857 726.6479L812.71429 700.21933L807.71428 793.79076L573.42857 828.07647L473.42857 710.93361L476.28571 669.50504L486.28571 438.07647"
       id="path4652"
       inkscape:connector-curvature="0"
       sodipodi:nodetypes="cccccccccc" />
    <path
       style="fill:#554400;stroke:none"
       d="M477.71429 666.64789L516.28571 522.36218L819.14286 525.21932L812.71428 713.79075L787.71429 730.93361L569.14286 788.07646L477.71429 666.64789"
       id="path4656"
       inkscape:connector-curvature="0"
       sodipodi:nodetypes="ccccccc" />
    <path
       style="fill:#aa0000;stroke:none"
       d="M814.85714 225.21932L658.52247 207.64601L513.42857 259.50504L476.28571 448.07647L530.57143 556.6479L680.57143 580.93361L819.14285 528.07647L814.85714 225.21932"
       id="path4650"
       inkscape:connector-curvature="0"
       sodipodi:nodetypes="cccccccc" />
    <path
       style="opacity:0.25688076;fill:#d4aa00;stroke:none"
       d="M477.71429 449.50504L476.28572 665.21932L572.00001 785.21932L794.85715 728.07647L812.00001 720.21932L819.14287 523.79075L679.14287 576.64789L532.00001 552.36218L477.71429 449.50504"
       id="path4654"
       inkscape:connector-curvature="0"
       sodipodi:nodetypes="ccccccccc" />
    <path
       style="fill:#2b2200;stroke:none;stroke-width:1px;stroke-linecap:butt;stroke-linejoin:miter;stroke-opacity:1"
       d="M747.14286 649.50504L759.03026 680.65173L788.57142 695.21933L738.57143 716.6479L622.85714 740.93361L621.42857 720.93361L684.28571 666.6479L747.14286 649.50504"
       id="path4692"
       inkscape:connector-curvature="0"
       sodipodi:nodetypes="cccccccc" />
    <path
       style="fill:#554400;stroke:none"
       d="M562.85714 560.93361L567.14286 638.07647L594.28571 720.93361L645.71429 729.50504L752.85714 653.79075L781.42857 540.93361L684.28571 580.93361L562.85714 560.93361"
       id="path4664"
       inkscape:connector-curvature="0" />
    <path
       style="opacity:0.35321105000000003;fill:#93ac93;stroke:none"
       d="M525.71429 263.79075L658.57143 238.07647L815.71429 269.50504L808.57143 230.93361L658.57143 212.36218L525.71429 263.79075"
       id="path4672"
       inkscape:connector-curvature="0" />
    <path
       style="opacity:0.37155965;fill:#aad400;stroke:none"
       d="M484.28571 439.50504L537.14285 533.79075L565.71429 322.36218L522.85714 269.50504L484.28571 439.50504"
       id="path4674"
       inkscape:connector-curvature="0"
       sodipodi:nodetypes="ccccc" />
    <path
       style="opacity:0.2431193;fill:#ffdd55;stroke:none"
       d="M691.42857 558.07647L728.57143 330.93361L808.57143 276.6479L811.42857 512.36218L691.42857 558.07647"
       id="path4676"
       inkscape:connector-curvature="0"
       sodipodi:nodetypes="ccccc" />
    <path
       style="opacity:0.13302755999999999;fill:#aad400;stroke:none"
       d="M354.28571 866.6479L457.14286 780.93361L522.85714 778.07647L507.14286 755.21933L438.57143 762.36218L354.28571 866.6479"
       id="path4678"
       inkscape:connector-curvature="0" />
    <path
       style="fill:#808000;stroke:none;stroke-width:1px;stroke-linecap:butt;stroke-linejoin:miter;stroke-opacity:1"
       d="M560.0 1068.0765L598.57143 1013.7908L684.28571 1009.505L780.0 1065.2193L560.0 1068.0765"
       id="path4686"
       inkscape:connector-curvature="0"
       sodipodi:nodetypes="ccccc" />
    <path
       style="fill:#000080;stroke:none;stroke-width:1px;stroke-linecap:butt;stroke-linejoin:miter;stroke-opacity:1"
       d="M712.85714 1026.6479L757.14286 1033.7908L775.71429 1046.6479L768.57143 1060.9336L712.85714 1026.6479"
       id="path4688"
       inkscape:connector-curvature="0" />
    <path
       style="fill:#0000ff;stroke:none;stroke-width:1px;stroke-linecap:butt;stroke-linejoin:miter;stroke-opacity:1"
       d="M591.42857 1068.0765L618.57143 1050.9336L650.0 1068.0765L591.42857 1068.0765"
       id="path4690"
       inkscape:connector-curvature="0" />
  </g>
</svg>
