<?xml version="1.0" encoding="UTF-8" standalone="no"?>
<!-- Created with Inkscape (http://www.inkscape.org/) -->

<svg
   xmlns:dc="http://purl.org/dc/elements/1.1/"
   xmlns:cc="http://creativecommons.org/ns#"
   xmlns:rdf="http://www.w3.org/1999/02/22-rdf-syntax-ns#"
   xmlns:svg="http://www.w3.org/2000/svg"
   xmlns="http://www.w3.org/2000/svg"
   xmlns:sodipodi="http://sodipodi.sourceforge.net/DTD/sodipodi-0.dtd"
   xmlns:inkscape="http://www.inkscape.org/namespaces/inkscape"
   width="744.09448819"
   height="1052.3622047"
   id="svg2"
   version="1.1"
   inkscape:version="0.48.4 r9943 custom"
   sodipodi:docname="blowtorch.svg">
  <sodipodi:namedview
     id="base"
     pagecolor="#ffffff"
     bordercolor="#666666"
     borderopacity="1.0"
     inkscape:pageopacity="0.0"
     inkscape:pageshadow="2"
     inkscape:zoom="11.2"
     inkscape:cx="31.888712"
     inkscape:cy="1048.3828"
     inkscape:document-units="px"
     inkscape:current-layer="layer1"
     showgrid="false"
     inkscape:window-width="1855"
     inkscape:window-height="1036"
     inkscape:window-x="65"
     inkscape:window-y="22"
     inkscape:window-maximized="0" />
  <defs
     id="defs4" />
  <metadata
     id="metadata7">
    <rdf:RDF>
      <cc:Work
         rdf:about="">
        <dc:format>image/svg+xml</dc:format>
        <dc:type
           rdf:resource="http://purl.org/dc/dcmitype/StillImage" />
        <dc:title />
      </cc:Work>
    </rdf:RDF>
  </metadata>
  <g
     inkscape:label="Layer 1"
     inkscape:groupmode="layer"
     id="layer1">
    <rect
       style="fill:#666666;fill-opacity:1;fill-rule:nonzero;stroke:none"
       id="rect2993"
       width="37.666531"
       height="32.910652"
       x="0.10094751"
       y="0.1238628" />
    <path
       style="fill:#aa4400;stroke:none"
       d="M 21.463977,7.3191694 C 16.521796,8.2245071 14.108781,11.940371 13.764239,16.001729 18.277482,17.67433 21.235645,12.844222 21.597503,9.6356194"
       id="path3015"
       inkscape:connector-curvature="0"
       sodipodi:nodetypes="ccc" />
    <path
       style="fill:#d45500;stroke:none"
       d="M 22.347272,27.041239 28.411317,32.924769 37.749407,33.138279 37.783067,21.223409 30.922728,16.179039 22.347304,27.041239"
       id="path3023"
       inkscape:connector-curvature="0"
       sodipodi:nodetypes="cccccc" />
    <path
       style="fill:#d4aa00;stroke:none"
       d="M 14.958399,18.349829 21.217033,26.756759 C 30.755036,28.108855 35.902668,24.868433 32.250662,16.103599 L 24.483667,10.272589 14.958399,18.349829 14.958399,18.349829"
       id="path3019"
       inkscape:connector-curvature="0"
       sodipodi:nodetypes="cccccc" />
    <path
       style="fill:#000000;stroke:none"
       d="M 14.948867,16.179039 C 15.948931,11.809279 17.454098,10.390134 21.439286,9.0496694 L 23.322517,12.177169 19.01799,17.725979 14.948867,16.179039"
       id="path3021"
       inkscape:connector-curvature="0"
       sodipodi:nodetypes="ccccc" />
    <path
       style="fill:#800000;stroke:none"
       d="M 13.797868,15.913369 14.939279,19.527839 C 21.863166,19.36508 25.047216,15.450516 24.831498,9.4453394 L 21.466119,7.3233294 C 22.110094,13.175396 17.466336,15.727743 13.79787,15.913329"
       id="path3017"
       inkscape:connector-curvature="0"
       sodipodi:nodetypes="ccccc" />
    <path
       style="opacity:0.3853211;fill:#1a1a1a;stroke:none"
       d="M 13.839107,15.977259 14.948867,19.508319 15.99137,19.542019 21.237512,26.705019 22.750822,27.175829 28.545834,32.802695 37.54891,32.970209 29.977264,26.268183 28.68225,26.787743 C 26.3814,23.728323 23.765575,20.82639 20.514872,18.241897 L 19.947055,18.529928 C 19.358607,17.120578 18.525068,16.005339 17.642136,14.949371 16.374459,15.576351 15.106783,15.751497 13.839107,15.977339"
       id="path3795"
       inkscape:connector-curvature="0"
       sodipodi:nodetypes="ccccccccccccc" />
    <path
       sodipodi:nodetypes="cccccccccccc"
       style="opacity:0.54128436;fill:#ffffff;stroke:none"
       d="M 24.830057,9.4591594 24.790307,10.554809 32.2006,16.279919 32.772295,17.625089 37.682143,21.257029 37.749383,22.904859 33.444215,19.989433 33.257513,18.951049 C 31.735239,18.568351 28.920589,16.942984 24.305006,13.585952 L 24.532297,12.950639 C 23.428063,12.382236 22.271065,11.849244 21.224353,10.820666 21.498475,9.7109029 21.585377,8.5837761 21.468683,7.3261794"
       id="path3797"
       inkscape:connector-curvature="0" />
    <path
       style="opacity:0.61926605;fill:#00ffff;stroke:none"
       d="M 21.503033,9.0280188 C 21.578505,13.23423 17.259208,15.582662 14.89592,15.711672 14.242256,12.856445 14.329202,9.9189285 11.551455,7.2997109 14.439794,8.5585699 17.312622,10.047786 21.503033,9.0280188 z"
       id="active"
       inkscape:connector-curvature="0"
       sodipodi:nodetypes="cccc" />
  </g>
</svg>
