<?xml version="1.0" encoding="UTF-8" standalone="no"?>
<!-- Created with Inkscape (http://www.inkscape.org/) -->

<svg
   xmlns:dc="http://purl.org/dc/elements/1.1/"
   xmlns:cc="http://creativecommons.org/ns#"
   xmlns:rdf="http://www.w3.org/1999/02/22-rdf-syntax-ns#"
   xmlns:svg="http://www.w3.org/2000/svg"
   xmlns="http://www.w3.org/2000/svg"
   xmlns:sodipodi="http://sodipodi.sourceforge.net/DTD/sodipodi-0.dtd"
   xmlns:inkscape="http://www.inkscape.org/namespaces/inkscape"
   width="744.09448819"
   height="1052.3622047"
   id="svg2"
   version="1.1"
   inkscape:version="0.48.4 r9943 custom"
   sodipodi:docname="electric-experiment.svg">
  <sodipodi:namedview
     id="base"
     pagecolor="#ffffff"
     bordercolor="#666666"
     borderopacity="1.0"
     inkscape:pageopacity="0.0"
     inkscape:pageshadow="2"
     inkscape:zoom="11.2"
     inkscape:cx="-6.8758441"
     inkscape:cy="1040.3891"
     inkscape:document-units="px"
     inkscape:current-layer="layer1"
     showgrid="false"
     inkscape:window-width="1855"
     inkscape:window-height="1036"
     inkscape:window-x="100"
     inkscape:window-y="22"
     inkscape:window-maximized="0"
     showguides="true"
     inkscape:guide-bbox="true" />
  <defs
     id="defs4" />
  <metadata
     id="metadata7">
    <rdf:RDF>
      <cc:Work
         rdf:about="">
        <dc:format>image/svg+xml</dc:format>
        <dc:type
           rdf:resource="http://purl.org/dc/dcmitype/StillImage" />
        <dc:title />
      </cc:Work>
    </rdf:RDF>
  </metadata>
  <g
     id="layer1"
     inkscape:groupmode="layer"
     inkscape:label="Layer 1">
    <rect
       y="0.13110378"
       x="0.09718921"
       height="31.635845"
       width="36.2075"
       id="rect2993"
       style="fill:#666666;fill-opacity:1;fill-rule:nonzero;stroke:none" />
    <path
       inkscape:connector-curvature="0"
       id="path2998"
       d="M 4.9999996,31.558612 5.3571426,7.0943255 9.1964286,7.3621826 9.375,31.915754 4.9999996,31.558612"
       style="fill:#1a1a1a;fill-opacity:1;stroke:none" />
    <path
       inkscape:connector-curvature="0"
       id="path3000"
       d="M 21.160714,32.00504 20.982143,7.0050398 26.875,6.4693255 25.714286,31.826469 21.160714,32.00504"
       style="fill:#1a1a1a;fill-opacity:1;stroke:none" />
    <path
       inkscape:connector-curvature="0"
       id="path3002"
       d="M 26.696429,16.022897 C 35.143469,16.713129 34.378757,25.531258 34.553572,31.737183 L 31.785715,31.647893 C 31.397117,25.644445 34.089975,18.076464 26.607143,18.076464 L 26.696429,16.022897"
       style="fill:#000000;fill-opacity:1;stroke:none"
       sodipodi:nodetypes="ccccc" />
    <path
       inkscape:connector-curvature="0"
       id="path3004"
       d="M 12.5,31.737183 12.589286,16.826468 15.089286,16.826468 16.071429,31.915754 12.5,31.737183"
       style="fill:#000000;fill-opacity:1;stroke:none" />
    <path
       inkscape:connector-curvature="0"
       id="path3006"
       d="M 4.9999996,15.665754 C 0.51651256,15.206845 0.96496956,18.354664 0.62499956,22.094325 L 0.62499956,31.647897 2.7678576,31.647897 C 2.6590026,27.470686 2.7698446,23.313203 3.0357146,19.147897 3.3346556,17.777832 3.6973596,16.92212 5.0892856,17.540754 L 4.9999996,15.665754"
       style="fill:#000000;fill-opacity:1;stroke:none"
       sodipodi:nodetypes="ccccccc" />
    <path
       inkscape:connector-curvature="0"
       id="path3776"
       d="M 4.0178576,15.13004 3.8392856,17.808611 5.2678576,18.701468 5.3571476,14.415754 4.0178576,15.13004"
       style="fill:#000000;fill-opacity:1;stroke:none" />
    <path
       inkscape:connector-curvature="0"
       id="path3778"
       d="M 26.25,15.576468 26.160714,19.058611 28.392857,18.165754 28.392857,16.022897 26.428571,14.862183 26.25,15.576468"
       style="fill:#000000;fill-opacity:1;stroke:none" />
    <path
       sodipodi:nodetypes="ccccccccccccccccccccccccccccccccccc"
       inkscape:connector-curvature="0"
       id="active"
       d="M 5.8928576,7.3621826 7.6785716,8.4336112 C 7.7214326,9.4520796 7.9369606,10.029933 8.5714286,10.75504 7.5122606,11.570695 6.7267016,12.199154 5.5357146,12.183611 L 5.3571426,13.701468 C 5.9660156,13.343303 6.6008146,13.03499 7.2321426,12.719325 7.6678806,13.512427 8.1601576,13.852976 8.9285716,14.237183 8.7862656,16.58472 8.0728836,17.954064 9.1964286,19.951468 L 7.1428576,20.933611 C 7.2709896,23.138442 7.2036176,23.609771 5.4464246,24.683612 L 5.1785676,26.38004 6.7857106,27.00504 7.8571386,28.344326 C 7.0561376,29.160749 6.0876316,29.139647 5.1785676,29.415754 5.2353296,30.68754 5.4705156,31.040418 6.4285676,31.737183 6.3912716,31.061715 6.2386306,30.421124 6.0714246,29.772897 7.5549756,29.219997 7.0019506,29.665153 8.3928536,29.237183 L 9.2857103,30.308612 9.1071386,28.701469 8.1249956,27.451469 C 7.5058886,26.243475 7.1296996,25.839394 6.1607106,25.219326 7.0535076,24.89192 7.3958736,24.470244 7.8571386,23.701468 8.3745826,23.776577 8.8727486,23.920681 9.374996,24.058611 L 9.464282,22.183611 C 7.5973486,22.411637 7.3073166,21.495175 9.1964286,21.022897 L 9.5535715,19.50504 C 9.0599676,18.409476 8.5379336,17.641207 9.5535675,16.915754 11.349251,17.351154 11.894556,17.496203 12.41071,19.147897 13.326887,17.794124 14.39307,17.618533 15.178567,19.058611 15.316108,18.336828 15.244436,17.703231 15.089286,17.00504 L 20.892857,18.433611 21.071429,15.13004 C 16.769706,16.389157 13.587494,17.271901 9.7321429,15.13004 L 9.1964286,8.0764684 5.8928576,7.3621826"
       style="opacity:0.37155965;fill:#00ffff;fill-opacity:1;stroke:none" />
  </g>
</svg>
