<?xml version="1.0" encoding="UTF-8" standalone="no"?>
<!-- Created with Inkscape (http://www.inkscape.org/) -->

<svg
   xmlns:dc="http://purl.org/dc/elements/1.1/"
   xmlns:cc="http://creativecommons.org/ns#"
   xmlns:rdf="http://www.w3.org/1999/02/22-rdf-syntax-ns#"
   xmlns:svg="http://www.w3.org/2000/svg"
   xmlns="http://www.w3.org/2000/svg"
   xmlns:sodipodi="http://sodipodi.sourceforge.net/DTD/sodipodi-0.dtd"
   xmlns:inkscape="http://www.inkscape.org/namespaces/inkscape"
   width="37.725639"
   height="32.928841"
   id="svg2"
   version="1.1"
   inkscape:version="0.48.4 r9943 custom"
   sodipodi:docname="lab-equipment.svg">
  <sodipodi:namedview
     id="base"
     pagecolor="#ffffff"
     bordercolor="#666666"
     borderopacity="1.0"
     inkscape:pageopacity="0.0"
     inkscape:pageshadow="2"
     inkscape:zoom="7.919596"
     inkscape:cx="65.181044"
     inkscape:cy="10.575308"
     inkscape:document-units="px"
     inkscape:current-layer="layer1"
     showgrid="false"
     inkscape:window-width="1855"
     inkscape:window-height="1036"
     inkscape:window-x="740"
     inkscape:window-y="22"
     inkscape:window-maximized="0"
     showguides="true"
     inkscape:guide-bbox="true"
     fit-margin-top="0"
     fit-margin-left="0"
     fit-margin-right="0"
     fit-margin-bottom="0" />
  <defs
     id="defs4" />
  <metadata
     id="metadata7">
    <rdf:RDF>
      <cc:Work
         rdf:about="">
        <dc:format>image/svg+xml</dc:format>
        <dc:type
           rdf:resource="http://purl.org/dc/dcmitype/StillImage" />
        <dc:title />
      </cc:Work>
    </rdf:RDF>
  </metadata>
  <g
     id="layer1"
     inkscape:groupmode="layer"
     inkscape:label="Layer 1"
     transform="translate(-0.15508328,-0.14075024)">
    <rect
       y="0.14075024"
       x="0.15508328"
       height="32.928841"
       width="37.687344"
       id="rect2993"
       style="fill:#666666;fill-opacity:1;fill-rule:nonzero;stroke:none" />
    <path
       inkscape:connector-curvature="0"
       id="path3771"
       d="M 9.3439109,12.788939 9.3439109,4.3289111 16.414979,4.9602561 16.162441,1.1721841 18.814091,1.9297981 18.814091,4.7077181 26.642774,4.8339871 26.390236,1.6772601 28.789348,1.9297981 28.663079,4.3289111 34.345187,4.5814491 33.335034,7.8644448 23.991123,7.2330995 24.36993,11.021172 20.708127,10.516095 20.455589,7.2330995 11.995561,7.1068304 11.869292,13.294015 9.3439109,12.788939"
       style="fill:#917c6f;stroke:none" />
    <path
       sodipodi:nodetypes="ccccccccc"
       inkscape:connector-curvature="0"
       id="path3773"
       d="M 9.3439108,10.011019 10.85914,9.7584809 11.869292,5.9704088 19.066629,6.349216 20.581858,7.3593685 12.248099,7.3593685 11.995561,12.410131 9.5157196,12.035464 9.3439108,10.011019"
       style="opacity:0.55504587;fill:#483737;fill-opacity:1;stroke:none" />
    <path
       sodipodi:nodetypes="ccccc"
       inkscape:connector-curvature="0"
       id="path2995"
       d="M 3.2829955,32.86572 24.117392,32.99199 24.243661,11.905055 3.0304575,11.463113 3.2829955,32.86572 3.2829955,32.86572"
       style="fill:#000000;fill-opacity:1;stroke:none" />
    <path
       sodipodi:nodetypes="ccccccccc"
       inkscape:connector-curvature="0"
       id="path3775"
       d="M 20.32932,8.7483283 23.359778,8.3695211 23.486047,5.8441397 33.840111,6.4754851 33.461304,7.8644448 24.117392,7.3593685 24.622468,11.147441 20.834396,10.642364 20.32932,8.7483283"
       style="opacity:0.55045872;fill:#483737;fill-opacity:1;stroke:none" />
    <path
       sodipodi:nodetypes="ccccc"
       inkscape:connector-curvature="0"
       id="path3765"
       d="M 23.991123,32.991989 33.335034,32.86572 32.451151,16.450742 24.117392,12.094459 23.991123,32.991989"
       style="fill:#1a1a1a;fill-opacity:1;stroke:none" />
    <path
       inkscape:connector-curvature="0"
       id="path3767"
       d="M 29.041886,19.733737 27.652926,20.74389 28.53681,23.143002 33.587573,23.648078 32.072344,21.122697 34.218918,19.860006 29.041886,19.733737"
       style="fill:#483737;stroke:none" />
    <path
       inkscape:connector-curvature="0"
       id="path3769"
       d="M 30.557115,20.238814 30.557115,23.269271 C 37.446116,22.912249 34.710902,26.912938 34.471456,32.739451 L 37.880721,32.86572 C 36.417197,24.622132 39.686153,19.132263 30.557115,20.238814"
       style="fill:#333333;fill-opacity:1;stroke:none"
       sodipodi:nodetypes="ccccc" />
    <path
       sodipodi:nodetypes="cccc"
       inkscape:connector-curvature="0"
       id="path3777"
       d="M 5.4295695,15.061782 20.708127,15.440589 21.213203,24.279424 6.0609151,24.153155"
       style="fill:#008000;stroke:#000000;stroke-width:1px;stroke-linecap:butt;stroke-linejoin:miter;stroke-opacity:1" />
    <path
       style="fill:#002b00;stroke:#000000;stroke-width:1px;stroke-linecap:butt;stroke-linejoin:miter;stroke-opacity:1"
       d="M 5.4295695,15.061782 20.708127,15.440589 21.213203,24.279424 6.0609151,24.153155"
       id="path3002"
       inkscape:connector-curvature="0"
       sodipodi:nodetypes="cccc" />
    <path
       sodipodi:nodetypes="cccc"
       inkscape:connector-curvature="0"
       id="active"
       d="M 5.4295695,15.061782 20.708127,15.440589 21.213203,24.279424 6.0609151,24.153155"
       style="fill:#55d400;stroke:#000000;stroke-width:1px;stroke-linecap:butt;stroke-linejoin:miter;stroke-opacity:1" />
  </g>
</svg>
