<?xml version="1.0" encoding="UTF-8" standalone="no"?>
<!-- Created with Inkscape (http://www.inkscape.org/) -->

<svg
   xmlns:dc="http://purl.org/dc/elements/1.1/"
   xmlns:cc="http://creativecommons.org/ns#"
   xmlns:rdf="http://www.w3.org/1999/02/22-rdf-syntax-ns#"
   xmlns:svg="http://www.w3.org/2000/svg"
   xmlns="http://www.w3.org/2000/svg"
   xmlns:sodipodi="http://sodipodi.sourceforge.net/DTD/sodipodi-0.dtd"
   xmlns:inkscape="http://www.inkscape.org/namespaces/inkscape"
   width="1052.3622"
   height="744.09448"
   id="svg4042"
   version="1.1"
   inkscape:version="0.48.4 r9943 custom"
   sodipodi:docname="logo.svg"
   inkscape:export-filename="/Users/monty/Desktop/derelict.png"
   inkscape:export-xdpi="90"
   inkscape:export-ydpi="90">
  <sodipodi:namedview
     id="base"
     pagecolor="#ffffff"
     bordercolor="#666666"
     borderopacity="1.0"
     inkscape:pageopacity="0.0"
     inkscape:pageshadow="2"
     inkscape:zoom="3.959798"
     inkscape:cx="50.292973"
     inkscape:cy="754.12484"
     inkscape:document-units="px"
     inkscape:current-layer="layer1"
     showgrid="false"
     inkscape:window-width="1857"
     inkscape:window-height="1036"
     inkscape:window-x="63"
     inkscape:window-y="22"
     inkscape:window-maximized="0"
     fit-margin-top="0"
     fit-margin-left="0"
     fit-margin-right="0"
     fit-margin-bottom="0" />
  <defs
     id="defs4044">
    <inkscape:perspective
       id="perspective4070"
       inkscape:persp3d-origin="372.04724 : 350.78739 : 1"
       inkscape:vp_z="744.09448 : 526.18109 : 1"
       inkscape:vp_y="0 : 1000 : 0"
       inkscape:vp_x="0 : 526.18109 : 1"
       sodipodi:type="inkscape:persp3d" />
  </defs>
  <metadata
     id="metadata4047">
    <rdf:RDF>
      <cc:Work
         rdf:about="">
        <dc:format>image/svg+xml</dc:format>
        <dc:type
           rdf:resource="http://purl.org/dc/dcmitype/StillImage" />
        <dc:title />
      </cc:Work>
    </rdf:RDF>
  </metadata>
  <g
     id="layer1"
     inkscape:groupmode="layer"
     inkscape:label="Layer 1">
    <path
       sodipodi:nodetypes="cccccccccccccccccccccccccccccccc"
       inkscape:connector-curvature="0"
       id="path3026"
       d="M8.1583792 13.082769L5.1493792 8.6577693L2.3173792 8.9527693L0.48837919 7.0647693L3.2554412 5.0083893L10.066069 5.6610593L20.42304 5.0189393L25.555288 5.7956593L29.952414 6.6105993L37.304379 13.495769L40.077379 25.000769L37.894379 35.443769L31.935379 42.228769L20.849097 44.878779L10.529552 44.259479L3.3849862 44.883769L1.5098502 42.783209L2.1448822 40.950179L5.1493792 41.166769L8.1583792 36.741769L8.1583792 13.082769L8.1583792 13.082769M13.114379 12.492769L13.114379 37.449769L15.769379 40.753769L20.830665 40.950439L30.991379 37.154769L34.826379 25.000769L32.466379 15.029769L26.094379 9.7197693L19.616555 8.9735393L14.117379 9.4837693L13.114379 12.492769L13.114379 12.492769"
       style="font-size:59px;font-style:normal;font-variant:normal;font-weight:normal;font-stretch:normal;line-height:125%;letter-spacing:0px;word-spacing:0px;fill:#000000;fill-opacity:1;stroke:none;font-family:American Typewriter;-inkscape-font-specification:American Typewriter" />
    <path
       sodipodi:nodetypes="ccccccccccccccccccccccc"
       inkscape:connector-curvature="0"
       id="path3028"
       style="font-size:59px;font-style:normal;font-variant:normal;font-weight:normal;font-stretch:normal;line-height:125%;letter-spacing:0px;word-spacing:0px;fill:#000000;fill-opacity:1;stroke:none;font-family:American Typewriter;-inkscape-font-specification:American Typewriter"
       d="M71.436801 23.242769L70.286301 26.251769L50.049301 26.930269L52.084801 34.747769L58.692801 37.697769L63.412801 36.281769L66.510301 31.827269L68.722801 29.555769L70.905801 31.797769L67.011801 38.641769L58.161801 41.591769L48.308801 37.461769L44.650801 26.251769L48.544801 14.569769L58.692801 10.085769L67.837801 13.802769L71.436801 23.242769M66.038301 22.121769L64.297801 16.280769L58.751801 13.979769L52.733801 16.398769L50.668801 22.121769L66.038301 22.121769" />
    <path
       sodipodi:nodetypes="ccccccccccccccccccccccccsccccccccccccc"
       inkscape:connector-curvature="0"
       id="path3030"
       style="font-size:59px;font-style:normal;font-variant:normal;font-weight:normal;font-stretch:normal;line-height:125%;letter-spacing:0px;word-spacing:0px;fill:#000000;fill-opacity:1;stroke:none;font-family:American Typewriter;-inkscape-font-specification:American Typewriter"
       d="M84.673082 10.799769L84.673082 12.392769L92.874083 8.0857693L99.541073 10.445769L102.13707 16.404769L100.83907 20.652769L97.417083 22.245769L95.116083 21.419769L94.172083 19.413769L94.880083 17.761769L96.532083 16.994769L97.299083 17.171769L97.653083 15.873769L96.119083 12.982769L92.402083 11.802769L86.266082 15.932769L85.322082 23.602769L85.322082 27.496769L85.381082 31.921769L87.210082 35.284769L89.924083 34.871769L91.812083 36.759769L89.393083 38.824769L89.157083 38.824769L82.680345 38.412009L76.767082 38.824769L74.348082 36.759769L76.590082 34.930769L79.186082 35.284769L80.779082 32.570769L80.897082 29.561769L80.720082 16.168769L78.950082 12.687769L76.354082 13.041769L74.407082 11.153769L76.944082 9.0887693L83.139082 9.1477693L84.673082 10.799769" />
    <path
       sodipodi:nodetypes="ccccccccccccccccccccccccccc"
       inkscape:connector-curvature="0"
       id="path3032"
       style="font-size:59px;font-style:normal;font-variant:normal;font-weight:normal;font-stretch:normal;line-height:125%;letter-spacing:0px;word-spacing:0px;fill:#000000;fill-opacity:1;stroke:none;font-family:American Typewriter;-inkscape-font-specification:American Typewriter"
       d="M131.4739 27.242769L131.1789 30.015769L129.4679 30.487769L110.0864 30.930269L112.1219 38.747769L118.7299 41.697769L123.4499 40.281769L126.2819 36.682769L126.8129 34.971769L128.7599 33.555769L130.9429 35.797769L127.0489 42.641769L118.1989 45.591769L108.3459 41.461769L104.6879 30.251769L108.5819 18.569769L118.7299 14.085769L127.8749 17.802769L131.4739 27.242769M110.0569 25.708769L111.3549 26.534769L125.4559 26.534769L126.6949 25.708769L124.3349 20.280769L118.7889 17.979769L112.7709 20.398769L110.0569 25.708769" />
    <path
       sodipodi:nodetypes="cccccccccccccccccc"
       inkscape:connector-curvature="0"
       id="path3034"
       style="font-size:59px;font-style:normal;font-variant:normal;font-weight:normal;font-stretch:normal;line-height:125%;letter-spacing:0px;word-spacing:0px;fill:#000000;fill-opacity:1;stroke:none;font-family:American Typewriter;-inkscape-font-specification:American Typewriter"
       d="M145.06418 34.275769L146.65718 37.284769L149.07618 36.871769L151.02318 38.877769L148.60418 40.824769L142.40918 40.352769L136.65668 40.824769L134.03118 38.700769L136.03718 36.871769L139.99018 36.281769L140.34418 5.3657693L138.69218 4.0087694L136.09618 4.3627694L134.09018 2.4747694L136.45018 0.52776938L144.12018 0.46876938L145.47718 2.1797694L145.41818 3.0647694" />
    <path
       sodipodi:nodetypes="ccccccccccccccccccccccccccccc"
       inkscape:connector-curvature="0"
       id="path3036"
       style="font-size:59px;font-style:normal;font-variant:normal;font-weight:normal;font-stretch:normal;line-height:125%;letter-spacing:0px;word-spacing:0px;fill:#000000;fill-opacity:1;stroke:none;font-family:American Typewriter;-inkscape-font-specification:American Typewriter"
       d="M163.62521 36.629769L165.21821 39.284769L167.57821 38.871769L169.82021 40.818769L169.05321 42.234769L167.22421 42.824769L161.50121 42.293769L155.01121 42.824769L152.65121 40.818769L154.65721 38.871769L157.43021 39.225769L159.14121 35.449769L159.14121 20.345769L157.37121 16.628769L154.77521 17.041769L152.65121 15.153769L155.24721 13.147769L159.25921 13.442769L162.15021 13.147769L163.86121 15.448769M160.49821 10.020769L158.13821 9.0767693L157.19421 6.7167693L158.13821 4.4157694L160.49821 3.4717694L162.79921 4.4157694L163.80221 6.7167693L162.79921 9.0767693L160.49821 10.020769" />
    <path
       sodipodi:nodetypes="cccccccccccccccccccccccccc"
       inkscape:connector-curvature="0"
       id="path3038"
       style="font-size:59px;font-style:normal;font-variant:normal;font-weight:normal;font-stretch:normal;line-height:125%;letter-spacing:0px;word-spacing:0px;fill:#000000;fill-opacity:1;stroke:none;font-family:American Typewriter;-inkscape-font-specification:American Typewriter"
       d="M189.49948 19.118769L192.44948 16.404769L190.44348 13.159769L186.13648 11.979769L179.58748 15.224769L177.10948 23.838769L179.41048 32.570769L185.90048 35.697769L190.38448 34.222769L193.03948 30.151769L193.74748 27.791769L195.63548 26.611769L197.93648 28.912769L196.99248 32.452769L194.75048 35.874769L185.72348 39.591769L175.98848 35.343769L172.33048 24.192769L176.10648 12.510769L186.25448 8.0857693L194.10148 10.681769L197.22848 17.171769L195.98948 20.770769L192.92148 22.186769L190.44348 21.301769L189.49948 19.118769" />
    <path
       sodipodi:nodetypes="cccccccccccccccccccccccccccc"
       inkscape:connector-curvature="0"
       id="path3040"
       style="font-size:59px;font-style:normal;font-variant:normal;font-weight:normal;font-stretch:normal;line-height:125%;letter-spacing:0px;word-spacing:0px;fill:#000000;fill-opacity:1;stroke:none;font-family:American Typewriter;-inkscape-font-specification:American Typewriter"
       d="M218.63165 34.446769L218.74965 30.670769L220.87365 28.251769L222.93865 30.965769L221.28665 39.933769L213.91165 43.355769L207.18565 40.346769L205.71065 32.912769L205.71065 18.752769L204.58965 17.513769L201.10865 16.923769L200.51865 15.389769L201.10865 13.914769L204.82565 13.265769L205.82865 12.144769L205.82865 6.0677693L208.12965 3.8257694L210.25365 6.0677693L210.25365 12.380769L211.31565 13.265769L217.74665 13.265769L219.98865 15.330769L217.56965 17.513769L211.07965 17.513769L210.25365 18.752769L210.25365 33.266769L214.32465 39.461769L218.63165 34.446769" />
    <path
       inkscape:connector-curvature="0"
       d="M231.26429 39.400609L229.50429 38.680609L228.78429 36.880609L229.50429 35.120609L231.26429 34.360609L233.02429 35.120609L233.74429 36.880609L233.02429 38.680609L231.26429 39.400609"
       style="font-size:40px;font-style:normal;font-variant:normal;font-weight:normal;font-stretch:normal;line-height:125%;letter-spacing:0px;word-spacing:0px;fill:#000000;fill-opacity:1;stroke:none;font-family:American Typewriter;-inkscape-font-specification:American Typewriter"
       id="path3141" />
  </g>
</svg>
