<?xml version="1.0" encoding="UTF-8" standalone="no"?>
<!-- Created with Inkscape (http://www.inkscape.org/) -->

<svg
   xmlns:dc="http://purl.org/dc/elements/1.1/"
   xmlns:cc="http://creativecommons.org/ns#"
   xmlns:rdf="http://www.w3.org/1999/02/22-rdf-syntax-ns#"
   xmlns:svg="http://www.w3.org/2000/svg"
   xmlns="http://www.w3.org/2000/svg"
   xmlns:sodipodi="http://sodipodi.sourceforge.net/DTD/sodipodi-0.dtd"
   xmlns:inkscape="http://www.inkscape.org/namespaces/inkscape"
   width="744.09448819"
   height="1052.3622047"
   id="svg2"
   version="1.1"
   inkscape:version="0.48.4 r9943 custom"
   sodipodi:docname="magboots.svg">
  <sodipodi:namedview
     id="base"
     pagecolor="#ffffff"
     bordercolor="#666666"
     borderopacity="1.0"
     inkscape:pageopacity="0.0"
     inkscape:pageshadow="2"
     inkscape:zoom="31.678384"
     inkscape:cx="22.237579"
     inkscape:cy="1043.9094"
     inkscape:document-units="px"
     inkscape:current-layer="layer1"
     showgrid="false"
     inkscape:window-width="1855"
     inkscape:window-height="1036"
     inkscape:window-x="763"
     inkscape:window-y="22"
     inkscape:window-maximized="0"
     showguides="true"
     inkscape:guide-bbox="true" />
  <defs
     id="defs4" />
  <metadata
     id="metadata7">
    <rdf:RDF>
      <cc:Work
         rdf:about="">
        <dc:format>image/svg+xml</dc:format>
        <dc:type
           rdf:resource="http://purl.org/dc/dcmitype/StillImage" />
        <dc:title />
      </cc:Work>
    </rdf:RDF>
  </metadata>
  <g
     inkscape:label="Layer 1"
     inkscape:groupmode="layer"
     id="layer1">
    <rect
       style="fill:#666666;fill-opacity:1;fill-rule:nonzero;stroke:none"
       id="rect2993"
       width="37.605278"
       height="32.857136"
       x="-11.952932"
       y="-11.923525" />
    <path
       style="fill:#d40000;stroke:none"
       d="M 0.39223536,-4.5164187 -1.8868726,0.2317113 C 1.4892559,1.1955609 1.5203012,4.7446815 1.1519374,7.4488913 0.00379,8.2034564 -1.1998574,8.8095224 -2.4566496,9.3481413 L -3.2163526,11.437331 -6.4450886,12.956731 -6.6350146,14.855991 1.7217144,15.235841 6.8497064,12.956731 C 5.137811,7.1902438 6.4283064,0.78087794 8.1791864,-3.9466487 5.4381348,-3.5032738 3.0269714,-3.8964909 0.39223536,-4.5164187"
       id="path2985"
       inkscape:connector-curvature="0"
       sodipodi:nodetypes="ccccccccccc" />
    <path
       style="fill:#d40000;stroke:none"
       d="M9.6985914 -3.5667987L12.547475 -5.2761287L15.586285 -5.6559787L17.10569 -5.0861987L17.865392 -2.0473887L15.77621 1.7511213L15.77621 5.3597013L16.915765 8.2085913L17.865392 9.1582213L18.815022 10.297771L19.004947 10.867551L19.004947 11.817181L21.663906 14.855991L18.245244 15.805611L15.206434 15.235841L11.787773 13.906361L8.7489624 12.956731L8.7489624 11.817181L9.1288134 10.107851L10.078442 7.6388113L10.458293 5.3597013L10.838144 2.7007513L9.8885164 1.3712713L9.3187394 0.2317113L9.1288134 -1.4776187L9.6985914 -3.5667987"
       id="path2987"
       inkscape:connector-curvature="0" />
    <path
       style="opacity:0.7;fill:#000000;stroke:none"
       d="M -6.0652366,14.855991 -3.7861286,14.889117 -3.7861286,13.336581 C -2.2034224,12.733745 -1.4042947,11.565009 -0.36746764,10.297771 3.5885847,8.7027474 4.0760969,6.4167564 4.9504504,2.7007513 3.4103801,0.42441223 1.1538507,0.76308869 -1.3502291,0.07230577 2.0196867,2.4465324 2.231684,4.2694518 1.3418624,7.8287413 L -1.8868726,9.7280013 C -2.5963265,11.950141 -4.2817967,12.349898 -6.2551626,13.336581 L -6.0652366,14.855991"
       id="path2989"
       inkscape:connector-curvature="0"
       sodipodi:nodetypes="cccccccccc" />
    <path
       style="opacity:0.7;fill:#cccccc;stroke:none"
       d="M 12.167624,-4.8962787 C 14.635623,-3.071574 15.686444,-2.6483406 15.206434,0.2317113 L 14.863371,1.0840275 13.753817,2.6707532 C 13.807463,4.883593 15.433345,7.5968332 15.966136,9.7280013 L 17.675467,12.197031 17.675467,15.045921 18.213155,15.522032 21.001515,14.66763 18.848677,12.828376 17.836437,10.23412 C 15.391343,7.9891176 14.832924,4.3145989 15.39636,1.9410513 L 17.235091,-2.0473887 16.790017,-4.7063487 15.459495,-5.3408224 12.167624,-4.8962787"
       id="path2991"
       inkscape:connector-curvature="0"
       sodipodi:nodetypes="cccccccccccccccc" />
    <path
       style="fill:#00ff00;stroke:none"
       d="M 3.6611345,2.6830326 2.6718956,4.0766906 1.936143,2.4341496"
       id="active"
       inkscape:connector-curvature="0"
       sodipodi:nodetypes="ccc" />
  </g>
</svg>
