<?xml version="1.0" encoding="UTF-8" standalone="no"?>
<!-- Created with Inkscape (http://www.inkscape.org/) -->

<svg
   xmlns:dc="http://purl.org/dc/elements/1.1/"
   xmlns:cc="http://creativecommons.org/ns#"
   xmlns:rdf="http://www.w3.org/1999/02/22-rdf-syntax-ns#"
   xmlns:svg="http://www.w3.org/2000/svg"
   xmlns="http://www.w3.org/2000/svg"
   xmlns:sodipodi="http://sodipodi.sourceforge.net/DTD/sodipodi-0.dtd"
   xmlns:inkscape="http://www.inkscape.org/namespaces/inkscape"
   width="36.2075"
   height="31.635845"
   id="svg2"
   version="1.1"
   inkscape:version="0.48.4 r9943 custom"
   sodipodi:docname="ship-ignition-key.svg">
  <sodipodi:namedview
     id="base"
     pagecolor="#ffffff"
     bordercolor="#666666"
     borderopacity="1.0"
     inkscape:pageopacity="0.0"
     inkscape:pageshadow="2"
     inkscape:zoom="11.2"
     inkscape:cx="37.071708"
     inkscape:cy="6.0650735"
     inkscape:document-units="px"
     inkscape:current-layer="layer1"
     showgrid="false"
     inkscape:window-width="1855"
     inkscape:window-height="1036"
     inkscape:window-x="100"
     inkscape:window-y="22"
     inkscape:window-maximized="0"
     showguides="true"
     inkscape:guide-bbox="true"
     fit-margin-top="0"
     fit-margin-left="0"
     fit-margin-right="0"
     fit-margin-bottom="0" />
  <defs
     id="defs4" />
  <metadata
     id="metadata7">
    <rdf:RDF>
      <cc:Work
         rdf:about="">
        <dc:format>image/svg+xml</dc:format>
        <dc:type
           rdf:resource="http://purl.org/dc/dcmitype/StillImage" />
        <dc:title />
      </cc:Work>
    </rdf:RDF>
  </metadata>
  <g
     inkscape:label="Layer 1"
     inkscape:groupmode="layer"
     id="layer1"
     transform="translate(-0.18647492,-0.04181806)">
    <rect
       style="fill:#666666;fill-opacity:1;fill-rule:nonzero;stroke:none"
       id="rect2993"
       width="36.2075"
       height="31.635845"
       x="0.18647492"
       y="0.04181806" />
    <path
       sodipodi:nodetypes="ccccccccccc"
       inkscape:connector-curvature="0"
       id="path4008"
       d="M 8.5435063,9.7532945 C 9.4752899,8.2264388 10.91967,8.145713 12.55199,7.6844045 L 14.656628,8.2584345 C 18.166767,11.532435 19.675063,16.580362 17.013043,20.097765 14.598308,20.216819 11.413886,18.684592 11.064972,16.865075 L 14.814843,16.024585 C 17.334052,17.94794 19.942619,18.229332 22.287805,16.614305 23.154581,11.877043 22.104447,8.6881281 18.823326,7.7490045 L 15.725699,7.6997045 C 14.748505,8.2789965 13.672181,8.6360901 12.616643,9.0420645 L 8.8021183,9.8825545"
       style="fill:#502d16;stroke:none" />
    <path
       sodipodi:nodetypes="csccccc"
       inkscape:connector-curvature="0"
       id="path4010"
       d="M 12.552326,7.6765545 15.816888,7.4976545 18.823326,7.6197545 C 23.191067,9.2684441 22.61566,13.105132 22.249932,16.606505 20.602584,18.276327 19.25131,19.600382 17.013043,20.097765 19.970604,16.492873 17.00589,10.901301 14.685537,8.2662745 L 12.552326,7.6765545"
       style="fill:#d45500;stroke:none" />
    <path
       sodipodi:nodetypes="ccccc"
       inkscape:connector-curvature="0"
       id="path4012"
       d="M 15.784637,8.5248945 18.823326,8.0723245 C 22.628461,9.8255746 22.040289,13.335944 21.797362,16.541855 21.043116,17.671316 19.9718,18.353816 18.887979,19.127975 20.255281,14.699683 17.937718,10.65047 15.784637,8.5248945"
       style="fill:#d4aa00;stroke:none" />
    <path
       sodipodi:nodetypes="ccccccc"
       inkscape:connector-curvature="0"
       id="path4014"
       d="M 22.30282,16.576485 C 20.661395,18.24032 19.308792,19.585401 17.079678,20.101195 15.429886,20.26214 14.325951,19.739885 12.898555,19.042365 L 16.893692,17.404175 18.09748,17.606962 18.028089,18.089135 C 19.596409,18.19441 20.970191,17.472899 22.30282,16.576485 z"
       style="opacity:0.34862384;fill:#241c1c;stroke:none" />
    <path
       sodipodi:nodetypes="ccccc"
       inkscape:connector-curvature="0"
       id="path4016"
       d="M 12.616643,7.6844045 C 15.256335,7.8875335 16.281606,9.8313237 17.934348,11.709045 20.193828,11.601257 20.536239,11.829705 21.661121,10.05272 19.755625,7.9132309 18.543696,7.6696754 15.865453,7.5550945 L 12.616643,7.6844045"
       style="opacity:0.52752291;fill:#f4d7d7;stroke:none" />
    <path
       style="opacity:0.32568808;fill:#ffffff;stroke:none"
       d="M 13.667253,7.7490545 14.960312,8.0561545 17.675736,7.7167245 13.74807,7.7329245 13.667253,7.7490545"
       id="path4040"
       inkscape:connector-curvature="0" />
    <path
       style="opacity:0.48623855;fill:#00ff00;stroke:none"
       d="M 16.108572,8.6346087 C 17.825707,8.1544431 18.021937,8.198647 19.02693,8.3896837 19.692562,8.7108191 19.850854,8.514924 20.553634,9.4844599 21.315218,11.156561 20.127741,12.579554 17.687459,10.659841 17.24363,9.7488633 16.676423,9.1908156 16.108572,8.6346087 z"
       id="active"
       inkscape:connector-curvature="0"
       sodipodi:nodetypes="ccccc" />
  </g>
</svg>
