<?xml version="1.0" encoding="UTF-8" standalone="no"?>
<!-- Created with Inkscape (http://www.inkscape.org/) -->

<svg
   xmlns:dc="http://purl.org/dc/elements/1.1/"
   xmlns:cc="http://creativecommons.org/ns#"
   xmlns:rdf="http://www.w3.org/1999/02/22-rdf-syntax-ns#"
   xmlns:svg="http://www.w3.org/2000/svg"
   xmlns="http://www.w3.org/2000/svg"
   xmlns:sodipodi="http://sodipodi.sourceforge.net/DTD/sodipodi-0.dtd"
   xmlns:inkscape="http://www.inkscape.org/namespaces/inkscape"
   width="744.09448819"
   height="1052.3622047"
   id="svg2"
   version="1.1"
   inkscape:version="0.48.4 r9943 custom"
   sodipodi:docname="wrist computer.svg">
  <sodipodi:namedview
     id="base"
     pagecolor="#ffffff"
     bordercolor="#666666"
     borderopacity="1.0"
     inkscape:pageopacity="0.0"
     inkscape:pageshadow="2"
     inkscape:zoom="11.2"
     inkscape:cx="15.295389"
     inkscape:cy="1042.6386"
     inkscape:document-units="px"
     inkscape:current-layer="layer1"
     showgrid="false"
     inkscape:window-width="1855"
     inkscape:window-height="1036"
     inkscape:window-x="100"
     inkscape:window-y="22"
     inkscape:window-maximized="0"
     showguides="true"
     inkscape:guide-bbox="true" />
  <defs
     id="defs4" />
  <metadata
     id="metadata7">
    <rdf:RDF>
      <cc:Work
         rdf:about="">
        <dc:format>image/svg+xml</dc:format>
        <dc:type
           rdf:resource="http://purl.org/dc/dcmitype/StillImage" />
        <dc:title />
      </cc:Work>
    </rdf:RDF>
  </metadata>
  <g
     inkscape:label="Layer 1"
     inkscape:groupmode="layer"
     id="layer1">
    <rect
       style="fill:#666666;fill-opacity:1;fill-rule:nonzero;stroke:none"
       id="rect2993"
       width="36.2075"
       height="31.635845"
       x="0.097189225"
       y="0.13110378" />
    <path
       style="fill:#00ff00;stroke:none"
       d="M 0.28005357,0.31397057 3.2059126,1.9597606 2.8401806,27.743891 6.3146366,28.475361 7.0461016,30.121151 34.841758,29.572551 36.304687,30.304021 36.487553,31.766951 -0.08567843,31.401221 0.28005357,0.31397057"
       id="active"
       inkscape:connector-curvature="0" />
    <path
       sodipodi:nodetypes="ccccccccccccccccccccccccc"
       inkscape:connector-curvature="0"
       id="path4008"
       d="M 8.4542206,9.8425803 9.4886679,8.6141803 12.462704,7.7736903 14.567342,8.3477203 17.725224,11.86069 18.331107,15.26626 18.057481,18.72289 16.923757,20.18705 14.79021,20.12235 12.850622,19.34652 11.104992,17.79485 10.975686,16.95436 14.725557,16.11387 16.729798,17.47158 19.186611,17.92415 20.802934,17.66554 22.198519,16.70359 22.483911,12.17004 21.772729,9.4869403 18.73404,7.8382903 15.636413,7.7889903 14.57978,8.3419603 12.527357,9.1313503 8.7128326,9.9718403 8.4542206,9.8425303"
       style="fill:#502d16;stroke:none" />
    <path
       sodipodi:nodetypes="csccccccccccc"
       inkscape:connector-curvature="0"
       id="path4010"
       d="M 12.46304,7.7658403 15.727602,7.5869403 18.73404,7.7090403 21.837381,9.5193203 22.613217,12.23474 22.160646,16.69579 18.669387,19.79914 16.923757,20.18705 18.022857,18.70004 18.346122,15.27343 17.764245,11.91148 14.596251,8.3555603 12.46304,7.7658403"
       style="fill:#d45500;stroke:none" />
    <path
       sodipodi:nodetypes="cccccccccc"
       inkscape:connector-curvature="0"
       id="path4012"
       d="M 15.695351,8.6141803 18.73404,8.1616103 21.38481,9.9718903 22.03134,12.10544 21.708076,16.63114 20.608975,17.9242 18.798693,19.21726 19.251263,17.34232 18.992652,11.84682 15.695351,8.6141803"
       style="fill:#d4aa00;stroke:none" />
    <path
       sodipodi:nodetypes="cccccccccc"
       inkscape:connector-curvature="0"
       id="path4014"
       d="M 20.091752,17.85955 22.213534,16.66577 18.715579,19.79129 16.990392,20.19048 14.750164,20.0801 12.809269,19.13165 16.804406,17.49346 18.119802,17.74089 18.072732,18.17842 20.09175,17.85955"
       style="opacity:0.34862384;fill:#241c1c;stroke:none" />
    <path
       sodipodi:nodetypes="cccccccc"
       inkscape:connector-curvature="0"
       id="path4016"
       d="M 12.527357,7.7736903 14.757884,8.2909103 17.845062,11.79833 20.657465,11.34576 21.772728,9.5839703 18.798693,7.7736903 15.776167,7.6443803 12.527357,7.7736903"
       style="opacity:0.52752291;fill:#f4d7d7;stroke:none" />
    <path
       style="opacity:0.32568808;fill:#ffffff;stroke:none"
       d="M 13.577967,7.8383403 14.871026,8.1454403 17.58645,7.8060103 13.658784,7.8222103 13.577967,7.8383403"
       id="path4040"
       inkscape:connector-curvature="0" />
  </g>
</svg>
