<?xml version="1.0" encoding="UTF-8" standalone="no"?>
<!-- Created with Inkscape (http://www.inkscape.org/) -->

<svg
   xmlns:dc="http://purl.org/dc/elements/1.1/"
   xmlns:cc="http://creativecommons.org/ns#"
   xmlns:rdf="http://www.w3.org/1999/02/22-rdf-syntax-ns#"
   xmlns:svg="http://www.w3.org/2000/svg"
   xmlns="http://www.w3.org/2000/svg"
   xmlns:xlink="http://www.w3.org/1999/xlink"
   xmlns:sodipodi="http://sodipodi.sourceforge.net/DTD/sodipodi-0.dtd"
   xmlns:inkscape="http://www.inkscape.org/namespaces/inkscape"
   width="744.09448819"
   height="1052.3622047"
   id="svg2"
   version="1.1"
   inkscape:version="0.48.4 r9943 custom"
   sodipodi:docname="useWith.svg">
  <defs
     id="defs4">
    <linearGradient
       inkscape:collect="always"
       id="linearGradient3833">
      <stop
         style="stop-color:#ffdd55;stop-opacity:1;"
         offset="0"
         id="stop3835" />
      <stop
         style="stop-color:#ffdd55;stop-opacity:0;"
         offset="1"
         id="stop3837" />
    </linearGradient>
    <linearGradient
       inkscape:collect="always"
       id="linearGradient3825">
      <stop
         style="stop-color:#000000;stop-opacity:1;"
         offset="0"
         id="stop3827" />
      <stop
         style="stop-color:#000000;stop-opacity:0;"
         offset="1"
         id="stop3829" />
    </linearGradient>
    <linearGradient
       id="linearGradient3817">
      <stop
         style="stop-color:#000000;stop-opacity:1;"
         offset="0"
         id="stop3819" />
      <stop
         style="stop-color:#000000;stop-opacity:0;"
         offset="1"
         id="stop3821" />
    </linearGradient>
    <linearGradient
       id="linearGradient3780">
      <stop
         style="stop-color:#ff0000;stop-opacity:1;"
         offset="0"
         id="stop3782" />
      <stop
         style="stop-color:#000000;stop-opacity:1;"
         offset="1"
         id="stop3784" />
    </linearGradient>
    <linearGradient
       inkscape:collect="always"
       xlink:href="#linearGradient3825"
       id="linearGradient3831"
       x1="312.6088"
       y1="318.94754"
       x2="314.89383"
       y2="363.94754"
       gradientUnits="userSpaceOnUse"
       gradientTransform="matrix(0.1412826,0,0,0.1412826,-0.0231153,2.2466694)" />
    <linearGradient
       inkscape:collect="always"
       xlink:href="#linearGradient3833"
       id="linearGradient3839"
       x1="316.43774"
       y1="460.50812"
       x2="315.8382"
       y2="449.07956"
       gradientUnits="userSpaceOnUse"
       gradientTransform="matrix(0.1412826,0,0,0.1412826,0.229175,2.8017082)" />
  </defs>
  <sodipodi:namedview
     id="base"
     pagecolor="#ffffff"
     bordercolor="#666666"
     borderopacity="1.0"
     inkscape:pageopacity="0.0"
     inkscape:pageshadow="2"
     inkscape:zoom="2.8284271"
     inkscape:cx="17.167141"
     inkscape:cy="976.08582"
     inkscape:document-units="px"
     inkscape:current-layer="layer1"
     showgrid="false"
     inkscape:window-width="1860"
     inkscape:window-height="1036"
     inkscape:window-x="60"
     inkscape:window-y="22"
     inkscape:window-maximized="0" />
  <metadata
     id="metadata7">
    <rdf:RDF>
      <cc:Work
         rdf:about="">
        <dc:format>image/svg+xml</dc:format>
        <dc:type
           rdf:resource="http://purl.org/dc/dcmitype/StillImage" />
        <dc:title />
      </cc:Work>
    </rdf:RDF>
  </metadata>
  <g
     inkscape:label="Layer 1"
     inkscape:groupmode="layer"
     id="layer1">
    <rect
       style="fill:#800080;fill-opacity:1;fill-rule:nonzero;stroke:none"
       id="rect3792"
       width="106.60323"
       height="100.7143"
       x="-0.2293148"
       y="2.9336112" />
    <path
       style="fill:#ffcc00;stroke:none"
       d="M -1.0493391,68.125437 107.60395,78.16063 107.19393,117.74389 -0.2293144,118.85891 z"
       id="path3790"
       inkscape:connector-curvature="0" />
    <path
       style="fill:#800000;stroke:none"
       d="M 28.753437,59.426363 C 32.170477,58.701705 32.330309,55.632312 33.505656,53.008754 L 32.58486,57.706656 35.193369,56.991752 36.583026,52.410514 35.414238,56.974774 38.294697,55.878726 38.763786,51.713793 39.052017,55.652858 41.648216,54.602673 C 40.898558,44.184606 50.256172,48.125242 55.362184,45.722053 L 45.762408,42.492736 32.04844,48.547705 z"
       id="path2987"
       inkscape:connector-curvature="0"
       sodipodi:nodetypes="cccccccccccccc" />
    <path
       style="fill:#0000ff;fill-opacity:1;fill-rule:nonzero;stroke:none"
       d="M 55.612297,58.33657 C 55.612297,63.85428 50.951866,68.327267 45.202929,68.327267 39.453996,68.327267 34.793565,63.85428 34.793565,58.33657 34.793565,52.81886 39.453996,48.345872 45.202929,48.345872 50.550796,48.345872 55.028568,52.235251 55.560646,57.342558"
       id="path2989"
       inkscape:connector-curvature="0" />
    <path
       style="fill:#ff0000;fill-opacity:1;stroke:none"
       d="M 106.00154,15.447211 C 85.916036,25.953496 66.464095,46.576378 47.476653,39.26342 29.828991,42.702524 25.01187,60.432459 28.792545,59.399776 30.844608,49.659397 35.855657,49.714322 45.076708,47.740375 53.186786,52.789768 49.069768,58.696448 43.705312,61.46497 L 43.579903,63.786911 C 54.046273,62.165187 53.467854,60.076531 58.358142,51.919737 L 100.61508,37.299178 105.25939,34.990314 z"
       id="path2985"
       inkscape:connector-curvature="0"
       sodipodi:nodetypes="cccccccccc" />
    <path
       style="fill:#008000;stroke:none"
       d="M 9.2208537,77.747713 20.173841,80.559638 29.208805,78.511013 17.50822,76.01334 z"
       id="path3841"
       inkscape:connector-curvature="0"
       sodipodi:nodetypes="ccccc" />
    <path
       style="fill:#88aa00;stroke:none"
       d="M 9.226321,77.747825 9.1804365,87.887338 19.851747,90.66884 20.173524,80.559491 z"
       id="path3843"
       inkscape:connector-curvature="0"
       sodipodi:nodetypes="ccccc" />
    <path
       style="fill:#668000;stroke:none"
       d="M 20.173037,80.55999 19.841534,90.671536 28.97086,86.908081 29.17942,78.497784 z"
       id="path3845"
       inkscape:connector-curvature="0"
       sodipodi:nodetypes="ccccc" />
    <path
       style="opacity:0.71559634;fill:#00ffff;stroke:none"
       d="M 32.017759,60.354895 30.039803,70.244677 32.724172,74.765718 28.768259,77.02624 29.89852,80.134457 24.388499,84.514217 34.27828,82.112413 33.148019,78.721631 40.494714,77.02624 36.256236,71.51622 46.146018,70.809806 C 37.218107,69.731134 32.531732,65.737927 32.017759,60.354895 z"
       id="path3871"
       inkscape:connector-curvature="0"
       sodipodi:nodetypes="cccccccccccc" />
  </g>
</svg>
